<svg id="Layer_1" data-name="Layer 1" xmlns="http://www.w3.org/2000/svg" xmlns:xlink="http://www.w3.org/1999/xlink" viewBox="0 0 272.7 195.6"><defs><style>.cls-1{fill:#c49e3f;}.cls-2{fill:url(#linear-gradient);}.cls-3{fill:#c4963d;}.cls-4{fill:url(#linear-gradient-2);}.cls-5{fill:url(#linear-gradient-3);}.cls-6{fill:#d3af58;}.cls-7{fill:url(#linear-gradient-4);}</style><linearGradient id="linear-gradient" x1="-3027.77" y1="106.48" x2="-2994.49" y2="106.48" gradientTransform="matrix(-1, 0, 0, 1, -2790.57, 0)" gradientUnits="userSpaceOnUse"><stop offset="0.01" stop-color="#c49e3f"/><stop offset="0.04" stop-color="#c29c3d"/><stop offset="0.4" stop-color="#ad832c"/><stop offset="0.73" stop-color="#a07422"/><stop offset="1" stop-color="#9b6f1e"/></linearGradient><linearGradient id="linear-gradient-2" x1="-2860.73" y1="140.96" x2="-2814.88" y2="140.96" gradientTransform="matrix(-1, 0, 0, 1, -2790.57, 0)" gradientUnits="userSpaceOnUse"><stop offset="0" stop-color="#9b6f1e"/><stop offset="0.52" stop-color="#9d711f"/><stop offset="0.71" stop-color="#a47725"/><stop offset="0.86" stop-color="#b0832e"/><stop offset="0.97" stop-color="#c1933b"/><stop offset="0.99" stop-color="#c4963d"/></linearGradient><linearGradient id="linear-gradient-3" x1="-2946.34" y1="154.97" x2="-2909.64" y2="154.97" xlink:href="#linear-gradient-2"/><linearGradient id="linear-gradient-4" x1="-3044.13" y1="109.27" x2="-2805.26" y2="109.27" gradientTransform="matrix(-1, 0, 0, 1, -2790.57, 0)" gradientUnits="userSpaceOnUse"><stop offset="0" stop-color="#d3af58"/><stop offset="0.41" stop-color="#f7d665"/><stop offset="1" stop-color="#d3af58"/></linearGradient></defs><path class="cls-1" d="M204.4,120.8c0,.4,1.2.9,3.1,1.3,4.6,1,13.2,1.3,17.3-2.2,1.7-1.5,3.7-3.1,5.7-4.6,4.7-3.7,9.7-7.3,13.4-9.1,5.3-2.7,7.9-26.6,7.9-26.6l-18.2-4.9L209.2,86.2s-.4,2.9-1,7c-1.1,7.7-2.8,19.7-3.5,25C204.5,119.7,204.4,120.6,204.4,120.8Z"/><path class="cls-2" d="M203.9,117.2l.8,1,2.8,3.9c4.6,1,13.2,1.3,17.3-2.2,1.7-1.5,3.7-3.1,5.7-4.6-5.7-8.2,6.7-25.1,6.7-25.1s-27.6,3-29,3S203.9,117.2,203.9,117.2Z"/><path class="cls-3" d="M24.3,124s9.7,18.6,14.6,21.7S61,156.9,70.2,159.6l2.8.7c7.2,1.3,38-2.3,46.7.1a3.4,3.4,0,0,1,1.2.4c5.7,2.6,14.3,9.7,21.1,12.9l3.3,1.3c12.3,3.3,54.4-1.4,73.3-16,3.5-2.7,14.9-28.8,14.9-28.8l-58.9-9.4L63.7,119.1l-25.6,3.2Z"/><path class="cls-4" d="M24.3,124s9.7,18.6,14.6,21.7S61,156.9,70.2,159.6c-5.5-4.9-11.6-12.3-12.7-22.1s-10.3-13.2-19.4-15.2Z"/><path class="cls-5" d="M117,138.6c2,2.9,2.7,12.7,2.7,21.8a3.4,3.4,0,0,1,1.2.4c5.7,2.6,14.3,9.7,21.1,12.9a33.5,33.5,0,0,1,11.1-21.6l-18.4-12S112.7,132.6,117,138.6Z"/><path class="cls-6" d="M24.6,109.7a18.6,18.6,0,0,1,.6,5.1,54,54,0,0,1-.8,7.2c-.3,2.5,0,4,2.9,4.2,6.2.4,31.5,16.8,38.2,16.4s43.9-4,56.3-1.4,22.2,13.3,24.9,13.3,61.5-12.2,84-21.4a5.6,5.6,0,0,0,1.4-9.7c-7.6-5.7-18.1-14.6-14.9-17.2,4.9-4,34.6-18.2,34.6-26.6,0-5.6-11.1-13.2-25.5-19.4-7.2-3.2-76.1-22.3-79.6-24.1-12.9-6.7-94.2,21.5-92.5,29.2,2.7,12-33.9,33.4-30,42.9A8.3,8.3,0,0,1,24.6,109.7Z"/><path class="cls-7" d="M27,126c6.2.4,29.2,17.9,35.8,18.3,8.8.7,46.3-5.9,58.7-3.2s17.9,13,27.8,15.3c17.2,4,43.6,5.2,81.1-23.5,3.5-2.6,4.8-7.1,1.3-9.7-7.5-5.7-18-14.5-14.8-17.2,4.9-4,34.6-18.2,34.6-26.6,0-5.6-11.1-13.1-25.5-19.4,11,7.9,18.7,16.5,9.1,20.7a76.7,76.7,0,0,0-13.2,7.5c-10.1,7.1-15.7,18.9-15.9,31.3-.4,14.5-25.3,27.2-45.5,23.4-25.2-4.9-49.7-13.7-62.6-8.8s-43,3.4-73.6-12.1h-.2C23.8,124.3,24.1,125.8,27,126Z"/></svg>