<svg id="Layer_1" data-name="Layer 1" xmlns="http://www.w3.org/2000/svg" xmlns:xlink="http://www.w3.org/1999/xlink" viewBox="0 0 446.1 313.2"><defs><style>.cls-1{fill:#c49e3f;}.cls-2{fill:url(#linear-gradient);}.cls-3{fill:#c4963d;}.cls-4{fill:#9b6f1e;}.cls-5{fill:url(#linear-gradient-2);}.cls-6{fill:url(#linear-gradient-3);}.cls-7{fill:#d3af58;}.cls-8{fill:url(#linear-gradient-4);}</style><linearGradient id="linear-gradient" x1="49.13" y1="169.16" x2="103.21" y2="169.16" gradientUnits="userSpaceOnUse"><stop offset="0.01" stop-color="#c49e3f"/><stop offset="0.04" stop-color="#c29c3d"/><stop offset="0.4" stop-color="#ad832c"/><stop offset="0.73" stop-color="#a07422"/><stop offset="1" stop-color="#9b6f1e"/></linearGradient><linearGradient id="linear-gradient-2" x1="320.58" y1="225.18" x2="395.08" y2="225.18" gradientUnits="userSpaceOnUse"><stop offset="0" stop-color="#9b6f1e"/><stop offset="0.52" stop-color="#9d711f"/><stop offset="0.71" stop-color="#a47725"/><stop offset="0.86" stop-color="#b0832e"/><stop offset="0.97" stop-color="#c1933b"/><stop offset="0.99" stop-color="#c4963d"/></linearGradient><linearGradient id="linear-gradient-3" x1="181.46" y1="247.96" x2="241.09" y2="247.96" xlink:href="#linear-gradient-2"/><linearGradient id="linear-gradient-4" x1="22.54" y1="173.69" x2="410.71" y2="173.69" gradientUnits="userSpaceOnUse"><stop offset="0" stop-color="#d3af58"/><stop offset="0.41" stop-color="#f7d665"/><stop offset="1" stop-color="#d3af58"/></linearGradient></defs><path class="cls-1" d="M102.5,192.5c0,.6-2,1.4-5.1,2.1-7.5,1.5-21.4,2.1-28.1-3.6-2.8-2.4-6-5-9.4-7.6-7.5-5.9-15.6-11.7-21.6-14.7-8.6-4.3-13-43.3-13-43.3l29.6-7.9,39.7,18.7s.7,4.7,1.6,11.4c1.8,12.5,4.7,32,5.8,40.6C102.3,190.6,102.5,192.2,102.5,192.5Z"/><path class="cls-2" d="M103.2,186.5l-1.2,1.7-4.6,6.4c-7.5,1.5-21.4,2.1-28.1-3.6-2.8-2.4-6-5-9.4-7.6,9.4-13.3-10.8-40.7-10.8-40.7s44.9,4.9,47.1,4.9S103.2,186.5,103.2,186.5Z"/><path class="cls-3" d="M395.1,197.7s-15.7,30.1-23.6,35.2-36.1,18.2-50.9,22.6l-4.7,1.2c-11.6,2-61.6-3.7-75.9,0l-2,.7c-9.2,4.3-23.1,15.7-34.2,21a37.2,37.2,0,0,1-5.4,2.1c-19.8,5.4-88.3-2.2-119-26-5.7-4.4-24.2-46.8-24.2-46.8l95.6-15.2,180.3-2.9,41.6,5.3Z"/><path class="cls-4" d="M427.7,124.7s-8.6,49-15.1,55.5-28.9,23.1-28.9,23.1L372.9,155l43.3-33.2Z"/><path class="cls-5" d="M395.1,197.7s-15.7,30.1-23.6,35.2-36.1,18.2-50.9,22.6c8.8-7.9,18.8-20,20.6-36,1.6-14.4,16.7-21.3,31.5-24.6Z"/><path class="cls-6" d="M244.5,221.3c-3.4,4.8-4.4,20.7-4.5,35.4l-2,.7c-9.2,4.3-23.1,15.7-34.2,21-2.6-23.1-18-35.1-18-35.1l29.9-19.5S251.4,211.6,244.5,221.3Z"/><path class="cls-7" d="M394.5,174.5a39.9,39.9,0,0,0-.8,8.2c0,4.8.9,8.7,1.2,11.7s0,6.4-4.7,6.7c-10.1.7-51.2,27.4-62,26.7s-71.4-6.5-91.6-2.2-36,21.7-40.4,21.7-99.9-20-136.6-34.9a9.2,9.2,0,0,1-2.1-15.8c12.2-9.3,29.3-23.6,24.1-27.9-8-6.5-56.3-29.6-56.3-43.3,0-9.1,18.1-21.3,41.5-31.5a260.8,260.8,0,0,1,37.9-13.2c9.6-2.5,18.8-4.8,27.7-6.8,16.5-3.9,31.4-7.3,44.1-11.3a120.6,120.6,0,0,0,19.7-7.9c21-10.8,65.6-.7,81.5,3.7,13.9,3.7,15.1,15.8,20.5,18.8a5.3,5.3,0,0,0,2.6.6c7.9,0,116.1,36.8,125.5,45.4l.8,1.2c5.3,9.1-25.6,32.2-31.8,47.5C395,172.8,394.7,173.7,394.5,174.5Z"/><path class="cls-8" d="M390.8,200.9c-10.1.7-47.5,29-58.3,29.8-14.2,1-75.2-9.7-95.3-5.3s-29.1,21.2-45.3,24.9c-27.8,6.5-70.8,8.4-131.7-38.1-5.7-4.4-7.9-11.6-2.2-15.9,12.2-9.2,29.4-23.6,24.1-27.9-7.9-6.5-56.2-29.6-56.2-43.3,0-9,18.1-21.3,41.4-31.5-17.8,12.9-30.4,26.9-14.8,33.7,33.2,14.4,84.4,15.1,55.6,44.7s24.5,64.2,65.6,56.3,90.1-23.1,111.1-15.2,60.5,6.5,110.3-18.7l.3-.2C395.9,198.2,395.4,200.5,390.8,200.9Z"/></svg>