<svg xmlns="http://www.w3.org/2000/svg" xmlns:xlink="http://www.w3.org/1999/xlink" viewBox="0 0 1800.4 2019.4"><defs><style>.cls-1{fill:none;}.cls-2{isolation:isolate;}.cls-3{fill:#95d67b;}.cls-4{fill:#747620;}.cls-5{fill:#e5d031;}.cls-6{fill:#dbbb05;}.cls-7{fill:url(#linear-gradient);}.cls-24,.cls-8{fill:#b07622;}.cls-9{fill:url(#linear-gradient-2);}.cls-10{fill:url(#linear-gradient-3);}.cls-11,.cls-24{opacity:0.5;}.cls-12{fill:url(#linear-gradient-4);}.cls-13{opacity:0.35;}.cls-14{fill:url(#linear-gradient-5);}.cls-15{fill:url(#linear-gradient-6);}.cls-16{fill:url(#linear-gradient-7);}.cls-17{fill:url(#linear-gradient-8);}.cls-18{fill:url(#linear-gradient-9);}.cls-19{fill:url(#linear-gradient-10);}.cls-20{fill:url(#linear-gradient-11);}.cls-21{fill:url(#linear-gradient-12);}.cls-22{fill:url(#linear-gradient-13);}.cls-23{fill:url(#linear-gradient-14);}.cls-25{mix-blend-mode:overlay;}.cls-26{clip-path:url(#clip-path);}.cls-100,.cls-101,.cls-102,.cls-103,.cls-104,.cls-105,.cls-106,.cls-107,.cls-27,.cls-28,.cls-29,.cls-30,.cls-31,.cls-32,.cls-33,.cls-34,.cls-35,.cls-36,.cls-37,.cls-38,.cls-39,.cls-40,.cls-41,.cls-42,.cls-43,.cls-44,.cls-45,.cls-46,.cls-47,.cls-48,.cls-49,.cls-50,.cls-51,.cls-52,.cls-53,.cls-54,.cls-55,.cls-56,.cls-57,.cls-58,.cls-59,.cls-60,.cls-61,.cls-62,.cls-63,.cls-64,.cls-65,.cls-66,.cls-67,.cls-68,.cls-69,.cls-70,.cls-71,.cls-73,.cls-74,.cls-75,.cls-76,.cls-77,.cls-78,.cls-79,.cls-80,.cls-81,.cls-82,.cls-83,.cls-84,.cls-85,.cls-86,.cls-87,.cls-88,.cls-89,.cls-90,.cls-91,.cls-92,.cls-93,.cls-94,.cls-95,.cls-96,.cls-97,.cls-98,.cls-99{fill-rule:evenodd;opacity:0.2;mix-blend-mode:screen;}.cls-27{fill:url(#linear-gradient-15);}.cls-28{fill:url(#linear-gradient-16);}.cls-29{fill:url(#linear-gradient-17);}.cls-30{fill:url(#linear-gradient-18);}.cls-31{fill:url(#linear-gradient-19);}.cls-32{fill:url(#linear-gradient-20);}.cls-33{fill:url(#linear-gradient-21);}.cls-34{fill:url(#linear-gradient-22);}.cls-35{fill:url(#linear-gradient-23);}.cls-36{fill:url(#linear-gradient-24);}.cls-37{fill:url(#linear-gradient-25);}.cls-38{fill:url(#linear-gradient-26);}.cls-39{fill:url(#linear-gradient-27);}.cls-40{fill:url(#linear-gradient-28);}.cls-41{fill:url(#linear-gradient-29);}.cls-42{fill:url(#linear-gradient-30);}.cls-43{fill:url(#linear-gradient-31);}.cls-44{fill:url(#linear-gradient-32);}.cls-45{fill:url(#linear-gradient-33);}.cls-46{fill:url(#linear-gradient-34);}.cls-47{fill:url(#linear-gradient-35);}.cls-48{fill:url(#linear-gradient-36);}.cls-49{fill:url(#linear-gradient-37);}.cls-50{fill:url(#linear-gradient-38);}.cls-51{fill:url(#linear-gradient-39);}.cls-52{fill:url(#linear-gradient-40);}.cls-53{fill:url(#linear-gradient-41);}.cls-54{fill:url(#linear-gradient-42);}.cls-55{fill:url(#linear-gradient-43);}.cls-56{fill:url(#linear-gradient-44);}.cls-57{fill:url(#linear-gradient-45);}.cls-58{fill:url(#linear-gradient-46);}.cls-59{fill:url(#linear-gradient-47);}.cls-60{fill:url(#linear-gradient-48);}.cls-61{fill:url(#linear-gradient-49);}.cls-62{fill:url(#linear-gradient-50);}.cls-63{fill:url(#linear-gradient-51);}.cls-64{fill:url(#linear-gradient-52);}.cls-65{fill:url(#linear-gradient-53);}.cls-66{fill:url(#linear-gradient-54);}.cls-67{fill:url(#linear-gradient-55);}.cls-68{fill:url(#linear-gradient-56);}.cls-69{fill:url(#linear-gradient-57);}.cls-70{fill:url(#linear-gradient-58);}.cls-71{fill:url(#linear-gradient-59);}.cls-72{clip-path:url(#clip-path-2);}.cls-73{fill:url(#linear-gradient-60);}.cls-74{fill:url(#linear-gradient-61);}.cls-75{fill:url(#linear-gradient-62);}.cls-76{fill:url(#linear-gradient-63);}.cls-77{fill:url(#linear-gradient-64);}.cls-78{fill:url(#linear-gradient-65);}.cls-79{fill:url(#linear-gradient-66);}.cls-80{fill:url(#linear-gradient-67);}.cls-81{fill:url(#linear-gradient-68);}.cls-82{fill:url(#linear-gradient-69);}.cls-83{fill:url(#linear-gradient-70);}.cls-84{fill:url(#linear-gradient-71);}.cls-85{fill:url(#linear-gradient-72);}.cls-86{fill:url(#linear-gradient-73);}.cls-87{fill:url(#linear-gradient-74);}.cls-88{fill:url(#linear-gradient-75);}.cls-89{fill:url(#linear-gradient-76);}.cls-90{fill:url(#linear-gradient-77);}.cls-91{fill:url(#linear-gradient-78);}.cls-92{fill:url(#linear-gradient-79);}.cls-93{fill:url(#linear-gradient-80);}.cls-94{fill:url(#linear-gradient-81);}.cls-95{fill:url(#linear-gradient-82);}.cls-96{fill:url(#linear-gradient-83);}.cls-97{fill:url(#linear-gradient-84);}.cls-98{fill:url(#linear-gradient-85);}.cls-99{fill:url(#linear-gradient-86);}.cls-100{fill:url(#linear-gradient-87);}.cls-101{fill:url(#linear-gradient-88);}.cls-102{fill:url(#linear-gradient-89);}.cls-103{fill:url(#linear-gradient-90);}.cls-104{fill:url(#linear-gradient-91);}.cls-105{fill:url(#linear-gradient-92);}.cls-106{fill:url(#linear-gradient-93);}.cls-107{fill:url(#linear-gradient-94);}</style><linearGradient id="linear-gradient" x1="40.14" y1="1193.61" x2="1762.37" y2="1193.61" gradientUnits="userSpaceOnUse"><stop offset="0" stop-color="#de9f3e"/><stop offset="0.33" stop-color="#d39537"/><stop offset="0.9" stop-color="#b57b25"/><stop offset="0.99" stop-color="#b07622"/></linearGradient><linearGradient id="linear-gradient-2" x1="335" y1="1323.65" x2="727.79" y2="1323.65" xlink:href="#linear-gradient"/><linearGradient id="linear-gradient-3" x1="883.59" y1="1370.67" x2="883.59" y2="377.3" gradientUnits="userSpaceOnUse"><stop offset="0" stop-color="#e0c169"/><stop offset="0.35" stop-color="#dfb85e"/><stop offset="0.96" stop-color="#dea140"/><stop offset="1" stop-color="#de9f3e"/></linearGradient><linearGradient id="linear-gradient-4" x1="1252.03" y1="515.27" x2="1495.49" y2="515.27" gradientUnits="userSpaceOnUse"><stop offset="0" stop-color="#de9f3e"/><stop offset="0.04" stop-color="#dea140"/><stop offset="0.65" stop-color="#dfb85e"/><stop offset="1" stop-color="#e0c169"/></linearGradient><linearGradient id="linear-gradient-5" x1="586.57" y1="533.63" x2="765.11" y2="533.63" xlink:href="#linear-gradient-4"/><linearGradient id="linear-gradient-6" x1="1203.34" y1="813.66" x2="1381.87" y2="813.66" xlink:href="#linear-gradient-4"/><linearGradient id="linear-gradient-7" x1="256.55" y1="848.09" x2="435.09" y2="848.09" xlink:href="#linear-gradient-4"/><linearGradient id="linear-gradient-8" x1="1387.28" y1="864.16" x2="1468.44" y2="864.16" xlink:href="#linear-gradient-4"/><linearGradient id="linear-gradient-9" x1="708.3" y1="1258.95" x2="962.58" y2="1258.95" xlink:href="#linear-gradient-4"/><linearGradient id="linear-gradient-10" x1="1032.92" y1="1222.22" x2="1135.71" y2="1222.22" xlink:href="#linear-gradient-4"/><linearGradient id="linear-gradient-11" x1="137.53" y1="1075.32" x2="305.24" y2="1075.32" xlink:href="#linear-gradient-4"/><linearGradient id="linear-gradient-12" x1="351.23" y1="1020.24" x2="437.79" y2="1020.24" xlink:href="#linear-gradient-4"/><linearGradient id="linear-gradient-13" x1="581.84" y1="1007.04" x2="668.4" y2="1007.04" xlink:href="#linear-gradient-4"/><linearGradient id="linear-gradient-14" x1="1143.08" y1="460.19" x2="1269.01" y2="460.19" xlink:href="#linear-gradient-4"/><clipPath id="clip-path"><path class="cls-1" d="M-436.7,2663.1V2256.7H-913.8v43.5c0,10.8-15.7,19.7-34.9,19.7h-114.6c-19.2,0-34.9,8.9-34.9,19.7v34c0,10.9-15.7,19.7-34.9,19.7H-1468c-19.2,0-34.9,8.9-34.9,19.7v34.6c0,10.8,15.7,19.7,34.9,19.7h31.9c13.8,0,25.8,4.6,31.4,11.2h-73.2V2522c0,10.8-15.7,19.7-34.9,19.7h-114.7c-19.2,0-34.9,8.9-34.9,19.7v34c0,10.9-15.7,19.7-34.9,19.7h-334.9c-19.2,0-34.9,8.9-34.9,19.8v34.5c0,10.8,15.7,19.7,34.9,19.7h31.9c19.2,0,34.9,8.9,34.9,19.7v18.4c0,10.9-15.7,19.7-34.9,19.7h-19.8c-19.2,0-34.9,8.9-34.9,19.7v20.6c0,10.8-15.7,19.7-34.9,19.7h-54.2c-19.2,0-34.9,8.8-34.9,19.7V2909c0,6.7-6,12.6-15,16.2h-162.4v800.9H-436.7v-1063Z"/></clipPath><linearGradient id="linear-gradient-15" x1="289.56" y1="679.47" x2="289.56" y2="554.81" gradientUnits="userSpaceOnUse"><stop offset="0" stop-color="#684b3c"/><stop offset="1"/></linearGradient><linearGradient id="linear-gradient-16" x1="1271.85" y1="-925.74" x2="1271.85" y2="-1069.45" gradientTransform="translate(-1314.3 1930.9) rotate(44.5)" xlink:href="#linear-gradient-15"/><linearGradient id="linear-gradient-17" x1="156.82" y1="2055.76" x2="156.82" y2="1976.44" xlink:href="#linear-gradient-15"/><linearGradient id="linear-gradient-18" x1="23.51" y1="2029.82" x2="23.51" y2="1935.83" xlink:href="#linear-gradient-15"/><linearGradient id="linear-gradient-19" x1="117.73" y1="1959.86" x2="117.73" y2="1871.99" xlink:href="#linear-gradient-15"/><linearGradient id="linear-gradient-20" x1="-22.07" y1="1885.61" x2="-22.07" y2="1808.08" xlink:href="#linear-gradient-15"/><linearGradient id="linear-gradient-21" x1="234.17" y1="1887.16" x2="234.17" y2="1798.8" xlink:href="#linear-gradient-15"/><linearGradient id="linear-gradient-22" x1="12.25" y1="1816.16" x2="12.25" y2="1750.8" xlink:href="#linear-gradient-15"/><linearGradient id="linear-gradient-23" x1="144.88" y1="1821.61" x2="144.88" y2="1741.53" xlink:href="#linear-gradient-15"/><linearGradient id="linear-gradient-24" x1="63.59" y1="1717.67" x2="63.59" y2="1641.48" xlink:href="#linear-gradient-15"/><linearGradient id="linear-gradient-25" x1="8.87" y1="1651.31" x2="8.87" y2="1567.23" xlink:href="#linear-gradient-15"/><linearGradient id="linear-gradient-26" x1="231.24" y1="1744.94" x2="231.24" y2="1548.28" xlink:href="#linear-gradient-15"/><linearGradient id="linear-gradient-27" x1="131.62" y1="1592.43" x2="131.62" y2="1496.78" xlink:href="#linear-gradient-15"/><linearGradient id="linear-gradient-28" x1="244.77" y1="2010.12" x2="244.77" y2="1914.47" xlink:href="#linear-gradient-15"/><linearGradient id="linear-gradient-29" x1="253.09" y1="1497.5" x2="253.09" y2="1424.29" xlink:href="#linear-gradient-15"/><linearGradient id="linear-gradient-30" x1="32.61" y1="1520.82" x2="32.61" y2="1429.32" xlink:href="#linear-gradient-15"/><linearGradient id="linear-gradient-31" x1="158.17" y1="1448.64" x2="158.17" y2="1380.48" xlink:href="#linear-gradient-15"/><linearGradient id="linear-gradient-32" x1="-35.27" y1="1463.43" x2="-35.27" y2="1384.97" xlink:href="#linear-gradient-15"/><linearGradient id="linear-gradient-33" x1="101.82" y1="1368.22" x2="101.82" y2="1310.09" xlink:href="#linear-gradient-15"/><linearGradient id="linear-gradient-34" x1="241.26" y1="1369.01" x2="241.26" y2="1235.54" xlink:href="#linear-gradient-15"/><linearGradient id="linear-gradient-35" x1="79.31" y1="1305.6" x2="79.31" y2="1223.99" xlink:href="#linear-gradient-15"/><linearGradient id="linear-gradient-36" x1="21.64" y1="1252.86" x2="21.64" y2="1179.11" xlink:href="#linear-gradient-15"/><linearGradient id="linear-gradient-37" x1="202.46" y1="1198.02" x2="202.46" y2="1148.82" xlink:href="#linear-gradient-15"/><linearGradient id="linear-gradient-38" x1="217.86" y1="1103.25" x2="217.86" y2="1071.73" xlink:href="#linear-gradient-15"/><linearGradient id="linear-gradient-39" x1="41.32" y1="1130.94" x2="41.32" y2="1056.98" xlink:href="#linear-gradient-15"/><linearGradient id="linear-gradient-40" x1="102.44" y1="1053.13" x2="102.44" y2="994.88" xlink:href="#linear-gradient-15"/><linearGradient id="linear-gradient-41" x1="219.98" y1="1021.09" x2="219.98" y2="948.68" xlink:href="#linear-gradient-15"/><linearGradient id="linear-gradient-42" x1="45.21" y1="998.74" x2="45.21" y2="909.76" xlink:href="#linear-gradient-15"/><linearGradient id="linear-gradient-43" x1="266.48" y1="956.99" x2="266.48" y2="874.41" xlink:href="#linear-gradient-15"/><linearGradient id="linear-gradient-44" x1="210.54" y1="892.46" x2="210.54" y2="817.98" xlink:href="#linear-gradient-15"/><linearGradient id="linear-gradient-45" x1="95" y1="900.58" x2="95" y2="805.75" xlink:href="#linear-gradient-15"/><linearGradient id="linear-gradient-46" x1="63.1" y1="807.02" x2="63.1" y2="719.91" xlink:href="#linear-gradient-15"/><linearGradient id="linear-gradient-47" x1="238.38" y1="817.03" x2="238.38" y2="710.81" xlink:href="#linear-gradient-15"/><linearGradient id="linear-gradient-48" x1="69.07" y1="701.05" x2="69.07" y2="634.38" xlink:href="#linear-gradient-15"/><linearGradient id="linear-gradient-49" x1="182.51" y1="682.58" x2="182.51" y2="565.14" xlink:href="#linear-gradient-15"/><linearGradient id="linear-gradient-50" x1="60.19" y1="584.9" x2="60.19" y2="496.93" xlink:href="#linear-gradient-15"/><linearGradient id="linear-gradient-51" x1="208.45" y1="539.53" x2="208.45" y2="408.12" xlink:href="#linear-gradient-15"/><linearGradient id="linear-gradient-52" x1="43.96" y1="462.76" x2="43.96" y2="402" xlink:href="#linear-gradient-15"/><linearGradient id="linear-gradient-53" x1="62.55" y1="381.69" x2="62.55" y2="313.43" xlink:href="#linear-gradient-15"/><linearGradient id="linear-gradient-54" x1="265.75" y1="401.76" x2="265.75" y2="319.07" xlink:href="#linear-gradient-15"/><linearGradient id="linear-gradient-55" x1="216.96" y1="355.23" x2="216.96" y2="246.89" xlink:href="#linear-gradient-15"/><linearGradient id="linear-gradient-56" x1="78.73" y1="299.8" x2="78.73" y2="228.82" xlink:href="#linear-gradient-15"/><linearGradient id="linear-gradient-57" x1="243.84" y1="195.73" x2="243.84" y2="94.2" xlink:href="#linear-gradient-15"/><linearGradient id="linear-gradient-58" x1="100.78" y1="153.07" x2="100.78" y2="91.47" xlink:href="#linear-gradient-15"/><linearGradient id="linear-gradient-59" x1="22.6" y1="214.24" x2="22.6" y2="92" xlink:href="#linear-gradient-15"/><clipPath id="clip-path-2"><path class="cls-1" d="M-436.7,1277.4v-591h0V-339.4H-699.9v-24.7c0-13.7-19.9-25-44.3-25h-72.3c-24.3,0-44.3-11.2-44.3-25V-518.8c0-13.8-19.9-25-44.3-25H-974c-24.4,0-44.3-11.3-44.3-25v-26.1c0-13.8-20-25-44.3-25h-25.2c-24.3,0-44.3-11.3-44.3-25.1v-23.3c0-13.8,20-25,44.3-25h40.5c24.4,0,44.4-11.3,44.4-25.1v-43.8c0-13.8-20-25.1-44.4-25.1h-425.2c-24.4,0-44.4-11.2-44.4-25v-43.2c0-13.7-19.9-25-44.3-25h-145.5c-24.4,0-44.3-11.3-44.3-25V-967c0-13.8,19.9-25,44.3-25h145.5c24.4,0,44.3-11.3,44.3-25.1v-43.2c0-13.7,20-25,44.4-25h425.2c24.4,0,44.4-11.2,44.4-25v-43.9c0-13.7-20-25-44.4-25h-40.5c-24.3,0-44.3-11.3-44.3-25v-23.4c0-13.8,20-25,44.3-25h25.2c24.3,0,44.3-11.3,44.3-25v-26.1c0-13.8,19.9-25,44.3-25h68.9c24.4,0,44.3-11.3,44.3-25.1v-104.7c0-13.7,20-25,44.3-25h72.3c24.4,0,44.3-11.2,44.3-25v-24.7h263.2V-3002.6H-913.8v43.6c0,10.8-15.7,19.7-34.9,19.7h-114.6c-19.2,0-34.9,8.8-34.9,19.7v34c0,10.8-15.7,19.7-34.9,19.7H-1468c-19.2,0-34.9,8.9-34.9,19.7v34.6c0,10.8,15.7,19.7,34.9,19.7h31.9c19.2,0,34.9,8.8,34.9,19.7v18.4c0,10.8-15.7,19.7-34.9,19.7h-19.8c-19.2,0-34.9,8.8-34.9,19.7v20.5c0,10.9-15.7,19.7-34.9,19.7H-1580c-19.2,0-34.9,8.9-34.9,19.7v82.5c0,10.8-15.7,19.7-34.9,19.7h-56.9c-19.2,0-34.9,8.9-34.9,19.7V-2418h-77.5v-57.1c0-10.9-15.7-19.7-34.9-19.7h-73.7c-19.2,0-34.9-8.9-34.9-19.7v-24.7c0-10.8-15.7-19.7-34.9-19.7H-2113c-19.2,0-34.9,8.8-34.9,19.6s-15.7,19.6-34.9,19.6h-32.4c-19.2,0-34.9,8.8-34.9,19.7v28.1c0,10.9-15.7,19.7-34.9,19.7h-71.7v40.7h.3v749.2h-.3v1452h.3V686.4h-.3V727h71.7c19.2,0,34.9,8.9,34.9,19.7v28.2c0,10.8,15.7,19.7,34.9,19.7h32.4c19.2,0,34.9,8.8,34.9,19.6s15.7,19.6,34.9,19.6h115.5c19.2,0,34.9-8.9,34.9-19.7V789.4c0-10.9,15.7-19.7,34.9-19.7h73.7c19.2,0,34.9-8.9,34.9-19.7V686.4h77.5V807.5c0,10.8,15.7,19.7,34.9,19.7h56.9c19.2,0,34.9,8.8,34.9,19.7v82.4c0,10.9,15.7,19.7,34.9,19.7h54.3c19.2,0,34.9,8.9,34.9,19.7v20.6c0,10.8,15.7,19.7,34.9,19.7h19.8c19.2,0,34.9,8.9,34.9,19.7v18.4c0,10.8-15.7,19.7-34.9,19.7H-1468c-19.2,0-34.9,8.9-34.9,19.7v34.6c0,10.8,15.7,19.7,34.9,19.7h334.9c19.2,0,34.9,8.8,34.9,19.7v34c0,10.8,15.7,19.7,34.9,19.7h114.6c19.2,0,34.9,8.9,34.9,19.7v43.5h.8v5.7c0,10.8,17.1,19.7,37.9,19.7h6.5c20.8,0,37.8,8.8,37.8,19.7v37.4c0,10.9,17.1,19.7,37.9,19.7h136.6c20.9,0,37.9-8.8,37.9-19.7v-33.5c0-10.8,17-19.7,37.9-19.7h107.4c20.8,0,37.9-8.8,37.9-19.7v-9.6Z"/></clipPath><linearGradient id="linear-gradient-60" x1="8.99" y1="1457.29" x2="8.99" y2="1375.17" xlink:href="#linear-gradient-15"/><linearGradient id="linear-gradient-61" x1="225.39" y1="1505.81" x2="225.39" y2="1348.91" xlink:href="#linear-gradient-15"/><linearGradient id="linear-gradient-62" x1="140.71" y1="1444.15" x2="140.71" y2="1345.94" xlink:href="#linear-gradient-15"/><linearGradient id="linear-gradient-63" x1="7.64" y1="1325.61" x2="7.64" y2="1249.33" xlink:href="#linear-gradient-15"/><linearGradient id="linear-gradient-64" x1="246.17" y1="1294.17" x2="246.17" y2="1242.39" xlink:href="#linear-gradient-15"/><linearGradient id="linear-gradient-65" x1="157.01" y1="1295.08" x2="157.01" y2="1221.46" xlink:href="#linear-gradient-15"/><linearGradient id="linear-gradient-66" x1="79.98" y1="1242.62" x2="79.98" y2="1200.1" xlink:href="#linear-gradient-15"/><linearGradient id="linear-gradient-67" x1="222.99" y1="1187.51" x2="222.99" y2="1145.83" xlink:href="#linear-gradient-15"/><linearGradient id="linear-gradient-68" x1="-17.75" y1="1196.9" x2="-17.75" y2="1116.07" xlink:href="#linear-gradient-15"/><linearGradient id="linear-gradient-69" x1="93.94" y1="1153.91" x2="93.94" y2="1058.77" xlink:href="#linear-gradient-15"/><linearGradient id="linear-gradient-70" x1="-10.22" y1="1050.15" x2="-10.22" y2="956.61" xlink:href="#linear-gradient-15"/><linearGradient id="linear-gradient-71" x1="200.68" y1="1096.97" x2="200.68" y2="937.76" xlink:href="#linear-gradient-15"/><linearGradient id="linear-gradient-72" x1="49.08" y1="1002.6" x2="49.08" y2="887.45" xlink:href="#linear-gradient-15"/><linearGradient id="linear-gradient-73" x1="151.44" y1="868.56" x2="151.44" y2="787.52" xlink:href="#linear-gradient-15"/><linearGradient id="linear-gradient-74" x1="232.99" y1="896.52" x2="232.99" y2="790.82" xlink:href="#linear-gradient-15"/><linearGradient id="linear-gradient-75" x1="34.47" y1="838.01" x2="34.47" y2="755.56" xlink:href="#linear-gradient-15"/><linearGradient id="linear-gradient-76" x1="193.1" y1="742.26" x2="193.1" y2="696.37" xlink:href="#linear-gradient-15"/><linearGradient id="linear-gradient-77" x1="83.21" y1="704.74" x2="83.21" y2="656.61" xlink:href="#linear-gradient-15"/><linearGradient id="linear-gradient-78" x1="-16.95" y1="774.89" x2="-16.95" y2="633.92" xlink:href="#linear-gradient-15"/><linearGradient id="linear-gradient-79" x1="196.22" y1="652.81" x2="196.22" y2="574.21" xlink:href="#linear-gradient-15"/><linearGradient id="linear-gradient-80" x1="72.17" y1="604.15" x2="72.17" y2="565.62" xlink:href="#linear-gradient-15"/><linearGradient id="linear-gradient-81" x1="247.49" y1="599.3" x2="247.49" y2="561.47" xlink:href="#linear-gradient-15"/><linearGradient id="linear-gradient-82" x1="235.63" y1="502.84" x2="235.63" y2="473.44" xlink:href="#linear-gradient-15"/><linearGradient id="linear-gradient-83" x1="104.94" y1="511.91" x2="104.94" y2="440.8" xlink:href="#linear-gradient-15"/><linearGradient id="linear-gradient-84" x1="-1.83" y1="566.76" x2="-1.83" y2="429.7" xlink:href="#linear-gradient-15"/><linearGradient id="linear-gradient-85" x1="181.45" y1="461.99" x2="181.45" y2="385.27" xlink:href="#linear-gradient-15"/><linearGradient id="linear-gradient-86" x1="64.19" y1="381.29" x2="64.19" y2="290.83" xlink:href="#linear-gradient-15"/><linearGradient id="linear-gradient-87" x1="210.33" y1="348.39" x2="210.33" y2="280.93" xlink:href="#linear-gradient-15"/><linearGradient id="linear-gradient-88" x1="248.08" y1="259.56" x2="248.08" y2="229.9" xlink:href="#linear-gradient-15"/><linearGradient id="linear-gradient-89" x1="73.59" y1="247.62" x2="73.59" y2="202.63" xlink:href="#linear-gradient-15"/><linearGradient id="linear-gradient-90" x1="139.29" y1="181.52" x2="139.29" y2="174.73" xlink:href="#linear-gradient-15"/><linearGradient id="linear-gradient-91" x1="221.81" y1="215.73" x2="221.81" y2="101.91" xlink:href="#linear-gradient-15"/><linearGradient id="linear-gradient-92" x1="102.28" y1="151.47" x2="102.28" y2="74.41" xlink:href="#linear-gradient-15"/><linearGradient id="linear-gradient-93" x1="10.08" y1="159.35" x2="10.08" y2="44.85" xlink:href="#linear-gradient-15"/><linearGradient id="linear-gradient-94" x1="201.43" y1="48.81" x2="201.43" y2="-71.42" xlink:href="#linear-gradient-15"/></defs><g class="cls-2"><g id="Layer_1" data-name="Layer 1"><path class="cls-3" d="M744.9,1392.8c31.9-22.6,65-43.2,98.8-62.5l-31.8-11.5c-27.1,17.2-53.8,35.4-79.8,54.5-38.9-16.2-100.6-35-158.5-44.8-2.5,3.6-5.1,7.1-7.7,10.5a7.6,7.6,0,0,0-.8,1.1,12.5,12.5,0,0,1,2.3,15.4c-1.5,2.6-3.1,5.1-4.8,7.6,19.3-6.7,38.8-12.3,59.4-14.1,5.4-.5,10.7,4.2,12.1,9.1s-1.1,11.1-5.8,14.2a361.7,361.7,0,0,1-35.3,20.2c4,.5,7.9,1.1,11.9,1.8s7.1,4.2,8.4,8.1c32.1-3.2,63.5-6.1,89.9-7.2a1355.1,1355.1,0,0,0-123.3,108.3c-48.8-11.7-138.8-23.5-195.6-14.7-82.3,12.9-96.8,36-96.5,56.8.2,22.3,14.9,33.6,95.5,18.8,48.8-8.9,124.5-29.9,176.3-40-28.6,29.3-56,60.3-82.3,92.7-41.4-4.9-117.9-6.5-164.3,5.5-67.2,17.4-77.6,37-75.6,54.3s14.8,27,80.6,8.7c40.4-11.5,102.5-35.8,144.8-49.6-18.8,23.5-36.3,48-53.5,73.1-31.7-.5-90.2,2.5-124.9,13.6-49.7,16.1-56.6,30.9-54.6,43.8s12.2,20.1,61.5,3.6c30.4-10.3,76.5-32.5,107.9-45.9-10,15.1-19.5,30.6-29.1,46.2-27.4,28.7-80,94.3-100.8,140.3-28.6,61.8-21.2,77.9-8.9,83.4s26.4-.3,54-59.7c18.7-41.3,44-113.5,60.4-152.6,10.9-17.3,22-34,33.6-51.1-2.3,35.8-1.6,88,5.1,118.6,10.7,49.9,22.9,55,33.4,52s17.8-12.8,7.3-62c-7-34.3-26.1-91-35.6-122.9,17.6-24.5,35.7-48.1,54.3-71.3-6.4,46-9.1,112.9-2,153.1,11.3,65.2,26.8,72.5,41,70s23.1-14.5,12.8-79c-7.4-44.2-27.4-119.1-36.5-162.6,26.5-31.1,54.3-60.9,83.1-89.6-12.8,54.2-23,131.2-18.4,178.6,8,78.2,26,88.2,42.8,87.2s28-13.9,21.8-90c-4.7-53-19.7-142.7-25.7-195.3a1267,1267,0,0,1,123.9-103.9c-24.3,63-46.6,154.1-46.5,211.6.5,95.5,21.8,110.3,41.7,111.6,21.8,1,34.6-11,36.1-104.1C747.5,1568.9,742.5,1458.4,744.9,1392.8Z"/><path class="cls-4" d="M508.1,1290.9c40.1,20.1,95.7,7.9,107.3,8.6-46.6,9.6-94.2,24.9-141.2,43.9-4.7-18.8-16.1-57.9-40.9-77.7-33.2-27.3-122.7,15.8-122.4,16.4s26.7,54.1,68.3,70.4c20.7,8.2,45.2,6.4,64.5,3.7-47.2,20.4-93.3,43.8-137.6,68-7.2-18.6-22.9-55-49.5-70.9-36.5-23.1-122.5,30.9-122.1,31.5s32.9,50.4,76.7,61.5c19.4,4.9,41,1.5,59.1-2.9-34.9,19.3-68.5,38.3-100.7,55.3-20.1.8-51.5,4.7-76.7,18.2-41,22-54.2,94.1-53.8,93.8s58.5-13.2,94.8-39.9c22.8-17.3,36.8-41.7,45.2-57.3,13.7-7.4,27.6-14.9,41.9-22.9-10,8.6-19.4,18.2-26.3,28-25.9,36.8,5.4,88,5.3,88s48.3-39.7,67.5-77c14.3-28.3,9.7-56.9,8.3-69.5,26.8-14.9,54.5-30.2,82.7-44.8a179.4,179.4,0,0,0-14.5,14.4c-34.5,40.4-3,105.5-3,105.3s60.3-40.3,87-81.7c19.2-30.5,18.4-64.1,18.3-80.2,60.2-26.5,122.1-47.6,181.8-58.9-24.2,9.2-51.1,22.8-70.1,40.1-43.9,40-17.7,119.2-17.5,118.9s71.1-35,106.2-76.8c26.4-32.1,29.9-71.9,32.2-89.5l7.3-.4-36.7-13.2c-10.5,1.6-21.1,3.4-31.9,5.6-.5-3.9-1.3-10.4-2.8-18.2l-169.9-61.4C455.5,1240,477,1274.9,508.1,1290.9Z"/><path class="cls-5" d="M401.6,549s-2.2-1.9-5.4-5c-7.9-7.7-22.4-22.6-29.8-36.3-10.6-19.3-85.2-67.7-87.9-106.3C278.5,401.4,352.4,368.9,401.6,549Z"/><path class="cls-6" d="M396.2,544c-7.9-7.7-22.4-22.6-29.8-36.3-10.6-19.3-85.2-67.7-87.9-106.3,0,0,59.1,22,85.5,74.7C377.3,502.8,388.4,526.8,396.2,544Z"/><path class="cls-5" d="M341.1,194c0,35.4-29.3,88.6-43.1,95.1a5.3,5.3,0,0,1-2.5.7c-4.5,0-8-38.6-11.5-66.8S336.7,23.5,336.7,23.5s.1,1.6.2,4.4C337.6,51,341.1,160.3,341.1,194Z"/><path class="cls-5" d="M342.2,353.5s18.5-38.7,51-62.4,56.2-76.4,56.2-76.4-13.1,37.7-25.4,69.4S390.6,348.2,342.2,353.5Z"/><path class="cls-6" d="M345.9,347.5s-9.6,57,22.1,92.5c0,0-9.4-10.6-1.4-32S345.9,347.5,345.9,347.5Z"/><path class="cls-5" d="M338.3,351.1c2.6.9,76.4-8.8,108.1,18.4s71.1,108.1,71.1,108.1-25.4-42.1-58.8-58-84.4-41.3-92.3-49.2S338.3,351.1,338.3,351.1Z"/><path class="cls-6" d="M279.4,395.2s22,65.1,14.1,122.2a969.2,969.2,0,0,1-22,108.1s-1.8-41.3-10.6-65.9S265.3,423.4,279.4,395.2Z"/><path class="cls-5" d="M240.9,710.7c-3.3-1.4,44.9,74.7,125.7,98.5C366.6,809.2,360.5,760.8,240.9,710.7Z"/><path class="cls-6" d="M284.4,657.3s13.2-68.5,72.1-114.2C356.5,543.1,360,612.5,284.4,657.3Z"/><path class="cls-5" d="M284.2,652.4s79.5-53.9,182.4-50.3C466.6,602.1,385.4,665.5,284.2,652.4Z"/><path class="cls-5" d="M263.4,410.2c-2.3,9.5-4.4,15.9-4.8,17,4.3-35.9-27.3-73.7-42.2-108s-6.2-99.3-6.2-99.3c10.5,30.8,38.6,76.5,53.6,113.4C273.6,357.6,268.3,390.5,263.4,410.2Z"/><path class="cls-5" d="M221.9,597.9c-14.2,60.7-13.2,159.1-11.6,207.3l-5.2,2.7c-1.7-47.5-3-148.9,11.7-211.2,19.4-82.7,79.3-321.9,79.9-324.2l5.1,1.2C301.2,276.2,241.3,515.2,221.9,597.9Z"/><path class="cls-5" d="M252.6,471.4l-4.9-1.8a7,7,0,0,1,.3-1.4c6.8-32.2,31-108.7,106.7-123.4l1,5.1c-72.6,14.2-95.9,88.2-102.6,119.4A10.2,10.2,0,0,1,252.6,471.4Z"/><path class="cls-5" d="M208.5,783.2l-2.7-6.1c0-.8,17.1-89.8,85.3-128.4l2.6,4.6C228.6,690.1,208.7,782.4,208.5,783.2Z"/><path class="cls-6" d="M341.1,194c0,35.4-29.3,88.6-43.1,95.1l-4.3-2.8L336.9,27.9C337.6,51,341.1,160.3,341.1,194Z"/><path class="cls-6" d="M263.4,410.2a75.9,75.9,0,0,1-4.8,17c4.3-35.9-27.3-73.7-42.2-108s-6.2-99.3-6.2-99.3.9,67.3,14.9,85.7C237.6,322,270.9,365.4,263.4,410.2Z"/><path class="cls-7" d="M1344.2,1393.5c-63.6,21.4-120.2,37.6-157.1,49.1-29.8,9.2-60.7,18.2-91.9,26.4-143.5,37.5-294.1,57-370.7-2.3a104,104,0,0,0-10.4-7.2c-55-34.2-184.5-68.3-310.3-100l-63.7-16.1c-32.7-8.2-64.1-16.3-92.8-24.1-64.9-17.7-115.8-34.1-135.5-48.9-69-51.6-71.7-187-71.7-187l163.5,32.2,168.7,34.6,695.4,142.5,26.1,5.3s15-24.5,41-61.6c106.7-152.5,397.8-518.2,583.9-269C1877.8,1180.6,1567.8,1318.6,1344.2,1393.5Z"/><path class="cls-8" d="M366.4,1239.6a235.6,235.6,0,0,0-26.3,103.8c-32.7-8.2-64.1-16.3-92.8-24.1,18.3-41,26.3-94.1-15-142.7-22.7-26.6-30-46.4-28.7-61,3.4-38.8,68-41.5,68-41.5s75.3,22.4,100.7,76.1C383.5,1173.7,385.1,1203.3,366.4,1239.6Z"/><path class="cls-8" d="M1369.7,1225.7c-13.2,60.5-24.7,122.5-25.5,167.8-63.6,21.4-120.2,37.6-157.1,49.1-29.8,9.2-60.7,18.2-91.9,26.4,1.7-26.4-4.3-57.6-25.8-91.8-20.4-32.6-17.1-60.8-1.7-84.5s40.4-41.4,67.1-56.3c33.9-19,69.2-31.7,84.8-38.3C1260.1,1180.9,1390,1132.7,1369.7,1225.7Z"/><path class="cls-9" d="M714.1,1459.5c-55-34.2-184.5-68.3-310.3-100,20.4-81.5-68.8-171.7-68.8-171.7s198.8,55.1,320.6,82.6C753.9,1292.7,727.8,1413.8,714.1,1459.5Z"/><path class="cls-8" d="M184.9,835.5s4,156,81.1,193.9,349-62,349-62L424.3,822.8Z"/><path class="cls-8" d="M428.3,534.8s-28.4,71.1,77.1,195.1S769.2,619.7,769.2,619.7Z"/><path class="cls-8" d="M1617.2,509.5s44.7,41.3-8.1,137.8-69,137.7-48.7,196.2,16.2,113.6,16.2,113.6L1304.8,829.7l73-265.1Z"/><path class="cls-10" d="M1614.5,886c-362.5-142.3-151.5-183.7,0-316.8,136-119.5-487.2-180.2-616.3-191.4-25.6-2.2-51.6,2.3-73.1,14.3l-.4.3c-51.5,29-86.6,60.3-229.9,62-254.3,3.1-361.2,110.2-177.2,137.8s166.4,96.4-131.2,156S137.5,879.1,408,929.6s-124.4,2.3-302.9,89.5,49.3,174,108.2,192.8C342.5,1253.2,739,1355.4,739,1355.4a436.7,436.7,0,0,0,197.6,7.3c146.7-28.4,416.1-83.9,553.5-132.4C1684.8,1161.4,1847.2,984.7,1614.5,886Z"/><g class="cls-11"><ellipse class="cls-12" cx="1373.8" cy="515.3" rx="121.7" ry="33.3"/><path class="cls-8" d="M1273.7,529c0-18.3,54.5-33.2,121.7-33.2,40.3,0,75.9,5.3,98.1,13.6-10.2-15.6-59.9-27.4-119.7-27.4-67.3,0-121.8,14.9-121.8,33.3,0,7.3,8.9,14.1,23.7,19.6A10.2,10.2,0,0,1,1273.7,529Z"/></g><g class="cls-13"><ellipse class="cls-14" cx="675.8" cy="533.6" rx="89.3" ry="24.4"/><path class="cls-8" d="M602.4,543.7c0-13.4,40-24.4,89.3-24.4,29.6,0,55.7,4,71.9,10-7.4-11.4-43.9-20.1-87.8-20.1-49.3,0-89.2,11-89.2,24.4,0,5.4,6.5,10.4,17.3,14.4A8,8,0,0,1,602.4,543.7Z"/></g><g class="cls-13"><ellipse class="cls-15" cx="1292.6" cy="813.7" rx="89.3" ry="24.4"/><path class="cls-8" d="M1219.2,823.8c0-13.5,40-24.4,89.3-24.4,29.5,0,55.7,3.9,71.9,9.9-7.5-11.4-43.9-20-87.8-20-49.3,0-89.3,10.9-89.3,24.4,0,5.4,6.5,10.3,17.4,14.4A8.3,8.3,0,0,1,1219.2,823.8Z"/></g><g class="cls-13"><path class="cls-16" d="M435.1,848.1c0,13.5-40,24.4-89.3,24.4s-89.2-10.9-89.2-24.4,39.9-24.4,89.2-24.4S435.1,834.6,435.1,848.1Z"/><path class="cls-8" d="M272.4,858.2c0-13.5,40-24.4,89.3-24.4,29.5,0,55.7,3.9,71.9,10-7.5-11.4-43.9-20.1-87.8-20.1-49.3,0-89.2,10.9-89.2,24.4,0,5.4,6.4,10.4,17.3,14.4A8,8,0,0,1,272.4,858.2Z"/></g><g class="cls-13"><ellipse class="cls-17" cx="1427.9" cy="864.2" rx="40.6" ry="11.1"/><path class="cls-8" d="M1394.5,868.7c0-6.1,18.2-11,40.6-11,13.4,0,25.3,1.7,32.7,4.5-3.4-5.2-20-9.1-39.9-9.1-22.4,0-40.6,4.9-40.6,11.1,0,2.4,2.9,4.7,7.9,6.5A3.7,3.7,0,0,1,1394.5,868.7Z"/></g><g class="cls-13"><ellipse class="cls-18" cx="835.4" cy="1258.9" rx="127.1" ry="34.8"/><path class="cls-8" d="M730.9,1273.3c0-19.2,56.9-34.7,127.1-34.7,42.1,0,79.3,5.6,102.5,14.2-10.6-16.3-62.5-28.6-125.1-28.6-70.2,0-127.1,15.6-127.1,34.7,0,7.7,9.2,14.8,24.7,20.6A11.5,11.5,0,0,1,730.9,1273.3Z"/></g><g class="cls-13"><ellipse class="cls-19" cx="1084.3" cy="1222.2" rx="51.4" ry="14.1"/><path class="cls-8" d="M1042.1,1228c0-7.7,23-14,51.3-14,17.1,0,32.1,2.3,41.5,5.7-4.3-6.5-25.3-11.5-50.6-11.5-28.4,0-51.4,6.3-51.4,14,0,3.1,3.8,6,10,8.3A4.6,4.6,0,0,1,1042.1,1228Z"/></g><g class="cls-13"><ellipse class="cls-20" cx="221.4" cy="1075.3" rx="83.9" ry="22.9"/><path class="cls-8" d="M152.4,1084.8c0-12.7,37.6-22.9,83.9-22.9,27.8,0,52.3,3.7,67.6,9.4-7.1-10.8-41.3-18.9-82.5-18.9-46.3,0-83.9,10.3-83.9,22.9,0,5.1,6.1,9.8,16.3,13.6A8.4,8.4,0,0,1,152.4,1084.8Z"/></g><g class="cls-13"><path class="cls-21" d="M437.8,1020.2c0,6.6-19.4,11.9-43.3,11.9s-43.3-5.3-43.3-11.9,19.4-11.8,43.3-11.8S437.8,1013.7,437.8,1020.2Z"/><path class="cls-8" d="M358.9,1025.1c0-6.5,19.4-11.8,43.3-11.8,14.3,0,27,1.9,34.9,4.8-3.6-5.5-21.3-9.7-42.6-9.7-23.9,0-43.3,5.3-43.3,11.8,0,2.7,3.2,5.1,8.4,7A4.4,4.4,0,0,1,358.9,1025.1Z"/></g><g class="cls-13"><path class="cls-22" d="M668.4,1007c0,6.6-19.4,11.9-43.3,11.9s-43.3-5.3-43.3-11.9,19.4-11.8,43.3-11.8S668.4,1000.5,668.4,1007Z"/><path class="cls-8" d="M589.5,1011.9c0-6.5,19.4-11.8,43.3-11.8,14.3,0,27,1.9,34.9,4.8-3.6-5.5-21.3-9.7-42.6-9.7-23.9,0-43.3,5.3-43.3,11.8,0,2.7,3.2,5.1,8.5,7A3.4,3.4,0,0,1,589.5,1011.9Z"/></g><g class="cls-11"><path class="cls-23" d="M1269,460.2c0,9.5-28.2,17.2-63,17.2s-62.9-7.7-62.9-17.2S1171.3,443,1206,443,1269,450.7,1269,460.2Z"/><path class="cls-8" d="M1154.3,467.3c0-9.5,28.2-17.2,62.9-17.2,20.9,0,39.3,2.8,50.8,7-5.3-8-31-14.1-62-14.1-34.7,0-62.9,7.7-62.9,17.2,0,3.8,4.6,7.3,12.2,10.2A6.3,6.3,0,0,1,1154.3,467.3Z"/></g><path class="cls-24" d="M1614.2,1052.7c0,7.1-21.4,12.9-47.7,12.9s-47.7-5.8-47.7-12.9,21.4-13,47.7-13S1614.2,1045.5,1614.2,1052.7Z"/><path class="cls-24" d="M1453.9,673.1c0,7.1-27,12.9-60.4,12.9s-60.3-5.8-60.3-12.9,27-12.9,60.3-12.9S1453.9,665.9,1453.9,673.1Z"/><ellipse class="cls-24" cx="846.3" cy="652.6" rx="47.7" ry="11.8"/><path class="cls-24" d="M1378.8,616.3c0,7.1-27,12.9-60.3,12.9s-60.4-5.8-60.4-12.9,27-12.9,60.4-12.9S1378.8,609.1,1378.8,616.3Z"/><g class="cls-25"><g class="cls-26"><path class="cls-27" d="M322.2,554.8c-21.9,8.8-50.4,21.1-60.4,36.6-11.5,17.8-3.8,44.8,2.4,62.3,5.2,8.5,39.2,21.9,58.8,25.8.4-41.4.5-83.5-.8-124.7Z"/><path class="cls-28" d="M297,2014.7c-8.4-6.4-17.9,2.5-23.8,8.7-7.5,7.7-44.4,39.9-42.8,50.9,3.4,24.3,11.7,52,20.8,74.7,6.5,16.1,25.3,57.8,47.2,62.7,8.5-31.5,2.2-164.1-1.4-197Z"/><path class="cls-29" d="M138.6,2045.4l2,.5c8.6,2.3,41.3,12.4,51.1,9.3a38.1,38.1,0,0,0-1.5-7.1c-3.6-11-20.8-68.5-32.9-71.5-8.2-2.1-28.9,23.8-32.7,28.8-7.5,9.9,2.1,36,14,40Z"/><path class="cls-30" d="M-12,2029.8c22.4-10.9,58.1-36.8,71-47.1,1.4-10.1-19.9-39.9-25.8-44.9-1.7-1-4.2-2.3-6.3-1.9-12.3,2.6-25.2,40.4-28.4,50.8-4.3,14.2-7.6,28.6-10.5,43.1Z"/><path class="cls-31" d="M161.1,1920.9c-9.3-35.5-25.1-45.9-61.4-48.8-20-1.6-31.6,22.2-21.8,37.2,3.7,5.7,7.3,11.6,11,17.4,5.1,7.9,19.8,31.5,29.8,33.1,2.8.4,5.8-1.4,7.5-2.6,7.7-5.9,32.4-27,34.9-36.3Z"/><path class="cls-32" d="M25.5,1883.2c2-1.6,3.2-6.6,3.4-9.6-9.2-15.6-71.3-60.4-92.4-65.5-7.9,12.9-13.3,28.4-6.4,42.8,14,29.1,65.9,40,95.4,32.3Z"/><path class="cls-33" d="M279.6,1824.1c-4.2-17.6-27.6-25.8-43.3-25.3-14.3,2.8-55.4,48.2-46.4,63.5,12.1,20.7,22.2,30.6,46.2,21.5,36.7-14,44.8-20.8,43.5-59.7Z"/><path class="cls-34" d="M59.2,1816.2a103.6,103.6,0,0,0,.1-43.3c-13.1-11.1-76-26.2-96.3-21.1,21.6,19.3,76.7,61.3,96.2,64.4Z"/><path class="cls-35" d="M182,1763.9c-4.2-6.4-16.1-15.4-21-19.1-18.3-13.9-46.7,20.1-49.5,34.1-1.5,7.5-6.4,30.8-1.8,37.6s20.6,5.2,25.8,5c12.2-2.3,44-43,46.5-57.6Z"/><path class="cls-36" d="M93.5,1641.6c-14.4,4.6-33.3,18.9-45.4,27.4-6.8,4.8-31.8,19.9-42.9,29.2l1.8.6c17.5,4.9,58.5,20.9,75.5,18.7,14.1-1.9,26.7-15,35.5-25.1,5.1-5.9,4.4-22.6,2.7-29.7-3.6-14.5-12.1-22.2-27.2-21.1Z"/><path class="cls-37" d="M22.7,1580.5c-15.1-5.1-34.5-10.5-50.7-13.3-4.6,14.4.6,58.7,5.6,84.1,22.2-11.9,53.1-36.7,66.5-47.9.8-.7,3.1-2.7,3.4-3.8-.7-6-18.4-15.9-24.8-19.1Z"/><path class="cls-38" d="M280,1742.1c9-18.7,9.2-71.1,8.5-89.3s-5.3-78.1-17.6-90.5c-7.9-7.9-18.5-15.8-30.3-13.7-22.1,4-44.2,39.2-55.2,57.2s-14.6,38.9-8.9,59.9a97.5,97.5,0,0,0,15.3,31.6c12.5,17.6,31.1,33.5,51.1,41.9,10.1,4.3,26.5,8.8,37.1,2.9Z"/><path class="cls-39" d="M128.8,1496.8c-6.2,2.5-9.7,8.8-13.8,13.8-13.7,17-33.6,38.2-19,60.5,4.2,6.4,15.5,22.5,25,21.3,16.5-2.2,39-45.8,46.8-59.9,3.1-5.6,6.6-13.8,3.1-20.1-6.4-11.5-29.1-15.5-42.1-15.6Z"/><path class="cls-40" d="M241.9,1914.5c-6.1,2.5-9.7,8.7-13.7,13.7-13.8,17-33.7,38.3-19.1,60.6,4.2,6.4,15.6,22.5,25,21.2,16.5-2.1,39-45.7,46.8-59.8,3.2-5.6,6.7-13.8,3.2-20.1-6.4-11.5-29.2-15.5-42.2-15.6Z"/><path class="cls-41" d="M280.9,1453.4a21.6,21.6,0,0,0-1.4-4.3,35.2,35.2,0,0,0-8.9-12c-4.9-4.5-18.9-13.1-26.9-12.8-6.1,9.1-13,26.2-15.6,35.1-5.8,20-7.2,36.5,17.6,37.9,6.8.3,27.6,1.1,32.5-5.1s3.2-29.9,2.7-38.8Z"/><path class="cls-42" d="M78.2,1454.4a17,17,0,0,0,0-3.2,35.3,35.3,0,0,0-2.8-5c-3-5.3-10.5-17-17.8-16.9-11.1.2-27.5,20.9-33.6,28.9s-36.4,46.4-37.1,56.7c6.6,5.1,35.8,5.9,42.6,5.9,21.3.2,44.2-47.7,48.7-66.4Z"/><path class="cls-43" d="M180.1,1380.5l-5.8,1.2c-11,3.9-52.8,20.1-50.9,34.5,1.7,12.9,33.3,30,48.6,32.4,6.1-8.9,13.2-24.4,16-32.2s7.8-24.4,3.3-31.5c-2-3.2-7.3-4.1-11.2-4.4Z"/><path class="cls-44" d="M4.2,1385c-10,2.5-25.2,11.3-32.7,15.4-5.6,3.1-11.2,5.9-16.8,8.9s-27.2,14.4-29.3,22.3c-.7,2.7,1.8,6.6,3.3,8.7,2.9,4.1,16.7,22.9,22.3,23.1,2.6.1,9.2-8.1,10.5-9.9,7.6-10.5,41.9-53.2,42.7-68.5Z"/><path class="cls-45" d="M140.8,1332.6c5.3-6,7.9-15.8,3.4-22.5-20.3,4.7-78.7,37-87.1,52.5,15.3,20,69.7-18.6,83.7-30Z"/><path class="cls-46" d="M284.7,1249.7c-.6-3.7-1.9-10.3-5-12.4-4.9-3.3-18.5-1.1-23.8-.1-54.5,10.1-68,18-55.8,74.3,5.7,26.4,52.7,66,81,55.9,8.5-17.1,4.9-96.2,3.6-117.7Z"/><path class="cls-47" d="M136,1240.8c-7.9-5.4-21.2-13.6-28.7-16.8-16.6,10.1-36.1,25.3-49.9,37.2-4.6,3.9-38.6,34.7-34.4,44.4,22-.3,100.4-44.2,113-64.8Z"/><path class="cls-48" d="M19,1179.2c-9.7,4.6-17.3,23.6-21.4,32.3-3,6.4-13.1,29-15.2,41.4,12.8-5.2,34.6-22.7,41.1-28.4,9.6-8.3,30.1-27.6,37.3-40.5-8.8-4.3-32.1-5.2-41.8-4.8Z"/><path class="cls-49" d="M278,1176.2c-17.1-11.2-108.7-26.9-129-27.4-7.9-.1-23.1,3.5-22,14.3a7.4,7.4,0,0,0,2.4,4.8c48.9,47.9,91.6,29.3,148.6,8.3Z"/><path class="cls-50" d="M177.9,1072.4c-7.7,1.9-18.3,11.7-25.1,18.5,18.7,7.1,67.8,9,81.7,9.8,5.9.3,39.2,3.6,46.1,2.2,1.4-3.6,2.1-13.4,2.3-21.8-32.8-9.3-72-10.4-105-8.7Z"/><path class="cls-51" d="M20.4,1057C14,1060.4,3,1073.5-.3,1078.3c-12.5,18.1,17.4,38.9,32.1,43.5,9.4,2.8,39.1,12.9,48.2,7.7,5.4-3.2,5.9-16.7,5.9-21.8-.4-8.8-22.2-27.4-28.8-32.2s-25.9-17.4-36.7-18.5Z"/><path class="cls-52" d="M114.2,1053.1c4.1-2.1,7.7-5,9.6-9.5,5.1-11.8-.9-32.1-7-48.7-13.8,9.7-26.6,21.9-37.6,34.3,4,7.4,24.6,19.3,35,23.9Z"/><path class="cls-53" d="M187.6,1014.6c15.6,3.9,60.7,7.5,86,6.2-21.3-21.2-62.9-56-77.5-67.2l-8.2-3.9c-5.3-.8-17.5-2.3-19.9,1.2-7.1,10.2,11.1,48.5,19.6,63.7Z"/><path class="cls-54" d="M29.5,998.7c12.4-3.6,37-36.3,51-55.7-15.7-12.9-31.6-19.5-51.8-28.2-3.1-1.3-9.5-4.5-12.7-4.9-.9-.1-3.4-.3-4.3.1-4.6,5,.8,31.1,2.2,37.1,3.8,15.9,9.6,30.7,13.6,46.2a28.3,28.3,0,0,0,2,5.4Z"/><path class="cls-55" d="M282.9,874.7c-2.6,1.7-3.9,3.7-6.4,6.4-4.1,4.5-32,33.3-31.7,39.2s19.6,19.9,23,22.6,11.5,9,18.8,14.1c0-11.6-.7-27-.6-32.5.1-7.9,4-43,1.1-50.1a21.3,21.3,0,0,0-4.2.3Z"/><path class="cls-56" d="M191.4,818c-1.3,24.8-1.5,49.6.5,74.4,3.5.5,7.7-3.1,9.4-5.2,3.9-4.6,26.6-30,29.3-36.4-2.7-4.5-16.5-15.4-19.7-17.9-5.7-4.4-12.4-10.3-19.5-14.9Z"/><path class="cls-57" d="M136,805.7c-22.6,13.5-66.5,44.2-84.4,59.3,18.1,13.2,66.4,34.4,83.1,35.6,6.3-15.7,2.9-69.4,1.3-94.9Z"/><path class="cls-58" d="M111,753.9c-20.6-11.5-66.3-26-95.8-34,5,28,14.1,70.2,20.5,87.1,17.9-7,57.2-38.8,75.3-53.1Z"/><path class="cls-59" d="M284.2,713.8c-6.4-4-24.6-3.1-30.7-2.2s-15.3,3.5-21.4,7.4-40.2,23.7-41.4,31.5c-.6,3.6,9.8,12.4,12.1,14.2l11.9,9.8c17.5,15,45.2,45.4,71.3,42.3.2-30.2,0-60.3-.6-90.5l-1.2-12.5Z"/><path class="cls-60" d="M123.3,701.1c-18.4-25.2-49.6-67.1-66.7-66.7-8.3.2-34.3.2-40.2,6.7-2.3,2.5-1.7,8.1-1,11.7,11,12.8,78.4,36.3,96.3,43.3,2.6,1,6.8,2.9,11.6,5Z"/><path class="cls-61" d="M192.9,601.1c-3.1-8.1-19.3-32.3-28-36-16.9,6.3-2.5,48.6.6,59.5,2.4,8.5,13.3,54.4,20.6,58,4.8.4,16.7-10.6,22-15.8,1.3-12.8-11.5-53.6-15.2-65.7Z"/><path class="cls-62" d="M93.6,497.1c-13.4-2-57.4,17.4-68.1,24.8C-4.9,543.2-9.4,549.2,9.4,581.6c7.4,6.8,30.6,1.4,38-.8,12.2-3.5,27.8-9.5,38.5-16.4,6.7-4.3,35.9-22.9,36.3-32.2s-20.3-27.4-28.6-35.1Z"/><path class="cls-63" d="M219.3,539.5c12.7-2,46.6-24,64.8-35,1.2-11.7,3.1-30.3,2.8-37.6l-7-2.2a244.4,244.4,0,0,1-23.6-8.3c-38.3-18.9-57.8-50.7-102.9-48.1-11,.6-21.3,26.7-23.3,35.8-2.5,11.7,30,45.4,37.8,53,14.6,14.1,33.9,31.1,51.4,42.4Z"/><path class="cls-64" d="M16.4,402c-3.7,3-7.4,14.6-7,18.2,1.3,6.1,6.9,34.4,10.9,42.6,5.2-1.1,16-5.7,19.2-7,6.3-2.6,31.2-12.6,39.1-18.9-5.6-5.8-21-14.2-25.6-16.6-10-5.2-25.7-15.1-36.6-18.3Z"/><path class="cls-65" d="M15.3,313.4a255.7,255.7,0,0,0,12.4,29.1c12.3,10.2,60.5,39.4,75.2,39.2,3.6-4.4,8.2-11.1,6.6-16.5-4.2-13.3-39.1-26.8-51.2-32.2-14-6.4-28.5-13.5-43-19.6Z"/><path class="cls-66" d="M244.7,381.7c12.2,11.1,22.7,19.7,38.7,20.1,1.6-27.6,2.8-55.1,3.4-82.7-16.9,19.1-34.2,43.6-42.1,62.6Z"/><path class="cls-67" d="M274.1,246.9c-26.8.8-66.3,3.9-78.4,7.6-10.7,18.9-38.5,81.1-35.6,98.6,9,2.1,20.5,3.7,28.7-.5,10.5-5.5,24.1-26.2,31.2-35.7,11.6-15.3,23.9-30.3,35.7-45.7,3.7-4.9,11.6-14.9,18.4-24.3Z"/><path class="cls-68" d="M18.7,261.2c23.2,12.9,71.4,30.6,95.1,38.6,12-15.6,22.7-41.6,25-59.8-34.7-26.6-83.8,0-120.1,21.2Z"/><path class="cls-69" d="M281.2,95.7c-14-2.5-46.8-1.3-66.9-.6-7.7,35.5-12.6,63.8-8.9,100.3,28.2,1.3,49.9-1,77.6-7.9.9-28.2.7-56.2-.1-84.4-.5-2.5-1.1-4.9-1.7-7.4Z"/><path class="cls-70" d="M114,91.6c-7.1-.4-17.1.1-26.4.7,5.6,17.5,12.2,34.5,19.1,51.8.7,1.9,2.1,5.3,3.7,9,2.7-18.2,3.5-44.9,3.6-61.5Z"/><path class="cls-71" d="M31.7,96c-4.2-5.4-18.9-4.2-30.6-2.8-8.3,41.1-16.6,79.3-18.4,121,28.8-8.8,52.8-19.9,79.8-35C56,149,44.1,125,31.7,96Z"/></g></g><g class="cls-25"><g class="cls-72"><path class="cls-73" d="M45.1,1384.5c-8.8-8.5-29.5-10.3-40.6-8.9-19.8,2.4-32.4,61.1-35.7,76.7-.2,1.1-.6,3-.9,5l3.8-1.4c11.4-4.3,22.9-8.5,34.1-13.5,25.5-11.4,56.6-26.7,39.3-57.9Z"/><path class="cls-74" d="M245.5,1349c-15.6,11.2-39.2,75.7-45.9,92.4-4.2,10.5-19.5,51.9-5.8,61.3,11.1,7.6,42.4-.2,56.2-7.1,2-7.3,3.5-16.4,4.7-23.1a464.8,464.8,0,0,0,7.1-52.6c1-13.3,3.1-61.9-10.3-70a10.2,10.2,0,0,0-6-.9Z"/><path class="cls-75" d="M140.1,1346c-4.9-.1-9.8,0-14.8.2-8.8.4-19.4,2.3-24.1,10.7-9.2,16.4,3.4,49.7,14.5,63.1,3.6,4.3,20.5,24,26.8,24.2,6.3-2.5,20.7-36.1,23.6-42.4s20-43.2,17-50.1c-4.4-5.1-36.8-5.7-43-5.7Z"/><path class="cls-76" d="M12.5,1255.3c-10.9-6.7-42.3-9.7-49.5,1.5-5.7,8.8-10.6,20.1-6.3,30.5,5.8,14.2,26.1,23.8,39.6,28.7,11.3,4,45.4,12.2,56,8.8,3.1-1.8,7.1-4.6,7.8-8.5,3.1-17.3-34.7-50.4-47.6-61Z"/><path class="cls-77" d="M255.4,1259.4c-2.1-6.3-6-12-11.9-15.1-1.6-.8-5.6-2.3-7.8-1.8a63,63,0,0,0,7.2,38.3c1.8,3.2,7.8,11.5,12.3,13.4,3.7-6.9,1.3-27.6.2-34.8Z"/><path class="cls-78" d="M162.6,1221.5c-7.6,7.7-18.4,29.8-21.8,37.2s-11.3,26.6-4.7,32.7c8.6,8,32.9.9,41.6-3.3,5.2-5.8,1.5-29.5-.3-36.4-1.2-4.9-8.2-25-14.8-30.2Z"/><path class="cls-79" d="M72.2,1200.2c-4.8.8-12.7,3-14.3,8.1-4.1,12.8,14,29.9,27.1,34.3,4.8-3.2,11-12.2,13.2-16.3,12.8-23.9-3.8-26.8-26-26.1Z"/><path class="cls-80" d="M253.4,1174.4c3.4-6.3,6.1-15.6,2.5-22-4.6-8.4-19.9-6.9-27.5-5.5s-40.7,9.2-40,21.6c.5,8.6,13.8,15.5,21,17.4,16.1,4.4,31.9-.7,44-11.5Z"/><path class="cls-81" d="M16.3,1166c.5-12.5-10.9-36.9-18.4-49.9-14,8.1-43.3,45.1-48.9,56.5-1.2,6.3-1.7,14.5,3.4,19.1,11.9,11.1,38.3,2.2,49.5-6.4,6.5-5,11.8-11.5,14.4-19.3Z"/><path class="cls-82" d="M136.5,1151.2c3.9-6-7.1-28-9.8-33-7.2-13.1-15.5-24.7-23.5-37.1-4.5-6.9-17.1-24.9-27.7-22s-23.2,23.9-24.9,34.5c12.4,54.4,30.5,66.6,85.9,57.6Z"/><path class="cls-83" d="M-31,956.6c-9.1,17.6-21.1,43.3-13.3,54.8s25.7,37,40.9,38.7c11.2,1.2,22.8-11.6,29-19.3S-13,977.4-18.2,971.3c-3.4-3.9-7.7-10.4-12.8-14.7Z"/><path class="cls-84" d="M173.1,937.8c-17.7,4.5-25.3,53.2-27.7,67.4-4.8,29.4,14.6,96.2,53.2,91.5,57.5-7,63-55.1,55.3-103.5-5.2-32.9-51.4-50.7-80.8-55.4Z"/><path class="cls-85" d="M55.2,889.5a327,327,0,0,0-65.6-.7c6.8,15.9,25.4,39.7,31.2,46.8,15.5,18.9,32.1,36.1,48.2,54.3,2.5,2.8,13.3,14,17.9,12.6,8.2-2.6,15.3-27.9,17-35.1,2.8-12.4,4.9-27.1,4.7-39.8-.3-21.5-36-33.9-53.4-38.1Z"/><path class="cls-86" d="M191,795.3c-4.9-2.3-15.6-4.4-18.7-5-12.4-1.8-29.8-4.4-42.1-1.4s-24.4,55.3-15.1,64.7c4.5,4.5,17,16.5,24.5,14.8,9.4-2.2,22.9-25.2,27.6-32.8,3.3-5.6,20.5-31.4,23.8-40.3Z"/><path class="cls-87" d="M261.8,800.8a54.4,54.4,0,0,0-2.1-10c-17.7,9-54.5,70.8-56,87.1s37.5,21,51.3,17.4c9-13.2,7.5-76.5,6.8-94.5Z"/><path class="cls-88" d="M52,755.6c-14.1,6.2-47.3,55.6-55.4,68.2-1,1.5-3,4.5-4.7,7.5,15.6,3,65.7,15.6,72.6-4.2,1.2-3.3,2.4-6.6,3.5-9.9,4-12,13.2-38.8,7-50.9-3.8-7.4-14.9-9.8-23-10.7Z"/><path class="cls-89" d="M173.5,696.5c-11.9-.5-9.7,0-20,8.3-4.8,3.9-22.4,18.8-26.6,26.8,10.8,5.3,50.2,8.6,59.4,9.6,17.1,2,36.3,1.4,53-3.4,4.1-1.1,17.4-5.9,20-10.4-2.1-4.4-14.2-10.7-17.7-12.3-20.3-9.4-46.1-14.8-68.1-18.6Z"/><path class="cls-90" d="M51.6,657.3c-.1,13.1,3.5,28.1,8.7,38.3,1.8,3.5,4.8,8.3,9.1,9,14.7,2.5,43.4-29.2,45.4-44.2-19-4.8-42.5-4-63.2-3.1Z"/><path class="cls-91" d="M-19.8,633.9c-6,24.4-11.2,49.3-15,74-1.4,9.1-6.2,46.3-3.8,67,13-15.7,25.2-31.9,36.9-48.6,17-24.4.1-66.1-18.1-92.4Z"/><path class="cls-92" d="M177.4,574.2c-5.7,14.3-12.1,33.6-7.8,46.2s18.1,19.2,28.9,23.7c4.3,1.7,17,6.8,25.7,8.7-6-15.7-26.5-47.5-31.6-55.9-2.7-4.4-9.4-15.5-15.2-22.7Z"/><path class="cls-93" d="M119.9,565.9c-6.3-1.1-21,1.4-25.2,1.9-18,2.1-39.2,6.3-55.5,14.6C36,584,25.9,589.9,24.4,594c2.7,3.9,15.6,7.2,19.5,8,20.4,3.9,44.9,1.9,65.3-1.2,8.4-1.3,11-23.3,10.7-34.9Z"/><path class="cls-94" d="M256.6,585.7c-2.1-6.9-11.2-17.7-19.9-24.2,4.9,11.1,13.3,24.9,16.3,29.7,1.1,1.7,3,4.7,5.3,8.1-.6-5.5-1.3-10.6-1.7-13.6Z"/><path class="cls-95" d="M255.5,473.4c-12.9,5.6-32.7,18.8-39.8,27.8,2.2.5,4.4.7,5.6.9,31.4,3.2,34.4-3.2,34.2-28.7Z"/><path class="cls-96" d="M72.7,511.3c21.5,1.9,40.9-.7,62.8-6.3l1.7-.5c-4.4-14.3-44.7-51.1-53.5-60.8a39,39,0,0,0-2.9-2.9c-6.4,12.6-8.4,49.4-8.1,70.5Z"/><path class="cls-97" d="M26.7,429.7C9.4,441.3-22,476.1-28.2,486.2s.4,65.7,6.4,80.6c4.7-1.1,13.3-13.9,15.4-17.2,9.1-15.1,16-33.4,21.1-50.2,3.5-11.5,13.2-50.6,12-69.7Z"/><path class="cls-98" d="M157,385.3c-8.5,2.2-18.7,12-24.2,18-13.2,14.6,30.9,49.9,40,57.5a3.8,3.8,0,0,0,2,1c15.7,3.2,50.3-40.4,57-52.5a6.1,6.1,0,0,0,.7-1.7c-2.1-6.7-27.5-14.5-33.6-16.1-11.9-3-29.3-6.3-41.9-6.2Z"/><path class="cls-99" d="M114.6,306.1c-13.1-9.7-66.6-14.4-81.5-15.2-5.7-.3-19.8-.3-23.3,5.8-7,12.2,11.3,41.8,18.4,51.2s27,31.4,40.8,33.4,36.2-20.3,43-30.4c9.7-14.6,10.8-29.5,2.6-44.8Z"/><path class="cls-100" d="M194.9,290.1l-7.1-3.9c-2.5-1.4-14.2-7.1-17.2-4.7-7.2,6-2.6,30.5,1.3,37.8,5.2,9.9,28,18.9,38,22,8.1,2.6,32.9,8.6,43.7,6.7,3.8-23.8-42.8-48.1-58.7-57.9Z"/><path class="cls-101" d="M235.4,249.2c6.2,5.1,18.5,12.1,22.5,10s2.9-20.1,1.8-29.3c-8,2.2-19.6,11.4-24.3,19.3Z"/><path class="cls-102" d="M125,247.6c-7-9.8-23.7-24.2-29.3-28.7-8-6.3-18.8-10.8-28.6-13.3-22.8-5.8-49-5.5-44.4,24.3,11.8,11.2,78.2,16.1,93.7,17.6,1.7.1,5.3.2,8.6.1Z"/><path class="cls-103" d="M138.5,181.5c.6-2,1.3-4.3,1.8-6.8-1.5,2.6-2.4,5-2,6.6Z"/><path class="cls-104" d="M249.9,157.4c9.3-11.9,7-8.7,7.7-25.2.2-4.2,2.3-21.8,1.9-27.4-2.9-1-8.9-1.7-11.1-1.9-30.4-2.8-29.8-1.5-39.7,25.8-4.3,12-23.2,65.2-24.7,87,18.5-10.4,56.1-48.3,65.9-58.3Z"/><path class="cls-105" d="M136.6,84.1c-4-4.7-17.2-8.7-23.8-9.7-9.3,6.9-25.5,42.4-30.7,52-2.2,4.1-9.8,16.5-14.2,25.1l4.6-.3c26.6-2.5,50.7-44.6,64.1-67.1Z"/><path class="cls-106" d="M51.2,44.9C38.3,46.3,10.9,59.9.4,66c-7.1,4-39.7,25-39,34.3,4.4,8.2,25.8,50.1,35.2,59.1,9.8-9.1,33.1-53,37.8-61.3S60.7,55.4,58.6,46.8c-1.4-1-5.1-1.7-7.4-1.9Z"/><path class="cls-107" d="M141.4,21.4c23.7,18.2,53.4,29.5,83.5,27.1,4.9-.4,29.9-1.6,35.2-3.7,1.3-3.6,1.2-14,1.3-15.7-4.3-16.6-68-82.1-86-100.5-13,11.1-27.9,67-34,92.8Z"/></g></g></g></g></svg>