<svg xmlns="http://www.w3.org/2000/svg" viewBox="0 0 831 1054"><defs><style>.cls-1{isolation:isolate;}.cls-2{fill:#c98000;}.cls-3{fill:#f5e24d;}.cls-4{fill:#e29000;}.cls-5{fill:#ffa900;}.cls-6{fill:#747620;}.cls-7{opacity:0.75;}.cls-8,.cls-9{fill:#5e924a;}.cls-9{mix-blend-mode:multiply;}.cls-10{fill:#dfe83e;}.cls-11{fill:#d5cf38;}.cls-12{fill:#e5dac8;}.cls-13{fill:#fdf4e5;}.cls-14{fill:none;}.cls-15{fill:#364b95;}.cls-16{fill:#203170;}.cls-17{fill:#fefefd;}.cls-18{fill:#ffcfbb;}.cls-19{fill:#ffa783;}.cls-20{fill:#eb709e;}.cls-21{fill:#f0fff1;}.cls-22{fill:#4b4153;}</style></defs><g class="cls-1"><g id="Layer_1" data-name="Layer 1"><path class="cls-2" d="M288.8,681.2c-4.9-1.6-9.1-1.1-13.8-1.6,1.1,11.9-.8,23.8-4.1,35.6a22,22,0,0,1-2.3,4.6c2.4,7.4,2.9,15.6-4.3,19.9s-17-.9-25.5,0c-6.6,0-13.2-.9-18.9,3.8s-2.8,13.2,1.9,18.9c1,1.9,4.7,2.8,7.6,2.8-1,2.8-1.9,5.7-1,7.6,16.1,25.4,40.6,7.5,58.5-4.8,1.9-.9,4.7-.9,5.7,0,6.6,5.7,10.4,16.1,20.7,13.3-7.5,8.4-.9,18.8,6.7,25.4,12.2,9.5,26.4,2.9,39.6-.9,2.8-1,7.5,4.7,11.3,4.7a25.1,25.1,0,0,0,20.8-10.4c5.6-7.5-7.6-13.2-5.7-13.2,34,0,67-11.3,100-9.4,11.3,0,24.5,7.5,38.7,9.4,2.8,1,8.5,1.9,13.2,2.8,24.5,5.7,31.1-14.1,30.2-35.8,0-1.9,2.8-5.7,5.7-6.6,20.2-2.8,39.5-3.5,58.5-7.6l23.2-8,.3-.5h0l-.3.5,17.3-6.1c6.6-1.9,13.2-14.2,3.8-17-22.6-8.5-45.3-7.5-68.9-6.6-74.5,5.7-149.1,7.5-224.5,2.8C351.1,702,321.8,688.8,288.8,681.2Z"/><path class="cls-3" d="M530.4,948.1c-4.8-12.2-1-27.3,2.8-40.5,11.3-35.9,19.8-70.8,13.2-108.5-.9-1.9-2.8-4.8-4.7-3.8-25.5.9-49.1,11.3-72.7,21.7-54.7,23.6-106.6,51.9-162.3,77.4-8.5,4.7-17.9,10.3-26.4,14.1-15.1,7.6-32.1,18.9-45.3,12.3-4.7-2.9,2.9-13.2,4.8-20.8,9.4-31.1,44.3-74.5,12.2-101.9-57.5,1-109.4,26.4-167,38.7-12.3,2.8-33,2.8-33-7.6-1-55.6,71.7-70.7,112.3-101.9,7.9-6.1,16.3-11.8,23-19C116,751.1,6.2,805.5,24.3,854.2c18.4,43.9,167.2-48.9,206.6-36.2,34.6,8.4-62.8,100.9-42.3,140.9,13.6,33.2,206.9-102.4,303.3-124.7C577.4,803.4,446,983,507.6,991c7.5-6.9,44.2-20,94.6-33.8-18.5-.4-37.2-1.2-55.8-2.5C540.7,954.7,532.2,952.9,530.4,948.1Z"/><path class="cls-4" d="M645.5,634.9a232.6,232.6,0,0,1,26,40.3,928.5,928.5,0,0,1,158,21V480.1c-28.2-9-58-17-91.8-22.4-240.5-24.2-70.4,87.1-141.9,112-7.8,2.8-18.3,4.2-30.9,4.6C595.5,587.6,623.3,606.9,645.5,634.9Z"/><path class="cls-5" d="M396.2,702.4a950.9,950.9,0,0,1,275.3-27.2,232.6,232.6,0,0,0-26-40.3c-22.2-28-50-47.3-80.6-60.6-86.3,2.6-270.7-42.3-375.7,6.3-109.3,48.8,78.1,78.3,3.3,124.6l-5.2,3.1c-6.7,7.2-15.1,12.9-23,19C123.7,758.5,51,773.6,52,829.2c0,10.4,20.7,10.4,33,7.6,57.6-12.3,109.5-37.7,167-38.7,32.1,27.4-2.8,70.8-12.2,101.9-1.9,7.6-9.5,17.9-4.8,20.8,13.2,6.6,30.2-4.7,45.3-12.3,8.5-3.8,17.9-9.4,26.4-14.1C362.4,868.9,414.3,840.6,469,817c23.6-10.4,47.2-20.8,72.7-21.7,1.9-1,3.8,1.9,4.7,3.8,6.6,37.7-1.9,72.6-13.2,108.5-3.8,13.2-7.6,28.3-2.8,40.5,1.8,4.8,10.3,6.6,16,6.6,18.6,1.3,37.3,2.1,55.8,2.5,7-2,14.3-3.9,21.7-5.8a505,505,0,0,0,44.2-66.5c32.9-57.6,36.4-125.7,13.8-186.1C573,690.1,470.6,693.2,396.2,702.4Zm280.4,6.2c9.4,2.8,2.8,15.1-3.8,17l-17.3,6.1c-2.8,4.3-7.4,5.3-11.9,8,4.5-2.7,9.1-3.7,11.9-8l-23.2,8a146.8,146.8,0,0,0,19.8-5.6,146.8,146.8,0,0,1-19.8,5.6L619,744.5l13.3-4.8c-19,4.1-38.3,4.8-58.5,7.6-2.9.9-5.7,4.7-5.7,6.6.9,21.7-5.7,41.5-30.2,35.8-4.7-.9-10.4-1.8-13.2-2.8-14.2-1.9-27.4-9.4-38.7-9.4-33-1.9-66,9.4-100,9.4-1.9,0,11.3,5.7,5.7,13.2a25.1,25.1,0,0,1-20.8,10.4c-3.8,0-8.5-5.7-11.3-4.7-13.2,3.8-27.4,10.4-39.6.9-7.6-6.6-14.2-17-6.7-25.4-10.3,2.8-14.1-7.6-20.7-13.3-1-.9-3.8-.9-5.7,0-17.9,12.3-42.4,30.2-58.5,4.8-.9-1.9,0-4.8,1-7.6-2.9,0-6.6-.9-7.6-2.8-4.7-5.7-7.5-14.2-1.9-18.9s12.3-3.8,18.9-3.8c8.5-.9,17,5.7,25.5,0s6.7-12.5,4.3-19.9c-8.2,12.8-26.5,10.4-40.2,9.6a4.7,4.7,0,0,1,1-2.9,4.7,4.7,0,0,0-1,2.9c13.7.8,32,3.2,40.2-9.6a54.9,54.9,0,0,0-2.4-6.5,54.9,54.9,0,0,1,2.4,6.5,22,22,0,0,0,2.3-4.6c3.3-11.8,5.2-23.7,4.1-35.6l-2.2-.2h0l2.2.2a64.2,64.2,0,0,0-3.2-15.3,64.2,64.2,0,0,1,3.2,15.3c4.7.5,8.9,0,13.8,1.6,33,7.6,62.3,20.8,94.4,23.6,75.4,4.7,150,2.9,224.5-2.8C631.3,701.1,654,700.1,676.6,708.6Z"/><path class="cls-4" d="M668.1,884.9a505,505,0,0,1-44.2,66.5c61.5-16,137.8-32,205.6-39.9V718a1458.5,1458.5,0,0,0-147.6-19.2C704.5,759.2,701,827.3,668.1,884.9Z"/><path class="cls-6" d="M605.7,925.4c26.3-16.3-39.5-26.7-1.1-43.8,42.2-19.6,121.1,4,142.8-3.8,25.1-8.8-34.6-47.9,49.9-39.4a213.7,213.7,0,0,1,32.2,7.9v75.9a333.2,333.2,0,0,0-152.2,2.2c37.8-4.7,96.1-4.9,152.2,5.5v67.9c-47.6,5.6-107.1,22.5-113.1,28-21.6-2.9,24.5-65.9-5.5-55.1-33.8,7.8-101.8,55.4-106.5,43.8-7.2-14.1,27-46.6,14.8-49.5-13.8-4.5-66.1,28.1-72.5,12.7C540.1,960.2,580.8,940.5,605.7,925.4Z"/><g class="cls-7"><path class="cls-5" d="M829.5,157.7a83.6,83.6,0,0,1-7.3-5.7c-33.3-31.2-12.6-89.8-12.6-89.6s8.3,4.5,19.9,11.6Z"/><path class="cls-5" d="M629.7,51.8c21.1,12.5,35.3,32,43.9,44.4l37.9,15.5c-9.2-6.3-18.2-13.6-25-21.3-25.6-28.9-3.9-75.6-3.9-75.5s44.9,29.3,64.9,59.2c14.9,22.7,13.7,47.5,13.7,58.5,22.2,9.3,45.1,18.7,68.3,27.7v15.2c-13.1-4.9-26.2-9.9-39-15.1-4.4,16.4-14.3,48.9-35.4,65.1-29.1,23.1-107.5-14.6-107.2-15.3s23.1-46.1,59.5-59.7c16.1-6.1,34.8-5.3,50.7-3.2-31.5-13.1-62-26-91.2-37.5-17.2,1.2-44.3,1-67-8.2C562.8,86.7,544.6,26.5,545,26.7S596.1,32.4,629.7,51.8Z"/></g><path class="cls-8" d="M821.1,312.7l9.9,4.1V242.7c-46.6-16.4-64.8-7.4-73.7,6.1C746.1,266,751.4,282.4,821.1,312.7ZM762.9,613.2c13.2,5.2,25.2.8,50.8-54.3,5.3-11.6,11.2-26.2,17.3-41.9V441.8c-24.8,30.4-51,68.3-63.4,96.3C742.5,594.1,750.7,607.8,762.9,613.2ZM504,580c7.1,11.3,20.7,13.5,72.5-18,35.8-22.1,92.7-64.6,125.5-86.3,17.4-7.7,34.6-14.7,52.3-21.9-20.3,26.4-46.7,67-57.4,93.8-17.6,44-10.9,54.3-1.3,57.6s20.3-.8,37.7-44c12.5-30.2,27.1-83.7,36.4-113.1,20.4-7.6,40.8-14.6,61.3-21.2V414c-21.7,7.2-43.2,15.1-64.7,23.6-24.2-16.9-70.8-44.8-103.3-54.2-46.6-13.3-59.6-5.4-64.7,5.6s-.9,21.7,45.5,34.4c28.8,7.8,75.8,14.6,107,20.7-15.6,6.4-30.9,13.3-46.4,20.3-35.9,8-110.5,31.3-150.3,56C500.1,553.1,497.4,569.4,504,580ZM708.1,372.2c32.8,10.6,84,22.4,122.9,32.9V374.6c-29.4-21.1-65.4-43.4-94-53.4-60.8-21.5-79.1-11.8-86.4,2.6S648,352.1,708.1,372.2Z"/><path class="cls-9" d="M821.1,312.7l9.9,4.1V242.7c-46.6-16.4-64.8-7.4-73.7,6.1C746.1,266,751.4,282.4,821.1,312.7ZM762.9,613.2c13.2,5.2,25.2.8,50.8-54.3,5.3-11.6,11.2-26.2,17.3-41.9V441.8c-24.8,30.4-51,68.3-63.4,96.3C742.5,594.1,750.7,607.8,762.9,613.2ZM504,580c7.1,11.3,20.7,13.5,72.5-18,35.8-22.1,92.7-64.6,125.5-86.3,17.4-7.7,34.6-14.7,52.3-21.9-20.3,26.4-46.7,67-57.4,93.8-17.6,44-10.9,54.3-1.3,57.6s20.3-.8,37.7-44c12.5-30.2,27.1-83.7,36.4-113.1,20.4-7.6,40.8-14.6,61.3-21.2V414c-21.7,7.2-43.2,15.1-64.7,23.6-24.2-16.9-70.8-44.8-103.3-54.2-46.6-13.3-59.6-5.4-64.7,5.6s-.9,21.7,45.5,34.4c28.8,7.8,75.8,14.6,107,20.7-15.6,6.4-30.9,13.3-46.4,20.3-35.9,8-110.5,31.3-150.3,56C500.1,553.1,497.4,569.4,504,580ZM708.1,372.2c32.8,10.6,84,22.4,122.9,32.9V374.6c-29.4-21.1-65.4-43.4-94-53.4-60.8-21.5-79.1-11.8-86.4,2.6S648,352.1,708.1,372.2Z"/><path class="cls-6" d="M293.2,630.2a117.9,117.9,0,0,1-25.5-15.8c-.6-.5-1.8-.8-1.8-1.6s1.1-1.1,2-1.2a7.6,7.6,0,0,1-1.6-.3l-12.5,2.3,7.9-.9c3.3-.4,4.4,1.7,2.9,4.9L256.1,636l-.3.7c-1.7,4.1-2.5,8.3,1,11.9s7.7,2.4,11.6,1.2c7.4-2.3,13.1-7.3,18.9-12.1,2.3-2,4.2-4.7,7.2-5.9C294.6,630.9,293.9,630.5,293.2,630.2Z"/><path class="cls-6" d="M718,610.4c-2.3-18-11.1-32.8-23.3-45.8s-28.1-25-43.6-35.7c-6.8-4.6-12.4-10.1-16-17.6-6.5-14.1-.6-25.3,14.7-27.5,4.8-.7,9.7-1.3,14.2-3.4,2.4-1.1,4.5-2.4,4.6-5.4s-2.3-4.3-4.6-5.3a51.9,51.9,0,0,0-28.1-3.2c-19,2.7-41.2,25.3-28.5,51.6,4.9,10.2,11.7,19,19,27.4,10.5,12.3,22.6,22.8,34,34.1a54,54,0,0,1,14.9,28.6c2.5,12.7-2.3,22.8-13.7,28.9-9.4,4.9-19.5,6.5-29.9,5.8-17.1-1.3-33.2-6.4-49.2-12.4s-33.6-15.1-51-21.3c-22.9-8.1-46.4-14.2-71.2-12.5-8.3.5-16.5,1-24.6,2.2-18.7,2.8-36.5,8.7-54.3,14.9-13.1,4.6-25.6,11-38.9,15.2a115.4,115.4,0,0,1-23.1,5.3,56.2,56.2,0,0,1-21.2-1.1c1,5.5-.1,10.9-.3,16.4-.3,7.1-.9,14.3.3,21.4a24.4,24.4,0,0,0,1.4,4.6c1.8,4.3,4.3,5.5,8.3,3.1,16.6-10.1,28.5-23.7,31-43.7.3-2.9,1.7-3.5,3.8-4.1s4.2-1.5,6,1c5.9,8.1,11.7,16.3,14.8,26a126.8,126.8,0,0,0,7.5,19.7c4.1,7.9,9,8.6,15.5,2.5,3.5-3.4,5.6-7.7,7.2-12.2,6-16.5,7.1-33.5,4.9-50.8-.9-7.1-1.1-7,5.8-8.9A60.8,60.8,0,0,0,412,606c2.9-1.1,4.6,0,6.4,2.2,5.8,7.4,9,15.9,10.9,24.9a156.6,156.6,0,0,0,4.7,18.2,35.2,35.2,0,0,0,1.8,4.5c5.1,10.1,14.6,11.2,22,2.5,5-6,7.1-13.2,8.5-20.7a100.8,100.8,0,0,0-.3-35.5c-.7-3.7.6-3.9,3.5-3.9,13.9.1,27.4,2.9,40.7,6.5l4.4,1.1c6.2,1.5,6.4,1.8,7.5,7.9a42,42,0,0,1-1.9,21.1c-2.4,6.6-4.5,13.3-6.8,20a24.4,24.4,0,0,0-1.3,8.5q0,8.4,8.4,9c7.1.4,12.3-2.8,16-8.7a10.5,10.5,0,0,1,3.7-4.1c12.6-7.4,18.4-18.8,19.3-32.9.2-2.7.7-3.3,3.2-2.2a298,298,0,0,0,35.5,13.5c2.6.8,3,2.6,3.6,4.6a362.4,362.4,0,0,1,10.6,49.2,16.6,16.6,0,0,0,5.6,10.7l3.5-1.4H623c4.6-4.4,6-9.9,5.4-16a4.8,4.8,0,0,1,1-3.5c6.8-10,6.2-20.8,3.7-31.8-.2-.9-.3-1.8-.5-2.6s.1-2.3,1.7-2.3c5.9-.3,11.3-.5,15.8,5s10.9,10.9,15.2,17.6c2.8,4.2,6.8,7.4,12.7,6.1l.7-1.2c1.6-9.6.9-19.2-.5-28.8a17.3,17.3,0,0,0-4.6-9.6c-.8-.9-2.5-1.5-1.1-3s1.4-4.6,4.2-4.2c5.2.8,9.8-1,14.6-2.4,1.9-.5,3.5-.7,5.1,1s4.3,1.7,6.5,2.7c10.8.2,10.2-.9,6.9-10.8-1.6-5.1-5.2-9-9.2-12.6-6.7-5.4-14.6-6-22.8-5.1-1.9.2-3.3.1-3.6-1.9s-4-4.4-.6-7.3,8.2-9.4,12-14.3,2.5-5.2-2-7.5a18.2,18.2,0,0,0-6.4-1.9,29.9,29.9,0,0,0-17.5,4.6c-2.7,1.8-4.4,1.2-6.6-.9s-3.7-4.4-1.2-7.8,4.1-8.5,5.8-12.9c1.4-8.1.6-8.8-7.7-7.6l-3.6.8a67.1,67.1,0,0,0-12.3,4.5c-2.2,1.2-3.6.5-5.1-1.3s-4.4-5.4-6.7-8-1.6-2.6-.3-4.2,4.2-5.5,6.4-8.3c4.7-7.3,6.6-7.9-3.4-11.1l-1.2-.8-15.6-4.3a3,3,0,0,1-2.4-2.9c-.6-5.7-.2-11.3,2.5-16.5a3.8,3.8,0,0,1,3.9-2.3l11.6.3h3.4c5.4,0,5.4,0,4.7-5.3-1.5-3-1.8-6.4-2.8-9.6-.5-1.5-.1-2.7,1.6-3.2,11.4-3.3,22.5-2.8,33.3,2.2,1.8.9,3.7,2,2,4.5-4.2,4.4-9.9,4.4-15.2,5.3s-12.1,2.3-16.3,7.6c-5.5,7-4.7,14.6-1.4,22s9.3,14,16.3,18.8c15.5,10.6,30.6,21.5,43.4,35.3s21.6,28.1,23.4,46.5-2,37.6-14.2,53.5c-9.7,12.8-22.2,22.3-36,30.3s-30.8,14.4-47.1,19.8c-11.9,3.9-24,4.8-36.3,5.9s-25.8.9-38.6,2.8a5.1,5.1,0,0,1-4.3-.8c-4.7-3.8-10.3-5.5-16.3-7,7.5-3.1,14-7.8,21-11.8,1.8-1.6,3.6-3.3,5.6-4.9a24.9,24.9,0,0,0,9.1-15.3,1.8,1.8,0,0,1,.5-1.7v-1.3c-1.2-.9-1.5.1-1.6,1-2,11.2-10.3,17.3-18.9,22.9s-17.8,10.7-28.3,12.5c-3.3.6-6.6,1.4-10,1.1l-3.5.2c1,1,2.4.3,3.5.9h4.6l7.5-.4c8.9-4.4,27.9,3.2,31.4,12.3,1.8,4.5,2.5,8.7.5,13.4-2.7,6.4-2.2,12.9.4,19.6h-5.2c-2.1.7-4.3,1.4-5.1,3.8s.4,1.1,1.2.7c3.1-3.8,7.1-2.9,10.9-1.7s6,5.2,6.6,9.2c.9,6.6-1.5,9.3-8.3,9.8-10.8,1.9-14.3-4.9-15.6-14.6a57.7,57.7,0,0,1-.1-7.2l-1.6.9h0c-3.7,8-8.4,15.3-16.8,19.3-6.5,3.1-15.3,1.8-19.3-3.2-1.4-1.7-3.8-3.6-1.7-6.4s2.3-5.4,5.3-6.9c4.8-2.5,8.9-2,12.3,2.4a1.8,1.8,0,0,0-.7-2.7c-3.1-2.1-2.1-3.8.1-5.7A24.2,24.2,0,0,0,510,759c-.2-1.8-1-1.2-1.5-.3-2.6,4.2-6.5,6.1-11.3,7.2s-7.6,4-12.1,4.8c-11.1,2.1-20.9-5.6-20.8-14a8.9,8.9,0,0,1,10.3-9.5,24,24,0,0,1,11.9,5.1c.9.7,2.1,2.6,2.5-.4.1-.4,1.1-.6,1.6-.8,5.9-1.7,11.6-3.9,17.9-3.6s11.6-1.2,17.2-3.4a124.5,124.5,0,0,1-24.4,1.4c-8.1-.5-15.9-2.2-22.9-6.5a33.3,33.3,0,0,1-16.5-26.4c-1.7-19.9,3.8-38,15.9-53.8,2.4-3.3,5.9-5.7,8.9-8.5,1.4-1.3,3.1-2.3,4-4l-.4-.5-9.5,6.7c.4-5.9,3.2-10.8,4.3-16.2-3.7,4-4.7,9.1-5.9,14.1-.7,2.7-1.4,5.2-3.3,7.4a49.8,49.8,0,0,0-9.6,16.9c-.8,2.4-1.9,3-4.7,2.7-11.1-1-22.2-.1-33.3,1.7-18.7,3.1-36.7,8.9-54.8,14.1-1.7.5-3.5.7-5.1,1.3a4.7,4.7,0,0,1-4.8-.8c-3.9-2.7-7.7-5.6-12.6-6.3,1.5,2.1,4,2.9,6.2,4,15.7,8.1,21.3,27.2,14.5,43.7-4.9,11.8-12.3,21.8-20.4,31.3a6.1,6.1,0,0,0-1.3,6.5,61.9,61.9,0,0,0,5.4,12c1.2,2.3,2.3,4.2-1.2,5.4a1.5,1.5,0,0,0-1,1.8c3.6-1.3,7-2.3,10.6.4,6.9,5.2,6,14.2-2.1,19.1a11.4,11.4,0,0,1-12.4.3c-5.8-2-7.8-7-9.1-12.2s-1.2-8.1-1.7-12.2-.1-6.3-.2-9.5c-.1-1.1.5-2.5-.9-3.3h0c-4.2,10.9-10.4,20.7-19.9,27.8-5.6,4.2-12.1,3.9-17.8.1s-6.5-7.9-4.8-12.9,5.1-7.2,10.8-6.5,6.9-3.8,9.9-6.2l-.2-.2c-.3,0-.6-.1-.8.1-7.7,6.3-16.5,3.9-25.1,2.9a8.1,8.1,0,0,1-2.2-.7c-5.1-2.1-7.8-5.9-7.2-10.3s5.8-8.6,10.2-8.8,5.6,2,7.6,4.2,1.2,3,2.4.2c.1-.4,1.6-.3,2.5-.3a24.7,24.7,0,0,0,9.1-2c.3-1-.3-1-.5-1-7.2,2.2-13.7.7-20.1-2.9a5.1,5.1,0,0,1-2.8-4.4,6.5,6.5,0,0,1,2.8-7c3-2.1,6.1-1.8,9.2,0s3.5,4.9,2.9,8.2l.4.4c4.5.1,9,.4,13.4.3,7.8-.2,7.9-.2,10.5-7.5,3.8-10.9,9.2-20.6,18.5-27.7a1.1,1.1,0,0,0,.5-1.5c-2.4.7-4.1,2.6-5.8,4.3a5.6,5.6,0,0,1-6.5,1.4,62.8,62.8,0,0,1-28.8-22c-3.2-4.2-4.1-9.4-4.4-14.6h-.8v4.6c-1.1,1.8-2.4.5-3.6.2-17.5-4.7-31.1-15.2-42.1-29.3-5.7-7.1-11.5-14.2-16-22.2a122.2,122.2,0,0,1-8.1-19.4c-.6-1.8-.3-3,.6-3.7a41.7,41.7,0,0,0-6,2.4c-4.1,2.2-6.5,3.9-8.3,7.2a7.5,7.5,0,0,1,.9,2.7c3.1,17.8,7.3,35.2,15.3,51.4.9,1.8.4,2.7-.7,4a34.9,34.9,0,0,0-7.4,14.6c-2.2,8.9-1.5,17.8,0,26.8.9,5.4.9,5.4-4.7,5.4s-12.1.4-17.1-4.2a7.8,7.8,0,0,0-3.8-1.3c-8.1-1.5-11.9,1.8-11.5,9.9.1,1.7-.8,2.2-1.8,3-5.7,4.4-6.6,9.5-2.7,15.7s9.7,8.4,16.5,9a4.1,4.1,0,0,1,4.1,2.8c4.2,8.2,11.6,11.5,20.5,9.2a58.9,58.9,0,0,0,7-2.6,95.8,95.8,0,0,0,17.4-10.5c2.2-1.7,4-2.2,6.7-1a52.1,52.1,0,0,0,18.6,4.7c3.2.2,4.7,1,4.2,4.6-.2,2,1.2,3.8,2.7,5.2a19,19,0,0,0,10.7,5l5.5.7-1.3,1.6c-6.3,7.6-3.6,17.7,5.5,21.3S316,807,322,801.5a74.3,74.3,0,0,0,11.8-15c.6-.9.7-2.3,2.6-2.2.5,5.9.9,11.9,2.4,17.7a18.2,18.2,0,0,0,14.3,13.3c7.1,1.1,14.7-4.1,17-11.4,1.7-5.3-1.8-11.9-8.7-14.7a5.9,5.9,0,0,1-3.1-2.5,93.7,93.7,0,0,1-6.6-14.4,4,4,0,0,1,1-4.7,113.6,113.6,0,0,0,12.9-17.2,3.4,3.4,0,0,1,3.6-1.8c4,.3,8,.6,12,.7,44.8,2.3,86-4.7,97.2-7,5.9.7,11,4.3,17,4.8-4.3,2-8.5,3.9-13,.6a14.1,14.1,0,0,0-5.6-2.1,12.2,12.2,0,0,0-12,3.5c-3.2,3.3-3,7.4-1.8,11.3,2.2,7.2,9,11.9,16.9,12.3,3.2.2,6.3-.5,9.7-.8-3.5,9.4,1.8,14.3,9.3,16a23.2,23.2,0,0,0,5.9.5c8.9-.4,14.6-5.9,19.6-12.4,1.1-1.4,1.7-3.3,3.5-4.2a22.1,22.1,0,0,1,.6,3.2c2,11.6,8.8,16.1,20.2,13.2,4.7-1.1,7.3-4.4,7.2-9.2s-1.4-8.5-4.7-11.1c-7.4-5.8-7.3-13.4-4.8-20.8s2-12.6-1.7-18.3c-1.6-2.4-.7-2.9,1.6-3,6.4-.5,12.8-1.2,19.2-1.5,20.3-.9,40.5-2.5,60.1-9,24-8,46.7-18.5,65.8-35.5C712.1,661.2,721.4,638.1,718,610.4ZM326.8,746c-3,8.1-2.9,8.1-13.9,8.3l-4.3-.3c-2,0-3-.8-3.4-3-1.1-5.3-6.5-8.3-11.9-7s-7.8,6.2-6.4,11.5c.2.8.6,1.6.8,2.4s-1.1,1.5-2,1.8-1-.7-1.1-1.4a37,37,0,0,0-.6-4.8c-1.6-6.5-6.2-9.9-12.7-9.2s-10.2-.8-15.2-2.1a3.1,3.1,0,0,1-2.6-3.4,136.9,136.9,0,0,1,2.4-24.7c.4-2.3,1.1-2.4,2.8-1.1,19.6,15,42.1,23.6,65.9,29.1C327.1,742.6,327.9,743.3,326.8,746Zm-98.2-78.5c-4.5-12.3-7.2-25.1-9.6-37.9-.6-3,0-4.9,3-5.7,6.1-4.6,6.2-4.6,8.4,2.4,4.5,14.6,13.6,26.4,22.9,38.1,11.8,15.1,26.4,25.9,45.1,30.7,1,.3,2.4.3,2.7,1.7,1.6,7.2,6.7,11.9,11.6,16.8,6.6,5.4,13.4,10.5,21.8,13.1,1.5.4,1.7,1.2.7,2.4a54.3,54.3,0,0,0-5.9,10.5,2.3,2.3,0,0,1-3,1.5c-30.8-7.3-59.5-18.7-81.3-42.9C237.1,689.4,232.6,678.5,228.6,667.5Zm-37,62.5a8,8,0,0,1,5-1.3c3.5.4,6.9.9,8.8,4.2.9,1.6,1.9.5,2.8.7a68.9,68.9,0,0,0,15.7.7c3.6-.2,3.4,2.5,3.8,4.4s-1.8,1.5-2.9,1.7c-4.9,1.2-10.1,1.8-14.9,3.6-1.7.6-2.5-.2-3.6-1.1-3.6-3-7.5-5.4-12.6-5.2-1.3,0-3.5,1.3-4-1.3S189.2,731.6,191.6,730Zm84,35.8a69.4,69.4,0,0,1-22.9-6.1,2.5,2.5,0,0,0-1.2-.2c-8.6,6.3-17.1,12.8-27.7,15.6-3.6.9-7.4,1.5-10.7-1a15.2,15.2,0,0,1-9.1-12.8c-.6-5.4,3.4-8.8,8.7-8.1s6.8,1.5,14.7,7.5c-2.4-3.2-.4-4.8.7-7.2-3.5,3.5-6.1.3-8.9-.6a28.2,28.2,0,0,0-7-1.5c-5.7-.1-9.6,2.7-10.2,8.3-.3,3.2-1.8,3.4-4.1,2.9-5-1-9.8-2.5-12.6-7.3-2-3.2-3.9-7-1.4-10.5a12.1,12.1,0,0,1,12.1-5.3c2.5.4,5.2,1.1,6.8,3.1,3.2,3.8,6.6,3.8,11.1,2.2s9.2-2.2,13.9-2.9c2.8-.4,2.7-1.4,1.9-3.7-3.8-11.9-6.1-24-3.1-36.5a32.2,32.2,0,0,1,6.6-13.8c.8-.9,1.7-2.2,2.8-.2,3.8,7.3,9.1,13.4,14.9,19.2,3,1.8,3.9,4,3.1,7.8a102.8,102.8,0,0,0-2.5,24.1c.1,2.6,1,4.2,3.5,5a46.4,46.4,0,0,0,17,2.3c7.7-.2,13.4,8.8,10.1,15.7a15.7,15.7,0,0,1-1.8,1.9C279.5,766,277.5,766,275.6,765.8Zm96.5-18.5c-4.4-.3-4.3-.2-2.3-4,5.1-9.4,8-19.4,6.1-30.3-2-5.7-4.2-11.3-8.2-16.1.3-.3.5-.6.8-.7,21.6-5.8,42.7-13.2,64.9-16.2a143.7,143.7,0,0,1,27.8-.9c2.6.2,3.2.9,2.4,3.5a84.2,84.2,0,0,0-4.2,22.8c.2,7.6,1.4,14.9,5.1,21.7a36.8,36.8,0,0,0,12,13.1,2,2,0,0,1,.9,1.5C456,742.5,385,748.3,372.1,747.3Z"/><path class="cls-10" d="M315.4,776.9c-.3,0-.6-.1-.8.1-7.7,6.3-16.5,3.9-25.1,2.9a8.1,8.1,0,0,1-2.2-.7c-5.1-2.1-7.8-5.9-7.2-10.3s5.8-8.6,10.2-8.8,5.6,2,7.6,4.2,1.2,3,2.4.2c.1-.4,1.6-.3,2.5-.3a24.7,24.7,0,0,0,9.1-2c.3-1-.3-1-.5-1-7.2,2.2-13.7.7-20.1-2.9a5.1,5.1,0,0,1-2.8-4.4,6.5,6.5,0,0,1,2.8-7c3-2.1,6.1-1.8,9.2,0s3.5,4.9,2.9,8.2c-.1.2-.4.4-.4.5s.6.1.8-.1c4.5.1,9,.4,13.4.3,7.8-.2,7.9-.2,10.5-7.5,3.8-10.9,9.2-20.6,18.5-27.7a1.1,1.1,0,0,0,.5-1.5c-2.4.7-4.1,2.6-5.8,4.3a5.6,5.6,0,0,1-6.5,1.4,62.8,62.8,0,0,1-28.8-22c-3.2-4.2-4.1-9.4-4.4-14.6v-6c-.6,2-2.5,3.8-.8,5.9,0,1.3,0,2.5-.1,3.8l-.2.2.3.6c-1.1,1.8-2.4.5-3.6.2-17.5-4.7-31.1-15.2-42.1-29.3-5.7-7.1-11.5-14.2-16-22.2a122.2,122.2,0,0,1-8.1-19.4c-.9-2.7.2-4,2.6-4.7,9.4-2.5,19-3.5,28.5-4.6,3.3-.4,4.4,1.7,2.9,4.9L256.1,636l-.3.7c-1.7,4.1-2.5,8.3,1,11.9s7.7,2.4,11.6,1.2c7.4-2.3,13.1-7.3,18.9-12.1,2.3-2,4.2-4.7,7.2-5.9,1.1.8,2.8-.1,3.7,1.4,1,5.5-.1,10.9-.3,16.4-.3,7.1-.9,14.3.3,21.4a24.4,24.4,0,0,0,1.4,4.6c1.8,4.3,4.3,5.5,8.3,3.1,16.6-10.1,28.5-23.7,31-43.7.3-2.9,1.7-3.5,3.8-4.1s4.2-1.5,6,1c5.9,8.1,11.7,16.3,14.8,26a126.8,126.8,0,0,0,7.5,19.7c4.1,7.9,9,8.6,15.5,2.5,3.5-3.4,5.6-7.7,7.2-12.2,6-16.5,7.1-33.5,4.9-50.8-.9-7.1-1.1-7,5.8-8.9A60.8,60.8,0,0,0,412,606c2.9-1.1,4.6,0,6.4,2.2,5.8,7.4,9,15.9,10.9,24.9a156.6,156.6,0,0,0,4.7,18.2,35.2,35.2,0,0,0,1.8,4.5c5.1,10.1,14.6,11.2,22,2.5,5-6,7.1-13.2,8.5-20.7a100.8,100.8,0,0,0-.3-35.5c-.7-3.7.6-3.9,3.5-3.9,13.9.1,27.4,2.9,40.7,6.5l4.4,1.1c6.2,1.5,6.4,1.8,7.5,7.9a42,42,0,0,1-1.9,21.1c-2.4,6.6-4.5,13.3-6.8,20a24.4,24.4,0,0,0-1.3,8.5q0,8.4,8.4,9c7.1.4,12.3-2.8,16-8.7a10.5,10.5,0,0,1,3.7-4.1c12.6-7.4,18.4-18.8,19.3-32.9.2-2.7.7-3.3,3.2-2.2a281.2,281.2,0,0,0,35.5,13.4c2.6.9,3,2.7,3.6,4.7a362.4,362.4,0,0,1,10.6,49.2,16.6,16.6,0,0,0,5.6,10.7c-10.4,3.1-21.1,3.9-31.8,4.5a201.5,201.5,0,0,1-41.8-2.3c1.8-1.6,3.6-3.3,5.6-4.9a24.9,24.9,0,0,0,9.1-15.3,1.6,1.6,0,0,0,.5-1.7c0-.5.1-.9.1-1.3.6-6.5.6-6.5-.7-9.9-2.8,7-5.4,14-10.8,19.5-12,12.5-27,19.8-43.1,25.3-1.5.5-3.7.4-4.2,2.6l-3.5.2c-1.4,0-3-.5-5,1,3.4.5,5.9,1,8.5-.1H504a.8.8,0,0,0,1.5,0l7.5-.4c1.1,1.4,2.9,1.4,4.4,1.6a37.6,37.6,0,0,1,14.4,5.1c5.5,3.4,10.4,7.8,9,15.1s-1.1,15.6-.7,23.5c-2.1.7-4.3,1.4-5.1,3.8s.4,1.1,1.2.7a11,11,0,0,0,4.4-.4c3.5-.9,8.1,1.5,10,4.9s1,6.3-2,9.4c-1,1.2-2.8,1.6-3.2,3.4-10.8,1.9-14.3-4.9-15.6-14.6a57.7,57.7,0,0,1-.1-7.2c.8-.7.4-1.6-.3-1.6s-1.3,1.4-1.3,2.5h0c-1.3-.1-1.8.9-2.5,1.8-3.9,4.9-8,9.6-13.4,13.1s-19.5,2.7-21.9-5.2c.9-3,2.3-5.4,5.3-6.9,4.8-2.5,8.9-2,12.3,2.4a1.8,1.8,0,0,0-.7-2.7c-3.1-2.1-2.1-3.8.1-5.7A24.2,24.2,0,0,0,510,759c1.2-1.6,2.8-3,1.5-5.3.8-.1,1.5-.3,1.4-1.3a.8.8,0,0,0-.4-.4c-.9.2-.9,1-1,1.7a2.5,2.5,0,0,0-2,.9c-3.4,3.9-7.9,6.5-12.2,9.2-11.1,6.7-23.2,5.7-31-5.6a2.8,2.8,0,0,0-2-1.5,8.9,8.9,0,0,1,10.3-9.5,24,24,0,0,1,11.9,5.1c.9.7,2.1,2.6,2.5-.4.1-.4,1-.6,1.6-.8,5.9-1.7,11.6-3.9,17.9-3.6s11.6-1.2,17.2-3.4a124.5,124.5,0,0,1-24.4,1.4c-8.1-.5-15.9-2.2-22.9-6.5a33.3,33.3,0,0,1-16.5-26.4c-1.7-19.9,3.8-38,15.9-53.8,2.4-3.3,5.9-5.7,8.9-8.5,1.4-1.3,3.1-2.3,4-4a4.3,4.3,0,0,0,2.4-1.8,9.1,9.1,0,0,0,5.3-4.4c-3.1,1.1-3.1,1.1-5.8,3.9l-2.3,1.8-9.5,6.7c.4-5.9,3.2-10.9,4.3-16.4.2-.3,1-.5.2-1v1.1c-3.8,4-4.8,9.2-6,14.2-.7,2.7-1.4,5.2-3.3,7.4a49.8,49.8,0,0,0-9.6,16.9c-.8,2.4-1.9,3-4.7,2.7-11.1-1-22.2-.1-33.3,1.7-18.7,3.1-36.7,8.9-54.8,14.1-1.7.5-3.5.7-5.1,1.3a4.7,4.7,0,0,1-4.8-.8c-3.9-2.7-7.7-5.6-12.6-6.3h0c-.2-.9-.8-.9-1.5-.8h0v-.7a30.8,30.8,0,0,0-10.5-3.8,1.3,1.3,0,0,0-1.5-.6c-.1,0-.2.2-.2.3l1.6.4c5.3,3.7,10.7,7.2,15.8,11.2,13.1,10.4,16.8,20.3,13.5,36.7-2.4,12.3-9.1,22.9-17.3,32.3-2.8,3.2-4.1,6.3-3,10.8,1.6,6.5,3.5,13,3.2,19.9a5.9,5.9,0,0,1-.2,1.3l-.3.3.4-.3h.7a19,19,0,0,0,4.1-.4,6.6,6.6,0,0,1,7.9,5,9.7,9.7,0,0,1-4.7,10.6c-3,1.7-6.4,2.1-9.7,2.3-5.8-2-7.8-7-9.1-12.2s-1.2-8.1-1.7-12.2.2-10.4.5-16a3.1,3.1,0,0,0-1.6,3.2h0a1.7,1.7,0,0,0-1.5.9,91.1,91.1,0,0,1-12.8,17.9c-4.8,5.3-9.7,10.2-17.7,9.1a54.2,54.2,0,0,0-5.7,0c-4.7-3.3-6.5-7.9-4.8-12.9s5.1-7.2,10.8-6.5,6.9-3.8,9.9-6.2l1.1-1.2h-.3C315.7,775.8,315.5,776.3,315.4,776.9Zm263-74.5c4.7.1,8.5-2.4,8.5-5.4s-4.2-5.9-8.8-5.7-8.3,2.8-8.4,5.5S573.8,702.4,578.4,702.4Zm13.2-17.9c4,0,8.8-3.5,10-7.3s-1.3-7.1-5.2-6.2a12.2,12.2,0,0,0-9,7.3C585.8,682,587.6,684.5,591.6,684.5ZM351.8,736.7c0-3.8-1.1-6.9-4.1-9.1s-5.4-.8-6.5,2.3a11.4,11.4,0,0,0,.4,8.7c1.2,2.8,2.9,5.4,6.4,4.7S351.8,739.5,351.8,736.7Zm-30.4-45.9c-1.3.3-3.7,0-4.8,2.4s-.1,4.4,1.6,6.1a12.3,12.3,0,0,0,9.5,3.8c4.3-.4,6-4.1,3.4-7.6S325.8,691.1,321.4,690.8Zm46.8-6.7c-.1-4.1-4.7-9.5-8.7-10.2a4.3,4.3,0,0,0-5.4,4.9c.5,4.3,4.7,8.9,8.9,9.7S368.3,687.1,368.2,684.1Zm119.2-11c-4.3.1-9.5,5-9.9,9.3s1.5,4.9,4.4,4.9c4.4-.1,9.5-4.8,10-9.3S490.7,673,487.4,673.1Zm-6.8,41.7c.2-4.3-1-7.2-3.4-9.4s-6.5-1.8-7.5,2.1a11.1,11.1,0,0,0,.8,8.7c1.4,2.4,3,5,6.3,4.1S480.5,716.6,480.6,714.8Zm7.3-93.7c2.5,0,4.8-.5,6.1-2.9a4.2,4.2,0,0,0-.8-4.6c-2.6-3.2-8.4-4.9-12.3-3.5s-4.5,4.6-1.8,7.4A11.1,11.1,0,0,0,487.9,621.1Zm26.4,76.8c3.2-.2,6.6-2.5,8.7-6.2s.1-6.4-3.8-6.5a10.9,10.9,0,0,0-10.2,5.7C506.7,694.9,508.5,697.9,514.3,697.9Zm-165.9-46c-2.1-.1-4.2.1-5.3,2a4.7,4.7,0,0,0,.1,4.7c1.8,3.3,7.6,6,11.4,5.3s5.3-4.3,2.8-7.3S352.2,651.9,348.4,651.9Zm-73.9,9.8c-2.2,0-4.5,0-5.5,2.4s.1,4.4,1.9,6.1a12.7,12.7,0,0,0,9.2,3.5c1.8-.1,3.6-.8,4.3-2.6a4.7,4.7,0,0,0-1.1-5.2A11.6,11.6,0,0,0,274.5,661.7Zm141.3,3.2a10.7,10.7,0,0,0,8.1-2.9c2.6-2.3,2.2-5.5-.7-7.1s-10.8-.7-13.4,2.7-1.4,4.8,1.2,6.3A7.7,7.7,0,0,0,415.8,664.9ZM243.9,623.6c0,3.1.9,5.4,3.5,6.8a2.4,2.4,0,0,0,3.1-.5c2-2.2,2-4.8,1-7.4s-2-4-4.6-3.6S244.1,621.7,243.9,623.6ZM516,733.2c-.2-2.4-1-4.8-3.5-6.3a2.4,2.4,0,0,0-3.4.6,7.3,7.3,0,0,0-.4,7.8c1,1.9,2.2,3.6,4.6,3.1S516,735.7,516,733.2ZM352.7,708.5c3.5-.1,7.4-3.3,7.4-6.3s-1.7-3.2-3.7-3.2-7.5,3.8-7.3,6.5S350.6,708.5,352.7,708.5Zm-13.5,46.6c-2.7.4-5.4.8-6,4s2.7,4.1,5.7,4.1,6.4-1.9,6.1-4.1S341.8,755.5,339.2,755.1Zm80.5-134c-4.1,0-8.3,3.7-8.2,6.3s1.7,3,3.6,3.1,7.4-3.3,7.4-6.2S421,621.1,419.7,621.1Zm160.7,33c-3,.2-5.9-.1-6.4,3.5s2.5,4.2,6,4.2a9.2,9.2,0,0,0,3.3-.6c1.5-.5,2.7-1.4,2.7-3.2s-1.3-2.7-2.7-3.2A12.1,12.1,0,0,0,580.4,654.1Zm-94-20.6.6-.8c.1-.1-.1-.3-.2-.4s-.4.3-.5.5S486.4,633.2,486.4,633.5Z"/><path class="cls-11" d="M544.4,704.6a201.5,201.5,0,0,0,41.8,2.3c10.7-.6,21.4-1.4,31.8-4.5l3.5-1.4c.6.8,1.1.7,1.5-.1h0c2.9.1,5.6-.8,8.4-1.6a125.2,125.2,0,0,0,33.6-15c4.8-2.9,10.1-5.6,13-10.9l.7-1.2c.8,1,1.3.1,1.7-.4,2.1-2.5,4.2-4.9,6.2-7.5a84.1,84.1,0,0,0,16.3-36.4c10.8.2,10.2-.9,6.9-10.8-1.6-5.1-5.2-9-9.2-12.6l1-.4c-1.1-3.9-1.1-8.3-4.9-11,2.8-2.8,2.3-5.8.6-8.8s-3.4-3.9-6.4-2.3c-1.9-1.9-2.6-4.9-5.3-6.1,2.8-4.4,2.5-5.2-2-7.5a18.2,18.2,0,0,0-6.4-1.9,21.8,21.8,0,0,0-5.4-5.1c-.6-6.3-3.2-8.7-7.8-7.3l-6.3-4.6c1.4-8.1.6-8.8-7.7-7.6l-3.6.8c-.5-3.6-3.7-4-6.1-5.2-1.4-2.8-2.5-6-6.7-5.2-.9-2.9-3.5-4.5-5.2-6.9,4.7-7.3,6.6-7.9-3.4-11.1l-1.2-.8a35.8,35.8,0,0,1,1-21c.6-1.8,1.9-3.7-1-4.7h3.4c5.4,0,5.4,0,4.7-5.3,3.2-1.5,6.1-3.4,9.7-3.9,8.1-1.1,16.3-.8,24.4-2.2-4.2,4.4-9.9,4.4-15.2,5.3s-12.1,2.3-16.3,7.6c-5.5,7-4.7,14.6-1.4,22s9.3,14,16.3,18.8c15.5,10.6,30.6,21.5,43.4,35.3s21.6,28.1,23.4,46.5-2,37.6-14.2,53.5c-9.7,12.8-22.2,22.3-36,30.3s-30.8,14.4-47.1,19.8c-11.9,3.9-24,4.8-36.3,5.9s-25.8.9-38.6,2.8a5.1,5.1,0,0,1-4.3-.8c-4.7-3.8-10.3-5.5-16.3-7C530.9,713.3,537.4,708.6,544.4,704.6Z"/><path class="cls-12" d="M372.1,747.3c-4.4-.3-4.3-.2-2.3-4,5.1-9.4,8-19.4,6.1-30.3l8.8-1.5,34.4-4.7c9.2-1.2,18.4-2.2,27.6-1.9,4.2.1,8.4.6,12.7.5.2,7.6,1.4,14.9,5.1,21.7a36.8,36.8,0,0,0,12,13.1C471.5,742.4,430.5,748.6,372.1,747.3Z"/><path class="cls-10" d="M280.3,763.7c-.8,2.3-2.8,2.3-4.7,2.1a69.4,69.4,0,0,1-22.9-6.1,2.5,2.5,0,0,0-1.2-.2c-.3-1.4-1.3-1.6-2.2-.8-2.8,2.5-6.2,4.1-9.3,6.1-7.4,4.7-15,8.9-24.2,8.5-1,0-2-.2-2.7.8a15.2,15.2,0,0,1-9.1-12.8c-.6-5.4,3.4-8.8,8.7-8.1s6.8,1.5,14.7,7.5c-2.4-3.2-.4-4.8.7-7.2-3.5,3.5-6.1.3-8.9-.6a28.2,28.2,0,0,0-7-1.5c-5.7-.1-9.6,2.7-10.2,8.3-.3,3.2-1.8,3.4-4.1,2.9-5-1-9.8-2.5-12.6-7.3-2-3.2-3.9-7-1.4-10.5a12.1,12.1,0,0,1,12.1-5.3c2.5.4,5.2,1.1,6.8,3.1,3.2,3.8,6.6,3.8,11.1,2.2s9.2-2.2,13.9-2.9c2.8-.4,2.7-1.4,1.9-3.7-3.8-11.9-6.1-24-3.1-36.5a32.2,32.2,0,0,1,6.6-13.8c.8-.9,1.7-2.2,2.8-.2,3.8,7.3,9.1,13.4,14.9,19.2a23.4,23.4,0,0,0-.9,2.4c-1.7,7.3-1.2,14.8-2.4,22.1-2.3-4.1-4.4-5.3-6.7-3.4s-2.7,4.9-1.6,7.8,1.8,3.6,4,3.3,4-3.1,4.3-5.8a7.5,7.5,0,0,0,0-1.5c1.6,1.5.6,3.3.9,5,1.1,6.8,1.5,10.6,10.3,11.8,3.6.5,7.2.4,10.8.6a11.1,11.1,0,0,1,7.1,2.8C280.8,755.2,280,759.5,280.3,763.7ZM243.1,707c.1-3.7-2.6-7.5-5.2-7.2s-3.7,2.1-3.8,4.7,2.1,7,4.8,7S242.6,709.1,243.1,707Z"/><path class="cls-12" d="M312.7,713.6c6.6,5.4,13.4,10.5,21.8,13.1,1.5.4,1.7,1.2.7,2.4a54.3,54.3,0,0,0-5.9,10.5,2.3,2.3,0,0,1-3,1.5c-30.8-7.3-59.5-18.7-81.3-42.9-7.9-8.8-12.4-19.7-16.4-30.7s-7.2-25.1-9.6-37.9c-.6-3,0-4.9,3-5.7a28.3,28.3,0,0,0,.3,4.1c3.2,14.3,8,27.9,15.6,40.6,9.2,15.4,22.1,26.5,37.7,34.8,10.8,5.7,22.3,8.8,34.1,11C310.8,714.6,311.9,714.7,312.7,713.6Z"/><path class="cls-13" d="M459.4,705.4c-4.3.1-8.5-.4-12.7-.5-9.2-.3-18.4.7-27.6,1.9l-34.4,4.7-8.8,1.5c-2-5.7-4.2-11.3-8.2-16.1.3-.3.5-.6.8-.7,21.6-5.8,42.7-13.2,64.9-16.2a143.7,143.7,0,0,1,27.8-.9c2.6.2,3.2.9,2.4,3.5A84.2,84.2,0,0,0,459.4,705.4Z"/><path class="cls-13" d="M312.7,713.6c-.8,1.1-1.9,1-3,.8-11.8-2.2-23.3-5.3-34.1-11-15.6-8.3-28.5-19.4-37.7-34.8-7.6-12.7-12.4-26.3-15.6-40.6a28.3,28.3,0,0,1-.3-4.1c6.1-4.6,6.2-4.6,8.4,2.4,4.5,14.6,13.6,26.4,22.9,38.1,11.8,15.1,26.4,25.9,45.1,30.7,1,.3,2.4.3,2.7,1.7C302.7,704,307.8,708.7,312.7,713.6Z"/><path class="cls-10" d="M678,673.4c-2.9,5.3-8.2,8-13,10.9a125.2,125.2,0,0,1-33.6,15c-2.8.8-5.5,1.7-8.4,1.6,4.6-4.4,6-9.8,5.4-16a4.8,4.8,0,0,1,1-3.5c6.8-10,6.2-20.8,3.7-31.8-.2-.9-.3-1.8-.5-2.6s.1-2.3,1.7-2.3c5.9-.3,11.3-.5,15.8,5s10.9,10.9,15.2,17.6C668.1,671.5,672.1,674.7,678,673.4Zm-25.4,3.4c-4.5,0-9.4,3.9-10.3,8.3a4.1,4.1,0,0,0,3.8,5.3c4.3.3,10.1-4,10.9-8.2S656.1,676.9,652.6,676.8Zm-1-19c-.2-1.8-.4-4.2-3.5-4.2s-4.7,3.2-4.6,6.7.5,4.7,3.3,5S651.7,661.9,651.6,657.8Z"/><path class="cls-10" d="M702.9,627.9a84.1,84.1,0,0,1-16.3,36.4c-2,2.6-4.1,5-6.2,7.5-.4.5-.9,1.4-1.7.4,1.6-9.6.9-19.2-.5-28.8a17.3,17.3,0,0,0-4.6-9.6c-.8-.9-2.5-1.5-1.1-3s1.4-4.6,4.2-4.2c5.2.8,9.8-1,14.6-2.4,1.9-.5,3.5-.7,5.1,1S700.7,626.9,702.9,627.9Zm-15.1,15.8c0,2.4.7,4.6,3.4,5s4.9-3.8,4.8-7.2-.4-4.4-3.2-4.7S687.8,639.9,687.8,643.7Z"/><path class="cls-11" d="M339,682.1a30.8,30.8,0,0,1,10.5,3.8c-.3.1-.9.1-.9.2s.5.5.9.5h0c.3.7.8.8,1.5.8h0c1.5,2.1,4,2.9,6.2,4,15.7,8.1,21.3,27.2,14.5,43.7-4.9,11.8-12.3,21.8-20.4,31.3a6.1,6.1,0,0,0-1.3,6.5,61.9,61.9,0,0,0,5.4,12c1.2,2.3,2.3,4.2-1.2,5.4a1.5,1.5,0,0,0-1,1.8h.1c-.6,0-.8.3-.8.8h0l-1.4.2c.3-6.9-1.6-13.4-3.2-19.9-1.1-4.5.2-7.6,3-10.8,8.2-9.4,14.9-20,17.3-32.3,3.3-16.4-.4-26.3-13.5-36.7-5.1-4-10.5-7.5-15.8-11.2Z"/><path class="cls-10" d="M685.6,575.9c2.7,1.2,3.4,4.2,5.3,6.1-1.8,6.3.5,10.7,5.8,11.1,3.8,2.7,3.8,7.1,4.9,11l-1,.4c-6.7-5.4-14.6-6-22.8-5.1-1.9.2-3.3.1-3.6-1.9s-4-4.4-.6-7.3S681.8,580.8,685.6,575.9Z"/><path class="cls-10" d="M666,476.4c-8.1,1.4-16.3,1.1-24.4,2.2-3.6.5-6.5,2.4-9.7,3.9-1.5-3-1.8-6.4-2.8-9.6-.5-1.5-.1-2.7,1.6-3.2,11.4-3.3,22.5-2.8,33.3,2.2C665.8,472.8,667.7,473.9,666,476.4Z"/><path class="cls-11" d="M500.9,718.9c.5-2.2,2.7-2.1,4.2-2.6,16.1-5.5,31.1-12.8,43.1-25.3,5.4-5.5,8-12.5,10.8-19.5,1.3,3.4,1.3,3.4.7,9.9-1.2-.9-1.5.1-1.6,1-2,11.2-10.3,17.3-18.9,22.9s-17.8,10.7-28.3,12.5C507.6,718.4,504.3,719.2,500.9,718.9Z"/><path class="cls-10" d="M623.8,487.8c2.9,1,1.6,2.9,1,4.7a35.8,35.8,0,0,0-1,21l-15.6-4.3a3,3,0,0,1-2.4-2.9c-.6-5.7-.2-11.3,2.5-16.5a3.8,3.8,0,0,1,3.9-2.3Zm-4.4,11.4c-.1-1.8-.3-4.3-3.4-4.4s-4.4,3.3-4.4,7,.3,4.7,3.4,4.8S619.4,503.3,619.4,499.2Z"/><path class="cls-10" d="M196.6,728.7c3.5.4,6.9.9,8.8,4.2.9,1.6,1.9.5,2.8.7a68.9,68.9,0,0,0,15.7.7c3.6-.2,3.4,2.5,3.8,4.4s-1.8,1.5-2.9,1.7c-4.9,1.2-10.1,1.8-14.9,3.6-1.7.6-2.5-.2-3.6-1.1-3.6-3-7.5-5.4-12.6-5.2-1.3,0-3.5,1.3-4-1.3s-.5-4.8,1.9-6.4A8,8,0,0,1,196.6,728.7Z"/><path class="cls-11" d="M540.1,764.9c-.4-7.9-.8-15.7.7-23.5s-3.5-11.7-9-15.1a37.6,37.6,0,0,0-14.4-5.1c-1.5-.2-3.3-.2-4.4-1.6,8.9-4.4,27.9,3.2,31.4,12.3,1.8,4.5,2.5,8.7.5,13.4-2.7,6.4-2.2,12.9.4,19.6Z"/><path class="cls-11" d="M247.6,731.4c1.2-7.3.7-14.8,2.4-22.1a23.4,23.4,0,0,1,.9-2.4c3,1.8,3.9,4,3.1,7.8a102.8,102.8,0,0,0-2.5,24.1c.1,2.6,1,4.2,3.5,5a46.4,46.4,0,0,0,17,2.3c7.7-.2,13.4,8.8,10.1,15.7a15.7,15.7,0,0,1-1.8,1.9c-.3-4.2.5-8.5-3.6-11.7a11.1,11.1,0,0,0-7.1-2.8c-3.6-.2-7.2-.1-10.8-.6-8.8-1.2-9.2-5-10.3-11.8-.3-1.7.7-3.5-.9-5Z"/><path class="cls-10" d="M671.8,561.4a21.8,21.8,0,0,1,5.4,5.1,29.9,29.9,0,0,0-17.5,4.6c-2.7,1.8-4.4,1.2-6.6-.9s-3.7-4.4-1.2-7.8,4.1-8.5,5.8-12.9l6.3,4.6a18.7,18.7,0,0,0-.8,3.2c-.4,3.1,2.1,7.4,4.5,7.9S670.9,563.2,671.8,561.4Z"/><path class="cls-10" d="M628.4,525.4c1.7,2.4,4.3,4,5.2,6.9a5.7,5.7,0,0,0-1.6,5.1c.3,3.4,3.2,7.1,5.5,6.5s2.8-3.9,2.8-6.4c2.4,1.2,5.6,1.6,6.1,5.2a67.1,67.1,0,0,0-12.3,4.5c-2.2,1.2-3.6.5-5.1-1.3s-4.4-5.4-6.7-8-1.6-2.6-.3-4.2S626.2,528.2,628.4,525.4Z"/><path class="cls-11" d="M511.5,753.7c1.3,2.3-.3,3.7-1.5,5.3-.2-1.8-1-1.2-1.5-.3-2.6,4.2-6.5,6.1-11.3,7.2s-7.6,4-12.1,4.8c-11.1,2.1-20.9-5.6-20.8-14a2.8,2.8,0,0,1,2,1.5c7.8,11.3,19.9,12.3,31,5.6,4.3-2.7,8.8-5.3,12.2-9.2a2.5,2.5,0,0,1,2-.9Z"/><path class="cls-11" d="M490.3,775.5c2.4,7.9,16.1,9,21.9,5.2s9.5-8.2,13.4-13.1c.7-.9,1.2-1.9,2.5-1.8-3.7,8-8.4,15.3-16.8,19.3-6.5,3.1-15.3,1.8-19.3-3.2C490.6,780.2,488.2,778.3,490.3,775.5Z"/><path class="cls-11" d="M349.3,811.9c3.3-.2,6.7-.6,9.7-2.3a9.7,9.7,0,0,0,4.7-10.6,6.6,6.6,0,0,0-7.9-5,19,19,0,0,1-4.1.4l.8-1.5h0l.8-.8h-.1c3.6-1.3,7-2.3,10.6.4,6.9,5.2,6,14.2-2.1,19.1A11.4,11.4,0,0,1,349.3,811.9Z"/><path class="cls-11" d="M299.7,802.7a54.2,54.2,0,0,1,5.7,0c8,1.1,12.9-3.8,17.7-9.1a91.1,91.1,0,0,0,12.8-17.9,1.7,1.7,0,0,1,1.5-.9c-4.2,10.9-10.4,20.7-19.9,27.8C311.9,806.8,305.4,806.5,299.7,802.7Z"/><path class="cls-11" d="M213.1,774.1c.7-1,1.7-.8,2.7-.8,9.2.4,16.8-3.8,24.2-8.5,3.1-2,6.5-3.6,9.3-6.1.9-.8,1.9-.6,2.2.8-8.6,6.3-17.1,12.8-27.7,15.6C220.2,776,216.4,776.6,213.1,774.1Z"/><path class="cls-11" d="M545.4,786.7c.4-1.8,2.2-2.2,3.2-3.4,3-3.1,3.8-6.3,2-9.4s-6.5-5.8-10-4.9a11,11,0,0,1-4.4.4c3.1-3.8,7.1-2.9,10.9-1.7s6,5.2,6.6,9.2C554.6,783.5,552.2,786.2,545.4,786.7Z"/><path class="cls-11" d="M337.4,774.7a3.1,3.1,0,0,1,1.6-3.2c-.3,5.6.4,10.8-.5,16-.1-3.1-.1-6.3-.2-9.5C338.2,776.9,338.8,775.5,337.4,774.7Z"/><path class="cls-11" d="M500.9,720c-2.6,1.1-5.1.6-8.5.1,2-1.5,3.6-1,5-1S499.8,719.4,500.9,720Z"/><path class="cls-11" d="M300.4,688.1c-1.7-2.1.2-3.9.8-5.9v6Z"/><path class="cls-11" d="M528.1,765.8c0-1.1-.3-2.5,1.3-2.5s1.1.9.3,1.6Z"/><path class="cls-11" d="M505.5,720a.9.9,0,0,1-1.5,0Z"/><path class="cls-11" d="M559.6,682.7a1.6,1.6,0,0,1-.5,1.7A1.8,1.8,0,0,1,559.6,682.7Z"/><path class="cls-10" d="M623,700.9c-.4.8-.9.9-1.5.1Z"/><path class="cls-11" d="M300.4,692.7l-.3-.6.2-.2A2.2,2.2,0,0,0,300.4,692.7Z"/><path class="cls-6" d="M578.4,702.4c-4.6,0-8.7-2.6-8.7-5.6s3.9-5.3,8.4-5.5,8.8,2.5,8.8,5.7S583.1,702.5,578.4,702.4Z"/><path class="cls-6" d="M591.6,684.5c-4,0-5.8-2.5-4.2-6.2a12.2,12.2,0,0,1,9-7.3c3.9-.9,6.5,2.4,5.2,6.2S595.6,684.5,591.6,684.5Z"/><path class="cls-6" d="M351.8,736.7c0,2.8-.4,5.9-3.8,6.6s-5.2-1.9-6.4-4.7a11.4,11.4,0,0,1-.4-8.7c1.1-3.1,3.9-4.1,6.5-2.3S351.8,732.9,351.8,736.7Z"/><path class="cls-6" d="M321.4,690.8c4.4.3,7.6,1.7,9.7,4.7s.9,7.2-3.4,7.6a12.3,12.3,0,0,1-9.5-3.8c-1.7-1.7-2.6-3.8-1.6-6.1S320.1,691.1,321.4,690.8Z"/><path class="cls-6" d="M368.2,684.1c.1,3-2.2,4.9-5.2,4.4s-8.4-5.4-8.9-9.7a4.3,4.3,0,0,1,5.4-4.9C363.5,674.6,368.1,680,368.2,684.1Z"/><path class="cls-6" d="M487.4,673.1c3.3-.1,4.8,1.7,4.5,4.9s-5.6,9.2-10,9.3c-2.9,0-4.6-1.9-4.4-4.9S483.1,673.2,487.4,673.1Z"/><path class="cls-6" d="M480.6,714.8c-.1,1.8-.5,4.7-3.8,5.5s-4.9-1.7-6.3-4.1a11.1,11.1,0,0,1-.8-8.7c1-3.9,4.6-4.8,7.5-2.1S480.8,710.5,480.6,714.8Z"/><path class="cls-6" d="M487.9,621.1a11.1,11.1,0,0,1-8.8-3.6c-2.7-2.8-1.8-6,1.8-7.4s9.7.3,12.3,3.5a4.2,4.2,0,0,1,.8,4.6C492.7,620.6,490.4,621.1,487.9,621.1Z"/><path class="cls-6" d="M514.3,697.9c-5.8,0-7.6-3-5.3-7a10.9,10.9,0,0,1,10.2-5.7c3.9.1,5.8,3.1,3.8,6.5S517.5,697.7,514.3,697.9Z"/><path class="cls-6" d="M348.4,651.9c3.8,0,6.7,1.8,9,4.7s1.1,6.5-2.8,7.3-9.6-2-11.4-5.3a4.7,4.7,0,0,1-.1-4.7C344.2,652,346.3,651.8,348.4,651.9Z"/><path class="cls-6" d="M274.5,661.7a11.6,11.6,0,0,1,8.8,4.2,4.7,4.7,0,0,1,1.1,5.2c-.7,1.8-2.5,2.5-4.3,2.6a12.7,12.7,0,0,1-9.2-3.5c-1.8-1.7-2.8-3.8-1.9-6.1S272.3,661.7,274.5,661.7Z"/><path class="cls-6" d="M415.8,664.9a7.7,7.7,0,0,1-4.8-1c-2.6-1.5-3-3.9-1.2-6.3s9.6-4.8,13.4-2.7,3.3,4.8.7,7.1A10.7,10.7,0,0,1,415.8,664.9Z"/><path class="cls-6" d="M243.9,623.6c.2-1.9.3-4.3,3-4.7s3.8,1.5,4.6,3.6,1,5.2-1,7.4a2.4,2.4,0,0,1-3.1.5C244.8,629,243.9,626.7,243.9,623.6Z"/><path class="cls-6" d="M516,733.2c0,2.5-.4,4.6-2.7,5.2s-3.6-1.2-4.6-3.1a7.3,7.3,0,0,1,.4-7.8,2.4,2.4,0,0,1,3.4-.6C515,728.4,515.8,730.8,516,733.2Z"/><path class="cls-6" d="M352.7,708.5c-2.1,0-3.4-.9-3.6-3s4-6.5,7.3-6.5,3.7.7,3.7,3.2S356.2,708.4,352.7,708.5Z"/><path class="cls-6" d="M339.2,755.1c2.6.4,5.3.6,5.8,4s-2.7,4.2-6.1,4.1-6.1-2.1-5.7-4.1S336.5,755.5,339.2,755.1Z"/><path class="cls-6" d="M419.7,621.1c1.3,0,2.8.7,2.8,3.2s-4.1,6.3-7.4,6.2-3.4-.9-3.6-3.1S415.6,621.1,419.7,621.1Z"/><path class="cls-6" d="M580.4,654.1a12.1,12.1,0,0,1,2.9.7c1.4.5,2.7,1.5,2.7,3.2s-1.2,2.7-2.7,3.2a9.2,9.2,0,0,1-3.3.6c-3.5,0-6.3-1.8-6-4.2S577.4,654.3,580.4,654.1Z"/><path class="cls-11" d="M492.6,644c2.7-2.8,2.7-2.8,5.8-3.9a9.1,9.1,0,0,1-5.3,4.4Z"/><path class="cls-11" d="M511.5,753.7c.1-.7.1-1.5,1-1.7a.8.8,0,0,1,.4.4c.1,1-.6,1.2-1.4,1.3Z"/><path class="cls-6" d="M493.1,644.5a4.3,4.3,0,0,1-2.4,1.8l-.4-.5,2.3-1.8Z"/><path class="cls-6" d="M486.4,633.5c0-.3-.1-.5-.1-.7s.3-.3.5-.5.3.3.2.4Z"/><path class="cls-11" d="M338.9,682.2l-1.6-.4c0-.1.1-.3.2-.3a1.3,1.3,0,0,1,1.5.6Z"/><path class="cls-6" d="M315.4,776.9c.1-.6.3-1.1,1-1.1h.3l-1.1,1.2Z"/><path class="cls-6" d="M352.5,792.9l-.8,1.5h-.8a5.9,5.9,0,0,0,.2-1.3Z"/><path class="cls-6" d="M485.2,636.2v-1.1c.8.5,0,.7-.2,1Z"/><path class="cls-6" d="M349.5,686.6c-.4,0-.9.2-.9-.5s.6-.1.9-.2Z"/><path class="cls-6" d="M351,687.4c-.7,0-1.2-.1-1.5-.8S350.8,686.5,351,687.4Z"/><path class="cls-6" d="M303.8,755.5c-.2.2-.5.5-.8.1s.3-.3.4-.5Z"/><path class="cls-6" d="M671.8,561.4c-.9,1.8-1.1,4.4-4.1,3.8s-4.9-4.8-4.5-7.9a18.7,18.7,0,0,1,.8-3.2C668.6,552.7,671.2,555.1,671.8,561.4Z"/><path class="cls-6" d="M640.3,537.5c0,2.5.7,5.5-2.8,6.4s-5.2-3.1-5.5-6.5a5.7,5.7,0,0,1,1.6-5.1C637.8,531.5,638.9,534.7,640.3,537.5Z"/><path class="cls-6" d="M696.7,593.1c-5.3-.4-7.6-4.8-5.8-11.1,3-1.6,5-.1,6.4,2.3S699.5,590.3,696.7,593.1Z"/><path class="cls-6" d="M247.6,731.4v.4a7.5,7.5,0,0,1,0,1.5c-.3,2.7-1.1,5.3-4.3,5.8s-3.3-1.5-4-3.3-.8-5.7,1.6-7.8S245.3,727.3,247.6,731.4Z"/><path class="cls-6" d="M243.1,707c-.5,2.1-1,4.4-4.2,4.5s-4.9-3.2-4.8-7,1.2-4.4,3.8-4.7S243.2,703.3,243.1,707Z"/><path class="cls-6" d="M652.6,676.8c3.5.1,5,1.9,4.4,5.4s-6.6,8.5-10.9,8.2a4.1,4.1,0,0,1-3.8-5.3C643.2,680.7,648.1,676.8,652.6,676.8Z"/><path class="cls-6" d="M651.6,657.8c.1,4.1-2.3,7.8-4.8,7.5s-3.2-2.7-3.3-5,2.1-6.8,4.6-6.7S651.4,656,651.6,657.8Z"/><path class="cls-6" d="M687.8,643.7c0-3.8,2.3-7.1,5-6.9s3.1,2.5,3.2,4.7-2.6,7.5-4.8,7.2S687.8,646.1,687.8,643.7Z"/><path class="cls-6" d="M353.3,792.1l-.8.8C352.5,792.4,352.7,792.1,353.3,792.1Z"/><path class="cls-6" d="M619.4,499.2c0,4.1-2,7.4-4.4,7.4s-3.4-2.4-3.4-4.8,2-7,4.4-7S619.3,497.4,619.4,499.2Z"/><path class="cls-12" d="M337.6,585.8c-9.6,15.4-32,24.5-51.8,28.9-14.4,3.1-22.5-.5-36.3,1.2.4,3.7,7.7,4.3,7.5,6.2-1.3,13.8-43.9,6.8-54.7,8.2,3.1,4.6,36.9,10.4,29.5,10.4-13.9,2.4-29.3-7.6-42.3-17.4a84,84,0,0,0,9,8.9c3.5,1.7,6.9,3.6,10.4,5.1a61.8,61.8,0,0,0,14.5,3.7c9.6,1.6,19.3,1.9,29,2.5l10.5-3c4.6-1.3,9.2-2.7,13.8-3.8A10.6,10.6,0,0,1,283,634c-1.1.1,1-.3,1.2-.3l2.1-.6,1-.4.6-.7c.1.2.7.1,1.8,0l.9-.3,9.7-3.1,1-.3c9.9-5.2,18.7-12.4,26.9-20.5a19.3,19.3,0,0,0,5.8-11.5C336.7,592.7,338.3,589,337.6,585.8Z"/><path class="cls-12" d="M189.5,627.1l1.7.7a26.5,26.5,0,0,1,5,3.2l2.8,2.1.7.2,3.2,1.2-3-2a48.8,48.8,0,0,1-6.9-5.9,38.6,38.6,0,0,1-5.7-7.1l-.6-.9c-4.4-7.2-6.5-15.4-10.9-22.6a97.9,97.9,0,0,0-8.3-10.9c-7.1-8.5-13.8-17.5-18.7-27.5a13.6,13.6,0,0,0-2.4-3.8,4,4,0,0,0-4-1.1c-2.2.9-2.4,3.9-2.1,6.3.7,7.7,2,15.5,5.9,22.1,2.6,4.4,6.3,8.1,10.1,11.6a116.2,116.2,0,0,0,11.4,9.4,38.9,38.9,0,0,1,7.1,5.6c2.7,2.9,4.2,6.5,6.2,9.7A52.4,52.4,0,0,0,189.5,627.1Z"/><path class="cls-14" d="M205.3,465.2l.2.2h.2v.2Z"/><path class="cls-11" d="M341.1,599c6.2-2.7,11-6.4,15.7-10.4a40.7,40.7,0,0,1-4.8,8.9c-20.2,26-40.6,27.8-52.3,31,11.5-5.4,19.3-11.6,28.5-20.7a19.9,19.9,0,0,0,5.3-8.8A9.6,9.6,0,0,0,341.1,599Z"/><path class="cls-10" d="M133.3,534.8a52.6,52.6,0,0,1,2.4-7.9,50.5,50.5,0,0,1,3.5-7l-.5,2.3,8.3.4c.2-9.4,2-21.1,6.6-35.1,13.8-42,40.6-32.3,46-29.9a6,6,0,0,0-.9,1.3,6,6,0,0,1,.9-1.3l.9.5-.9-.5.5-.7,2.5,2.9.3.2,3.4,1.8c-.2,1.2-.5,2.3-.6,3.5h-.2l-.2-.2.4.3v-.2a37.7,37.7,0,0,1,6.3,17.6,4.4,4.4,0,0,0,.8-.7c1.1-4.1.9-10.9,5.2-11,16.3,0,31.2,1.6,47.6-1.4,7.6-1.1,8,7.6,5.6,13.2,5.2-6.8,9.8-14.2,15.7-20.6a60.5,60.5,0,0,1,6.7-.8,28.3,28.3,0,0,1,4-1.7,21.8,21.8,0,0,1,4.4-1.1h.5c4.5,1.3,8.7,1.4,12.7,3.3,9.8,4.7,18.7,9,24.9,17.8,9.6,14.1,12.6,34.8,10.5,51.7-.4,3.2-1.4,6-1.1,9a49.7,49.7,0,0,0,6.5-13.8c.1.1.2.2.2.3l.3.5a3.8,3.8,0,0,1,1.3,2.1l1.2,3.3a.9.9,0,0,0,.1.5c0,.1.1.2.1.3a71.8,71.8,0,0,1,2.2,7.5,78.9,78.9,0,0,1,1.7,10.3c.1,1.9.2,4,.2,6.2s-.1,4.4-.3,6.9a71.5,71.5,0,0,1-1.1,7.5,68.2,68.2,0,0,1-2,8.1,87.3,87.3,0,0,1-3.1,8.4c-4.7,4-9.5,7.7-15.7,10.4a9.6,9.6,0,0,1-7.6,0,20.2,20.2,0,0,0,.7-5.5,4,4,0,0,0,.4-3.3c-.7-2.5-5.6.5-9.2.1a5.4,5.4,0,0,1-1.5-1.2c-.7-7.8-5.2-14.6-13.4-17.2-.8-.1-.7-3.3-2-4.2-4.7-3-10.1,2.2-14.5,4.5-6.7,2.9-12.6,5.7-19.9,5s-11.5-5.1-18.1-5.6-13.4,2.5-20.4,5.3c-10.6,4.2-21.9.7-31.9-2.9-8.2-1-15.1-5.9-21.6-11.3-3.5-3-8.3-1.5-12.2-2.9a7.9,7.9,0,0,1-2.3-.8c-5-3.6-7.8-9.8-13.7-11.8a7.1,7.1,0,0,0-8.9,4.2,27.8,27.8,0,0,0-1.9,7.4,3.2,3.2,0,0,1-1.8,1.2c-2.9.5-4.5-3.5-7.5-3.6h-.6l-.3-1.6a33.3,33.3,0,0,1-.7-5.4,21.7,21.7,0,0,1-.1-2.6v-2.5a21.1,21.1,0,0,1,.2-2.5,19.4,19.4,0,0,1,.2-2.4C132.7,537.8,133,536.3,133.3,534.8Z"/><path class="cls-10" d="M153.6,487.5c-4.6,14-6.4,25.7-6.6,35.1l-8.3-.4.5-2.3c.9-1.4,1.7-2.6,2.4-3.5a20.4,20.4,0,0,1,2.5-2.8c0-.1.1-.1.1-.2s.3-2.1.4-3.3.7-5.3,1.2-8.4a114.1,114.1,0,0,1,3.7-15.5c.6-2,1.3-3.9,2.1-5.9s1.7-3.9,2.7-5.9,2.2-3.9,3.4-5.9a55.7,55.7,0,0,1,4.3-5.6l1.2-1.4,1.2-1.3,1.4-1.2.7-.6.7-.6a29.3,29.3,0,0,1,17.3-6.9,20.7,20.7,0,0,1,8,1.2,17.6,17.6,0,0,1,6.3,3.6l1.3,1.2-.5.7C194.2,455.2,167.4,445.5,153.6,487.5Z"/><path class="cls-13" d="M145,551.4a7.1,7.1,0,0,1,8.9-4.2c5.9,2,8.7,8.2,13.7,11.8a7.9,7.9,0,0,0,2.3.8c3.9,1.4,8.7-.1,12.2,2.9,6.5,5.4,13.4,10.3,21.6,11.3,10,3.6,21.3,7.1,31.9,2.9,7-2.8,13.3-6,20.4-5.3s11.5,4.7,18.1,5.6,13.2-2.1,19.9-5c4.4-2.3,9.8-7.5,14.5-4.5,1.3.9,1.2,4.1,2,4.2,8.2,2.6,12.7,9.4,13.4,17.2a5.4,5.4,0,0,0,1.5,1.2c3.6.4,8.5-2.6,9.2-.1a10.9,10.9,0,0,1,.7,3c-9.6,15.1-28.2,22.3-45.3,26.7-12.6,3.2-13.8,4.3-26,6.1-9.6,26.2-50.7,11.7-51.9,12.9-18.9-7.3-34-26.2-41.7-45.2-14-7.7-23.2-23.3-26.5-38.8A20.4,20.4,0,0,1,145,551.4Z"/><path class="cls-11" d="M141.3,560a3.2,3.2,0,0,0,1.8-1.2,27.8,27.8,0,0,0,2.6,14.9c2.9,6.2,5.9,11.4,8.7,17.5l-4-4.3a112.1,112.1,0,0,1-7.2-9.3,72.5,72.5,0,0,1-6.9-12.1,48.7,48.7,0,0,1-2.1-5.3c-.4-1.3-.7-2.5-1-3.8h.6C136.8,556.5,138.4,560.5,141.3,560Z"/><path class="cls-14" d="M205.3,465.2l.2.2h.2v.2Z"/><path class="cls-11" d="M265.6,469.8c-16.4,3-31.3,1.4-47.6,1.4-4.3.1-4.1,6.9-5.2,11a4.4,4.4,0,0,1-.8.7,37.7,37.7,0,0,0-6.3-17.6c.1-1.2.4-2.3.6-3.5l4.9,2.7,1.9.8,3,1.2,1.5.5,1.7.6,1.7.5,1.8.6,1.9.4,1.9.4a27,27,0,0,0,4.1.7l2.1.3,2.2.2h9.1a71,71,0,0,0,12.1-1.6c3.6-.7,6.9-1.5,9.8-2.3l7.9-2.1,6.2-1.4,6.2-1h.6c-5.9,6.4-10.5,13.8-15.7,20.6C273.6,477.4,273.2,468.7,265.6,469.8Z"/><path class="cls-11" d="M350.6,531.5c2.1-16.9-.8-38.2-11.4-51.6-15.1-19.1-32.2-19.9-36.7-21.2l4.1-.5a40.8,40.8,0,0,1,18.7,3.3,54.3,54.3,0,0,1,5.9,3l1.4.9,1.3.8,1.2,1,1.3.9a53.9,53.9,0,0,1,8.2,8.4,62.2,62.2,0,0,1,5.5,9,58.3,58.3,0,0,1,3.6,8.8,66.3,66.3,0,0,1,3,15.7,70.4,70.4,0,0,1-.3,12.4,22.8,22.8,0,0,1-.6,3.9c.1.2.2.3.2.4a49.7,49.7,0,0,1-6.5,13.8C349.2,537.5,350.2,534.7,350.6,531.5Z"/><path class="cls-6" d="M169.2,593.8c.3-.1.8,1.3,1.7,3.8a70.5,70.5,0,0,0,4.6,10,61.6,61.6,0,0,0,9.6,13.2c1.1,1.2,2.3,2.3,3.4,3.4s2.4,2.2,3.8,3.2a58.8,58.8,0,0,0,8.6,5.8,70.3,70.3,0,0,0,22.4,7.9,111.2,111.2,0,0,0,16,1.6l9.2.3c1.9.1,2.8.2,2.9.5a7,7,0,0,1-2.5.5c-1.8.1-4.6.3-8.6.3h-7.1a89.2,89.2,0,0,1-9.1-1.1,68.4,68.4,0,0,1-11.2-2.6,63.9,63.9,0,0,1-12.9-5.6,62.9,62.9,0,0,1-8.9-6c-1.3-1-2.6-2.2-3.8-3.3s-2.4-2.2-3.5-3.4a67.8,67.8,0,0,1-9.8-13.7,52.6,52.6,0,0,1-4.2-10.5C169.2,595.3,169,593.8,169.2,593.8Z"/><path class="cls-6" d="M245.1,472.3a80.1,80.1,0,0,0,12.1-1.7c3.7-.8,6.9-1.6,9.8-2.4,5.7-1.6,10.2-2.8,13.6-3.6,6.8-1.6,9.4-1.8,9.4-2.2s-3.4-.6-10.6.9c-3.7.7-8.2,1.9-13.9,3.4a100.3,100.3,0,0,1-20.5,3.8,68.7,68.7,0,0,1-9.1-.1l-4.4-.4-2-.3-2.1-.4a65.8,65.8,0,0,1-13.7-4.1,96.3,96.3,0,0,1-9-4.4l-1.1-1.5a23.4,23.4,0,0,0-4.8-4.6,20.3,20.3,0,0,0-6.6-3.2,21.2,21.2,0,0,0-8-.8,29.8,29.8,0,0,0-16.6,6.5,44.9,44.9,0,0,0-9.8,10.7,61.3,61.3,0,0,0-6.3,11.8,92.9,92.9,0,0,0-5.9,21.6c-.8,4.9-1.3,9-1.6,12.3l-.3.2-1,1-.6.7-.6.8a40.6,40.6,0,0,0-6.1,10.4c-.4,1.2-.9,2.5-1.3,3.8a28.8,28.8,0,0,0-1.1,4.2,57.3,57.3,0,0,0-1.3,9.5v2.6c0,.9.1,1.8.1,2.6l.3,2.7.2,1.4.2,1.3a47.5,47.5,0,0,0,3.4,10.9,89.7,89.7,0,0,0,7.5,12.9,121.3,121.3,0,0,0,7.6,9.5,103.5,103.5,0,0,0,12.6,11.8c3.5,2.6,6,4.1,7.6,5.1s2.4,1.2,2.5,1-.6-.8-2.3-2-4.2-3.2-7.6-6a102.6,102.6,0,0,1-12.2-12,95.5,95.5,0,0,1-7.1-9.2,73.3,73.3,0,0,1-6.9-11.8,47.2,47.2,0,0,1-3.3-10.5l-.2-1.3c-.1-.4-.1-.9-.2-1.3a22.8,22.8,0,0,1-.2-2.6l-.2-2.5c0-.9.1-1.7.1-2.5a43.8,43.8,0,0,1,1.1-9.2c.2-1.4.7-2.8,1-4.1l1.2-3.7a51.1,51.1,0,0,1,5.4-10.4l.5-.8.6-.7a2.2,2.2,0,0,1,.5-.8c-.1.6-.1,1.2-.2,1.7-.3,3.6-.3,5.6-.1,5.6s.7-1.9,1.2-5.4,1.2-8.7,2.4-14.9a98.6,98.6,0,0,1,6-21.2,63.7,63.7,0,0,1,6.1-11.5,47.7,47.7,0,0,1,9.4-10.2,29.6,29.6,0,0,1,16.6-6.3,20.9,20.9,0,0,1,7.6,1.2,19.5,19.5,0,0,1,6,3.4,22.5,22.5,0,0,1,4.2,4.6c.6.8,1.1,1.7,1.6,2.4l1.3,2.4a52.5,52.5,0,0,1,3.2,8.7c1.5,5.1,2.2,8.8,2.7,11.1s.8,3.2,1,3.2.2-1.3-.1-3.9l-.3-2.2c-.1-.9-.3-1.8-.5-2.8s-.9-4.4-1.7-7.1a45.5,45.5,0,0,0-3.5-9.1L206,463c1.9,1.1,4.2,2.4,7,3.7a67.2,67.2,0,0,0,14.1,4.4l2.1.4,2.1.3,4.4.5C238.7,472.4,241.9,472.5,245.1,472.3Z"/><path class="cls-6" d="M360.8,538.8a30.4,30.4,0,0,0-1.2-3.6,14.2,14.2,0,0,1-.5-1.6l-.6-1.5a32.5,32.5,0,0,0-2.1-4.2,3,3,0,0,0-.4-.8,51.9,51.9,0,0,0,.9-6.4,68.1,68.1,0,0,0,0-12.8,53,53,0,0,0-1.2-7.5,73,73,0,0,0-2.3-8.2,58.7,58.7,0,0,0-9.5-17.1,48.7,48.7,0,0,0-18.6-14,43.1,43.1,0,0,0-18.6-3.3,32.7,32.7,0,0,0-8.9,1.7l-1.1.3-1,.5-2,.8-1.9,1-1.9,1.1A48.4,48.4,0,0,0,278,473.6c-.8.9-1.5,2-2.3,2.9l-1,1.4-1,1.5c-.6.9-1.3,1.9-1.8,2.8l-1.6,2.8a95.7,95.7,0,0,0-7.6,18.3c-1.2,4.6-1.8,7.1-1.6,7.1s1.2-2.3,2.6-6.7a124.9,124.9,0,0,1,8-17.9c.5-.9,1-1.8,1.6-2.7s1.2-1.8,1.8-2.8l1-1.4,1-1.4c.7-.9,1.4-1.9,2.2-2.8a49.6,49.6,0,0,1,11.6-10l1.8-1,1.8-.9a7.7,7.7,0,0,1,1.9-.8l1-.4,1-.4a32.8,32.8,0,0,1,8.4-1.5,39.7,39.7,0,0,1,17.8,3.1,45.3,45.3,0,0,1,10.7,6.4,55.5,55.5,0,0,1,8,8.1,60.8,60.8,0,0,1,9.1,17.4,66.9,66.9,0,0,1,2.8,27.6c-.1,1.1-.2,2-.3,3l-.4-.3c-.1.1,0,.5.2,1.2a69.4,69.4,0,0,1-2.4,10.6c-.5,1.5-.8,2.5-1,3.2s-.3,1-.2,1.1.4-.3.8-1.1.4-.8.7-1.4l.8-2.1c.3-.8.6-1.8,1-2.8s.7-2.2,1-3.6.2-1,.3-1.5.1.1.1.2l.4.9.4,1.2c.3.8.6,1.7,1,2.6a7.5,7.5,0,0,1,.5,1.6,9.8,9.8,0,0,1,.5,1.6l.6,1.9a19.4,19.4,0,0,0,.5,2,75.2,75.2,0,0,1,1.9,21.8,77.3,77.3,0,0,1-2.4,14.7,75.5,75.5,0,0,1-6.5,16.4l-.9,1.6a14,14,0,0,1-1,1.6l-.9,1.5a13,13,0,0,1-1,1.5l-2.2,2.7-1.2,1.4-1.1,1.3-1.2,1.2-1.2,1.2c-.9.8-1.6,1.6-2.5,2.3l-2.5,2.1-1.3,1-1.3.9-1.3.9-1.3.9-2.6,1.6c-1.8,1-3.5,2-5.2,2.8a84.4,84.4,0,0,1-9.8,4c-4.9,1.8-9.1,2.9-12.4,3.8a83.7,83.7,0,0,0,9.4-5.8,41.3,41.3,0,0,0,3.5-2.8c.6-.6.9-1,.8-1.1s-.7-.1-1.6.4l-1.6,1.1-2.4,1.4c-1.9,1.2-4.2,2.6-7.3,4.3a91.8,91.8,0,0,1-11.4,5.1,79,79,0,0,1-10,3l-2.4.5-1.1.3h-1.1l-2,.4-1.9.3c-4.9.6-7.9.8-7.9,1.3s3.1.7,8.1.3l1.9-.2,2.1-.3,1.2-.2,1.1-.2,2.4-.5a83.9,83.9,0,0,0,10.3-3.1l5.8-2.4,2-.3a131.7,131.7,0,0,0,15.1-3.8,87,87,0,0,0,9.9-4.1c1.8-.8,3.6-1.8,5.4-2.7l2.6-1.7,1.4-.9,1.3-.9,1.4-1,1.3-1,2.6-2.1,2.6-2.4,1.2-1.2,1.2-1.3,1.2-1.3a14.9,14.9,0,0,0,1.2-1.4c.8-.9,1.5-1.9,2.3-2.9a7.8,7.8,0,0,0,1-1.5c.3-.5.7-1,1-1.6l1-1.5.9-1.7a73.4,73.4,0,0,0,7-17.9,77.3,77.3,0,0,0,2.1-15.6A69.4,69.4,0,0,0,360.8,538.8Z"/><path class="cls-6" d="M274.3,636l-4.6,1.9a75.6,75.6,0,0,1-10.1,3l-2.3.5-1.1.3h-1.1l-2,.4-2,.3c-4.8.6-7.9.8-7.9,1.3s3.1.7,8.1.3l2-.2,2.1-.3,1.1-.2,1.2-.2,2.3-.5a80.2,80.2,0,0,0,10.4-3.1l14.9-6.1C285,633,274.5,636.6,274.3,636Z"/><path class="cls-6" d="M258.3,544.7a5.3,5.3,0,0,0-1-1.2,8.2,8.2,0,0,0-3.1-1.6,12.8,12.8,0,0,0-4-.3,16.2,16.2,0,0,0-4.6,1.1,20.6,20.6,0,0,0-6.1,3.9,22.8,22.8,0,0,0-2.2,2.2c-.6.8-1.2,1.5-1.7,2.3a6.3,6.3,0,0,0-.8,2.3,3.8,3.8,0,0,0,.3,1.9,1.5,1.5,0,0,0,.8.9c.2.2.4.2.5.1s-.2-.6-.3-1.3a7.1,7.1,0,0,1,.1-1.4,5.1,5.1,0,0,1,.8-1.7,22.8,22.8,0,0,1,9.3-7.5,12.1,12.1,0,0,1,7.8-.6,5.5,5.5,0,0,1,2.4,1.3,4.7,4.7,0,0,1,1,1.6,4.3,4.3,0,0,1,.1,2.5c-.1.5-.2.7,0,.9s.5,0,1-.6a4.5,4.5,0,0,0,.3-3.6A3.4,3.4,0,0,0,258.3,544.7Z"/><path class="cls-6" d="M215.2,538.7a12.9,12.9,0,0,0-5.5-3.4,7.9,7.9,0,0,0-2.9-.6,4.9,4.9,0,0,0-2.7.5,4.1,4.1,0,0,0-2.3,3.1c0,1,.3,1.5.5,1.4s.3-.5.6-1.1a3.2,3.2,0,0,1,1.9-1.9c1-.5,2.6-.3,4.3.3a10.8,10.8,0,0,1,4.8,3,13,13,0,0,1,3.3,6.2,11.9,11.9,0,0,1,.2,2.5,10.3,10.3,0,0,1-.2,2,6,6,0,0,1-.6,2.3c-.2.5-.2.7-.1.8s.5.2,1-.3a5.6,5.6,0,0,0,1.3-2.8,13,13,0,0,0,.3-2.2,10.6,10.6,0,0,0-.2-3A15.4,15.4,0,0,0,215.2,538.7Z"/><path class="cls-6" d="M248.9,555.5c3.3-1.6,5.2-4.3,4.3-6.1s-4.4-1.8-7.6-.2-5.2,4.4-4.3,6.1S245.6,557.2,248.9,555.5Z"/><path class="cls-6" d="M207,548.9c2.2,2.8,5,4.2,6.4,3.2s.7-4.2-1.5-7-5-4.2-6.4-3.1S204.8,546.2,207,548.9Z"/><path class="cls-6" d="M351,541.3c.6-1.3,1-3.1,2.3-3.5,3.2-1.1,6.9,5.6,8.2,9.2a13.8,13.8,0,0,1-.3-3.5l-.6-3.6a58.8,58.8,0,0,0-1.6-7l-1.2-3.3c-.3-.8-.6-1.8-1.4-2.2s-1.2.3-1.4,1.1-.9,2.6-1.3,3.9Z"/><path class="cls-6" d="M143.6,522.6c.1-1.3-4.1-.8-8.1,6.3.2-.6,5.4-11.4,6.4-12.3s2.3-3.5,2.7-3.4-.4,3.6-.4,4.1C144.1,519.3,143.7,520.7,143.6,522.6Z"/><path class="cls-6" d="M284.5,468.1a58.2,58.2,0,0,0-15.7,20.2c1.2-4.5,8.4-16,8.8-17.9s-2.3-4.4-4.1-4.5c5.3-2,15.9-4.4,21.5-4.4-4.7,1.8-12.1,6.5-15.2,10.4"/><path class="cls-6" d="M211.3,469.5a5.3,5.3,0,0,0-.8,4.1c.3,1.4,2.3,10.2,1.6,13.3a69.3,69.3,0,0,0-9.6-27.1l9.6,4.9c1.7.8,3.3,1.7,4.9,2.6s1,.3.9.5-.6.2-.8.2a6.6,6.6,0,0,0-2-.1A5.1,5.1,0,0,0,211.3,469.5Z"/><path class="cls-6" d="M218.8,498a23.4,23.4,0,0,1,1.1-9.5,19.6,19.6,0,0,1,5.9-8.8c3.5-3,8.3-4.3,12.9-4.5s9.5.9,12.2,4.5a11,11,0,0,1,2,6.4c-.1,4.2-2.1,8.1-4.1,11.8a120.7,120.7,0,0,1-8.2,13.9,51.2,51.2,0,0,1-5,6.3,38.3,38.3,0,0,1-2.9,2.8,7.6,7.6,0,0,1-2.7,2C227.6,523.6,220.6,523.7,218.8,498Z"/><path class="cls-11" d="M218.6,518.1c-.6-.9-1.3-1.6-1.9-2.4-3.6-5.4.7-13-2.5-18.6a4.1,4.1,0,0,0-2.1-1.8,3.6,3.6,0,0,0-3.3,1.4c-1.4,1.9-1.4,4.4-1.3,6.7a44.5,44.5,0,0,0,1.4,9.7,20.1,20.1,0,0,0,3.9,6.8c1.4,1.6,3.1,3.8,5.5,1.9S219.3,519.3,218.6,518.1Z"/><path class="cls-11" d="M221.5,475.4a3,3,0,0,0-1.4-1.7,2.5,2.5,0,0,0-2.6,1l-.5.7a7,7,0,0,0,.1,3.8c.3,1.4.6,4.5,2.7,3.6a5.2,5.2,0,0,0,2.8-3.9A6.6,6.6,0,0,0,221.5,475.4Z"/><path class="cls-11" d="M259,509.2c.2-1.6.1-3.3-1.1-4.2a4.2,4.2,0,0,0-4.2-.1,10.8,10.8,0,0,0-3.7,2.6,18.1,18.1,0,0,0-1.8,2.1l-7.6,10.3c-.8,1-4.3,4.6-1.9,5.5s4.7-.2,6.6-.8a27.9,27.9,0,0,0,8.4-4.7C257.1,517.2,258.6,513.3,259,509.2Z"/><path class="cls-11" d="M267.2,480.7a9.4,9.4,0,0,0,.6-8,1.7,1.7,0,0,0-.9-1.1,1.7,1.7,0,0,0-1.8.3c-1.4.8-2.2,2.3-3,3.8l-2.7,5.3a12.5,12.5,0,0,0-1.2,3,3.3,3.3,0,0,0,.8,3c1.4,1.4,3.2-.5,4.2-1.4A16.9,16.9,0,0,0,267.2,480.7Z"/><path class="cls-6" d="M151.8,527.3a10.3,10.3,0,0,1,5.7,3,4.7,4.7,0,0,1,1.3,2.4,2.5,2.5,0,0,1-1.1,2.4c-1.1.4-2.2-.2-3.4-.1s-2,.7-3.1.6a2.7,2.7,0,0,1-2.2-2.2,7.8,7.8,0,0,1,.1-3.4,4.2,4.2,0,0,1,1.1-2.2c.6-.5,1.8-.4,2,.3"/><path class="cls-11" d="M145.1,531.6a12.5,12.5,0,0,0,.1,4.3c.3,1.3.8,2.8.1,4.1s-2.4,1.6-3.9,1.7-3.9.2-4.7-1.4-.2-3.6.1-5,.7-2.5,1.1-3.6a5.9,5.9,0,0,1,4.9-3.4C144.9,528.1,145.4,529.8,145.1,531.6Z"/><path class="cls-11" d="M342.5,552a6.8,6.8,0,0,1-4.1,5.8,7.6,7.6,0,0,1-7.3-.8c-1.5-1.2-2.5-3.1-4.3-3.9s-4.3-.6-5.3-2.3-.3-2.4.3-3.5a10.2,10.2,0,0,1,6.8-4.5,14.7,14.7,0,0,1,4.7-.3h3.3c2.5.2,3.8,3,4.8,4.8A9.5,9.5,0,0,1,342.5,552Z"/><path class="cls-11" d="M333.3,567a2.9,2.9,0,0,1,3.1.2,6.1,6.1,0,0,1,1.9,2.6c.4.9.6,2.1-.2,2.7s-.8.3-1.3.4l-4.6.3c-1.3.1-3,0-3.4-1.2a2.6,2.6,0,0,1,.2-1.7,5.3,5.3,0,0,1,2.2-2.9,3.2,3.2,0,0,1,3.6.2"/><path class="cls-6" d="M350.3,581a8.5,8.5,0,0,1-3.8,2.4,4.1,4.1,0,0,1-4.1-1,4.2,4.2,0,0,1-.7-3.1c.1-2.9,1.6-5.9.7-8.7s-2.7-4.2-1.8-6.3,2.4-2.1,3.6-3.2a8.1,8.1,0,0,0,2.1-4.7c.2-1.8.1-3.8,1.2-5.3s5-2.1,6.9.1c4.6,5.1,4.2,13.6,2.2,19.7A25.4,25.4,0,0,1,350.3,581Z"/><path class="cls-15" d="M235.6,568.6l.4.3Z"/><path class="cls-16" d="M276.6,584.4a.4.4,0,0,1,.1-.3c0,.1,0,.1.1.2Z"/><path class="cls-15" d="M243.2,578.6l.4.3C243.4,578.8,243.3,578.8,243.2,578.6Z"/><path class="cls-6" d="M283.2,480.2c4.4-4.9,8.9-9.5,15.2-11.9,18-6.9,38.6,2.8,46,21.8,1.1,3,2,6.1,3,9.2a58.6,58.6,0,0,1-3.2,27.2c-3.4,5.3-6.5,10.7-11.5,14.7-9.5,7.7-20.4,9.4-32.1,7.5l-5.2-.8-2.3-.4-1.8-.5c-4.7-2.9-9.9-4.7-14.1-8.6-7.4-6.9-10.4-14.8-7.9-25a119.7,119.7,0,0,1,10.2-27.7l.5-.7.3-.7.6-.9h.1a3.2,3.2,0,0,0,1.5-2.2h0l.6-.8Zm-12,35.7c-2.6,9.3,1.6,16.2,8.4,21.7,10,8.2,22,11,34.6,9.6s25.8-12.5,28.6-24.5c6.4-14.7,1.4-34.8-11.3-45.1-15.8-12.7-35.8-10.4-47.7,6C276.8,493.2,273.2,504.3,271.2,515.9Z"/><path class="cls-17" d="M271.2,515.9c2-11.6,5.6-22.7,12.6-32.3,11.9-16.4,31.9-18.7,47.7-6,12.7,10.3,17.7,30.4,11.3,45.1a3,3,0,0,0-2,.8c-5.2,3.2-10.2,6.9-15.9,9-8.2,3-16.5,4.8-25.3,3s-16.9-5-22.7-12.5C275,520.6,274.2,517.3,271.2,515.9Z"/><path class="cls-12" d="M271.2,515.9c3,1.4,3.8,4.7,5.7,7.1,5.8,7.5,13.8,10.7,22.7,12.5s17.1,0,25.3-3c5.7-2.1,10.7-5.8,15.9-9a3,3,0,0,1,2-.8c-2.8,12-15.1,23-28.6,24.5s-24.6-1.4-34.6-9.6C272.8,532.1,268.6,525.2,271.2,515.9Z"/><path class="cls-6" d="M162.9,475c2.9-4,6-7.7,10.3-9.7,12.2-5.6,26.1,2.3,31.1,17.8.8,2.4,1.4,5,2.1,7.5a57.3,57.3,0,0,1-2.2,22.2c-2.3,4.3-4.4,8.6-7.8,11.9-6.4,6.4-13.8,7.7-21.8,6.2l-3.5-.7-1.5-.3-1.3-.5c-3.1-2.3-6.7-3.8-9.5-6.9-5-5.6-7-12.1-5.3-20.4a107.6,107.6,0,0,1,6.9-22.6l.3-.6c.1-.2.1-.4.2-.6a2.1,2.1,0,0,0,.4-.6h.1a2.4,2.4,0,0,0,1-1.8h0l.4-.6Zm-8.2,29.1c-1.7,7.6,1.1,13.2,5.7,17.7a26.8,26.8,0,0,0,23.5,7.8c9.1-1.2,17.4-10.2,19.4-20,4.3-12,.9-28.3-7.7-36.7-10.7-10.4-24.2-8.4-32.3,4.9C158.6,485.6,156.1,494.7,154.7,504.1Z"/><path class="cls-17" d="M154.7,504.1c1.4-9.4,3.9-18.5,8.6-26.3,8.1-13.3,21.6-15.3,32.3-4.9,8.6,8.4,12,24.7,7.7,36.7a2.3,2.3,0,0,0-1.4.7c-3.5,2.6-6.9,5.6-10.8,7.3-5.5,2.5-11.2,4-17.1,2.5s-11.5-4.1-15.4-10.2C157.3,508,156.8,505.3,154.7,504.1Z"/><path class="cls-18" d="M249.3,601.3c-8.2-1.6-14.4,4.3-23.4,1.2s-23,8.9-20,18.7c7.4,6.1,19.3,6.2,19.3,6.2l19.2-2.9a58.4,58.4,0,0,0,10.9-4.8C256.7,613,257.1,603.6,249.3,601.3Z"/><path class="cls-19" d="M271.2,591c-5,.7-66.3-7.8-66.3-7.8l-4.3,20.1c-1.9,8.8,1,14.3,5.3,17.9-3-9.8,10.3-23.1,20-18.7s15.2-2.8,23.4-1.2,7.4,11.7,6,18.4C276.1,608.1,275.6,590.3,271.2,591Z"/><path class="cls-12" d="M154.7,504.1c2.1,1.2,2.6,3.9,3.9,5.8,3.9,6.1,9.3,8.8,15.4,10.2s11.6,0,17.1-2.5c3.9-1.7,7.3-4.7,10.8-7.3a2.3,2.3,0,0,1,1.4-.7c-2,9.8-10.3,18.8-19.4,20a26.8,26.8,0,0,1-23.5-7.8C155.8,517.3,153,511.7,154.7,504.1Z"/><path class="cls-6" d="M302.8,558.8a30.7,30.7,0,0,1,6.5,2.5c-3.4,1.6-7,3.1-9.8,5.3a62.6,62.6,0,0,0-5.7,4.5c-9.9,10.4-27,13.1-45.9,14.1-17.4.8-35.3-1.5-52.6-10-7.1-3.5-14-7.1-20.9-10.2-1.5-.7-21.9-12-23.3-12.5s21.2,14.5,26.1,18.1c8.9,6.6,13.4,14.8,14.2,22.2a67.1,67.1,0,0,0,3.7,14.3c5.1,14.1,14.8,21,30,21.3,28.4.6,46.1-13.1,56.1-38.8,7.5-7.1,10-8.7,14.8-14.9a39.8,39.8,0,0,1,6.7-6.9c7.7-6.3,11.1-5.4,16.7-.5C316,561.9,310.7,559.2,302.8,558.8Zm-31.6,39.5c-.7,5.7-4.4,9.6-8.3,13.4a51.5,51.5,0,0,1-35,14.6c-6.9.2-14-.3-20.8-5.1-1.8-1.2-3.4-2.5-3.7-4.5-1.6-9.6,8.6-25.4,25.4-24.3a16.1,16.1,0,0,1,4.8,1.2,4.8,4.8,0,0,0,2.9.2c10.4-3.6,21.8-2.3,34.6,4.5.1-.1.1-.2.2-.2S271.2,598.2,271.2,598.3Z"/><path class="cls-20" d="M326,509.9c-2,19.1-11.7,33.6-21.5,32.5s-16.2-17.2-14.3-36.1,11.4-33.8,21.3-32.9S328,490.6,326,509.9Z"/><path class="cls-21" d="M305.5,486.2c-.3,4.7-3.7,8.4-7.5,8.3s-6.6-3.9-6.2-8.6,3.6-8.4,7.4-8.3S305.8,481.5,305.5,486.2Z"/><path class="cls-21" d="M320.7,527a4.3,4.3,0,0,1-4.2,4,3.8,3.8,0,0,1-3.5-4.2,4.2,4.2,0,0,1,4.2-4A3.8,3.8,0,0,1,320.7,527Z"/><path class="cls-22" d="M312.3,478.2a109.6,109.6,0,0,1,.6,15.1c-.1,5-.4,9.9-.9,14.9a146.2,146.2,0,0,1-2,14.8,92.5,92.5,0,0,1-3.5,14.7,109,109,0,0,1-.6-15.1c.1-5,.4-9.9.9-14.9s1.1-9.9,2-14.8A120.9,120.9,0,0,1,312.3,478.2Z"/><path class="cls-20" d="M195.6,501.8c-1.4,14.1-8.5,24.7-15.8,23.9S168,513,169.4,499.2s8.3-24.8,15.6-24.2S197.1,487.7,195.6,501.8Z"/><path class="cls-21" d="M180.6,484.4c-.3,3.5-2.7,6.2-5.5,6.1s-4.8-2.9-4.6-6.3,2.7-6.2,5.5-6.1S180.8,481,180.6,484.4Z"/><path class="cls-21" d="M191.7,514.4a3,3,0,0,1-3,2.9,2.8,2.8,0,0,1-2.6-3.1,3.2,3.2,0,0,1,3.1-2.9A2.8,2.8,0,0,1,191.7,514.4Z"/><path class="cls-22" d="M185.6,478.5a83,83,0,0,1,.4,11.1c0,3.7-.3,7.3-.6,11s-.8,7.3-1.5,10.9a70.6,70.6,0,0,1-2.6,10.8,83,83,0,0,1-.4-11.1c.1-3.7.3-7.3.6-11s.9-7.3,1.5-10.9A84.7,84.7,0,0,1,185.6,478.5Z"/></g></g></svg>