<svg id="Layer_1" data-name="Layer 1" xmlns="http://www.w3.org/2000/svg" viewBox="0 0 600.6 733.5"><defs><style>.cls-1{fill:#fa0;opacity:0.5;}.cls-2{fill:#4a6d33;}</style></defs><path class="cls-1" d="M600.6,332.4V311.5q-14.9-20.5-31.7-40.1c7.9-5.6,21.6-16,31.7-29.1V182.6c-11.2-18.6-26.6-34-26.8-33.8s-29.5,31.1-31.2,62.5c-1,15.7,5.5,31.3,11.5,43.3-23.5-25.8-48.5-50.1-73.6-73.1,10.4-9.4,30.7-28.9,35.4-50.4,7.1-29.9-46.2-72.5-46.7-72.1s-25.7,34.3-23.6,65.8c1,14,7.8,27.4,14.5,38.1-20-18-39.4-35.3-57.5-52.1-4.8-13-14-32.6-28.3-45.7-23.1-21.4-72.8-11.8-72.5-11.5s21.2,35,46.3,52c16.2,10.7,35,13.6,46.9,15.1,7.8,7.2,15.6,14.5,23.9,21.8A103,103,0,0,0,395,132.3c-29.4-7.6-56.1,25.8-56,25.8s36.1,21.6,64.4,24.7c21.5,2.3,39.1-7.9,47.1-12.1,15.5,13.8,31.2,28.1,46.8,43a86.3,86.3,0,0,0-12.4-5.8c-33.7-12.6-69.4,24.6-69.2,24.5s39.2,29.3,71.8,36.4c23.9,5,45.6-4,56.1-8.2A600.3,600.3,0,0,1,600.6,332.4Zm-21-3.4c-35.3-18.7-81.3,18.6-81.1,18.5s38.1,37.9,72.8,50.4a85.4,85.4,0,0,0,29.3,4.3V344A109.5,109.5,0,0,0,579.6,329Zm21,84.5c-35.6-17.6-84.6,17.4-84.4,17.4s36.1,42,71.7,57.3a70.9,70.9,0,0,0,12.7,3.9Z"/><path class="cls-2" d="M410.6,733.5c25.7-11.7,49.6-24.9,66.1-36.1A696.6,696.6,0,0,0,582.5,730c-3,1.2-6.4,2.4-9.6,3.5h27.7V683.6c-19-43.1-38-96.9-49.4-130.2-22.1-63.1-31.2-67.4-46.4-60.7-13,7-27.1,22.4-6.5,88.6,12.3,38.9,50.9,94.2,88.3,129.7a690.8,690.8,0,0,1-103.7-29.5c-11.7-42.5-22.3-113.8-28.7-153.6-10-59.1-18.1-64.7-32.6-61.1-12.8,3.8-26.9,15.4-18.4,76.7,4.9,36.4,30.1,91.3,55.9,128.5a697.7,697.7,0,0,1-77.6-38.2c-3.7-38.2-3.3-101.6-4.5-137.4-1.8-52.9-9-59.2-22.1-58.1s-25,10.2-24.5,64.7c.4,32.6,15.5,83.8,32.5,119.4A655.4,655.4,0,0,1,286,566.9c2.5-31.8,10.9-84.7,14.1-115.3,4.2-44.9-1.5-51.5-12.6-52.2s-22,5.4-27.2,51.3c-3.3,27.7,3,72.7,12.1,104.5a655.8,655.8,0,0,1-57.3-57c5.7-25,18.3-67.4,23.4-92.5,7.4-36.5,2.9-42.9-6.1-44.6s-18.2,2.2-26.4,39.4c-4.9,22.6-4,60.2-.3,87q-19.6-23.2-37.4-47.9c7-20.4,21.1-55.3,27.2-76.2,8.7-30.3,5.2-36.3-2.2-38.6s-15.2.5-24.6,31.2c-5.8,18.9-7.9,51.2-7.2,73.8-8.3-12.1-16.2-24.6-23.7-37.3,6.6-15,19.2-41,24.7-57.2,7.9-23.1,5.2-28.2-.4-30.3s-11.6-.2-19.8,23.2c-5.1,14.4-8.2,39.3-9,56.6-5-8.7-9.7-17.4-14.3-26.3-6.1-19.9-15.1-56.1-22.4-77.1-10.8-30.1-17.3-33.8-24.2-31.7s-11.2,9.2,0,40.5c8.2,23.4,31.2,58.1,43.6,73.4,4,8.1,8,16,12.3,23.9C113,379.2,90.8,366.1,76,359.3c-24.1-10.9-29.6-8.3-31.4-1.9S45.4,371,70,381.6c17.1,7.4,46.4,12.3,62.7,13.8,7.4,13,15,25.8,23.1,38.2-20.8-9-51-24.4-70.9-32.1-32.4-12.7-39.5-9.3-41.3-.6s2.2,18.4,35.4,30.4c23.1,8.6,61.9,12.1,83.2,12.2,11.6,17,23.9,33.7,36.7,49.4-25.7-7.9-63-22.4-87.3-29.4-40.1-11.8-48.1-7.2-49.5,3.5s4.8,21.9,46,32.9c28.3,7.6,74.7,7,100.1,4.1A649.8,649.8,0,0,0,265,563.3c-32.6-5.1-80.1-16.8-110.9-22.3-51.1-9-60.4-2.5-60.3,11s9.2,27,61.8,34.5c36,5.4,92.3-2.8,122.9-11.1A681.3,681.3,0,0,0,355.4,634c-39.5.6-97.4-4.8-134.7-6.2-62.4-2.5-72.6,6.2-70.3,22.6s16.2,31.1,80.7,31.4c43.8.3,108.7-19.9,143.2-35.9a679.6,679.6,0,0,0,78.4,41.2c-44.9,7.7-111.4,11.3-154.2,15.1-65.6,5.9-80,15.7-77.9,31.3Z"/></svg>