<svg xmlns="http://www.w3.org/2000/svg" xmlns:xlink="http://www.w3.org/1999/xlink" viewBox="0 0 499.8 460.4"><defs><style>.cls-1{fill:none;}.cls-2{isolation:isolate;}.cls-3{fill:#283f19;}.cls-4{fill:#4a6d33;}.cls-5{fill:#95d67b;}.cls-6{fill:#022602;}.cls-7{fill:#0d380e;}.cls-8{mix-blend-mode:overlay;}.cls-9{clip-path:url(#clip-path);}.cls-10,.cls-11,.cls-12,.cls-13,.cls-14,.cls-15,.cls-16,.cls-17,.cls-18,.cls-19,.cls-20{fill-rule:evenodd;opacity:0.2;mix-blend-mode:screen;}.cls-10{fill:url(#linear-gradient);}.cls-11{fill:url(#linear-gradient-2);}.cls-12{fill:url(#linear-gradient-3);}.cls-13{fill:url(#linear-gradient-4);}.cls-14{fill:url(#linear-gradient-5);}.cls-15{fill:url(#linear-gradient-6);}.cls-16{fill:url(#linear-gradient-7);}.cls-17{fill:url(#linear-gradient-8);}.cls-18{fill:url(#linear-gradient-9);}.cls-19{fill:url(#linear-gradient-10);}.cls-20{fill:url(#linear-gradient-11);}</style><clipPath id="clip-path"><path class="cls-1" d="M-424.5,4280V3688.9h0V2663.2H-687.6v-24.7c0-13.7-20-25-44.3-25h-72.3c-24.4,0-44.3-11.3-44.3-25V2483.8c0-13.8-20-25-44.4-25h-68.8c-24.4,0-44.4-11.3-44.4-25.1v-26.1c0-13.7-19.9-25-44.3-25h-25.1c-24.4,0-44.3-11.2-44.3-25v-23.4c0-13.7,19.9-25,44.3-25h40.5c24.4,0,44.3-11.2,44.3-25v-43.9c0-13.7-19.9-25-44.3-25h-425.3c-24.3,0-44.3-11.2-44.3-25v-43.2c0-13.8-19.9-25-44.3-25h-145.6c-24.3,0-44.3-11.3-44.3-25v-61.6c0-13.7,20-25,44.3-25h145.6c24.4,0,44.3-11.2,44.3-25v-43.2c0-13.8,20-25,44.3-25H-1035c24.4,0,44.3-11.3,44.3-25v-43.9c0-13.8-19.9-25-44.3-25h-40.5c-24.4,0-44.3-11.3-44.3-25.1V1775c0-13.8,19.9-25,44.3-25h25.1c24.4,0,44.3-11.3,44.3-25.1v-26.1c0-13.7,20-25,44.4-25h68.8c24.4,0,44.4-11.2,44.4-25V1544.1c0-13.7,19.9-25,44.3-25h72.3c24.3,0,44.3-11.3,44.3-25v-24.7h263.1V0h-477V43.5c0,10.9-15.7,19.7-34.9,19.7H-1051c-19.2,0-35,8.9-35,19.7V117c0,10.8-15.7,19.7-34.9,19.7h-334.9c-19.2,0-34.9,8.8-34.9,19.7v34.5c0,10.9,15.7,19.7,34.9,19.7h31.9c19.2,0,34.9,8.9,34.9,19.7v18.4c0,10.9-15.7,19.7-34.9,19.7h-19.8c-19.2,0-34.9,8.9-34.9,19.7v20.6c0,10.8-15.7,19.7-34.9,19.7h-54.2c-19.2,0-34.9,8.9-34.9,19.7v82.5c0,10.8-15.7,19.7-34.9,19.7h-57c-19.2,0-34.9,8.8-34.9,19.7V584.6h-77.4V527.5c0-10.9-15.7-19.7-34.9-19.7h-73.7c-19.2,0-34.9-8.9-34.9-19.7V463.4c0-10.9-15.7-19.7-34.9-19.7h-115.6c-19.2,0-34.9,8.8-34.9,19.6s-15.7,19.5-34.9,19.5h-32.3c-19.2,0-35,8.9-35,19.7v28.2c0,10.8-15.7,19.7-34.9,19.7h-71.7v40.7h.3v749.2h-.3v1452h.3v896.6h-.3v40.7h71.7c19.2,0,34.9,8.9,34.9,19.7v28.2c0,10.8,15.8,19.7,35,19.7h32.3c19.2,0,34.9,8.8,34.9,19.6s15.7,19.5,34.9,19.5h115.6c19.2,0,34.9-8.8,34.9-19.7V3792c0-10.9,15.7-19.7,34.9-19.7h73.7c19.2,0,34.9-8.9,34.9-19.8v-63.6h77.4V3810c0,10.9,15.7,19.7,34.9,19.7h57c19.2,0,34.9,8.9,34.9,19.8v82.4c0,10.8,15.7,19.7,34.9,19.7h54.2c19.2,0,34.9,8.9,34.9,19.7v20.6c0,10.8,15.7,19.7,34.9,19.7h19.8c19.2,0,34.9,8.8,34.9,19.7v18.4c0,10.8-15.7,19.7-34.9,19.7h-31.9c-19.2,0-34.9,8.8-34.9,19.7v34.5c0,10.9,15.7,19.7,34.9,19.7h334.9c19.2,0,34.9,8.9,34.9,19.7v34.1c0,10.8,15.8,19.7,35,19.7h114.6c19.2,0,34.9,8.8,34.9,19.7V4280h.8v5.6c0,10.9,17,19.8,37.9,19.8h6.4c20.8,0,37.9,8.8,37.9,19.7v37.4c0,10.8,17,19.7,37.9,19.7H-644c20.8,0,37.9-8.9,37.9-19.7V4329c0-10.8,17-19.7,37.8-19.7h107.5c20.8,0,37.8-8.9,37.8-19.7V4280Z"/></clipPath><linearGradient id="linear-gradient" x1="279.11" y1="520.42" x2="279.11" y2="395.76" gradientUnits="userSpaceOnUse"><stop offset="0" stop-color="#684b3c"/><stop offset="1"/></linearGradient><linearGradient id="linear-gradient-2" x1="172.06" y1="523.53" x2="172.06" y2="406.09" xlink:href="#linear-gradient"/><linearGradient id="linear-gradient-3" x1="49.75" y1="425.85" x2="49.75" y2="337.88" xlink:href="#linear-gradient"/><linearGradient id="linear-gradient-4" x1="198" y1="380.48" x2="198" y2="249.07" xlink:href="#linear-gradient"/><linearGradient id="linear-gradient-5" x1="33.52" y1="303.71" x2="33.52" y2="242.95" xlink:href="#linear-gradient"/><linearGradient id="linear-gradient-6" x1="52.1" y1="222.64" x2="52.1" y2="154.37" xlink:href="#linear-gradient"/><linearGradient id="linear-gradient-7" x1="255.31" y1="242.71" x2="255.31" y2="160.02" xlink:href="#linear-gradient"/><linearGradient id="linear-gradient-8" x1="206.52" y1="196.18" x2="206.52" y2="87.84" xlink:href="#linear-gradient"/><linearGradient id="linear-gradient-9" x1="68.29" y1="140.75" x2="68.29" y2="69.77" xlink:href="#linear-gradient"/><linearGradient id="linear-gradient-10" x1="233.4" y1="36.68" x2="233.4" y2="-64.85" xlink:href="#linear-gradient"/><linearGradient id="linear-gradient-11" x1="12.15" y1="55.18" x2="12.15" y2="-67.05" xlink:href="#linear-gradient"/></defs><g class="cls-2"><g id="Layer_1" data-name="Layer 1"><path class="cls-3" d="M499.8,295.7V147.8a137.5,137.5,0,0,1-6.5,14.6c-.9,3.7-1.8,7.3-2.9,11.1C456.3,290.4,390.2,385.7,390.2,385.7S445,294,471.1,195.6c-33.1,38.1-74.4,50.6-74.4,50.6l-.2-.3C354,324.3,313,405.4,352.8,428.2,411.3,461.8,462.3,407,499.8,295.7Z"/><path class="cls-4" d="M368.5,87.4C390.5,50.3,433.7,18.6,463,0h20.4c-6.5,19.1-17.3,50.4-31.3,88.7C428.6,153.4,401.7,222,401.7,222s75.5-165.4,96-222h1.1c.3,1.3.7,2.6,1,4V147.8c-29.2,76.1-103.1,98.4-103.1,98.4S333.5,146.5,368.5,87.4Z"/><path class="cls-5" d="M264.1,364.9s31.2-.2,39.5-16.5c5-10,6-23.9,5.9-33.2a451.3,451.3,0,0,1,25.4-38.9c-2.4,7.6-4,17-1.8,26.6,5.2,21.5,28.4,43.2,28.4,43.2s23.3-29.6,14.2-49.4c-6.8-14.5-22.7-27.7-31-33.8,11.6-15.3,23.9-30.9,36.1-46.8-1.4-2.9-2.7-5.9-4.1-9.1l-1,1.4c-7.4-3.1-22.8-10-38.5-6.2-21.5,5.1-43.2,28.4-43.2,28.4s29.6,23.3,49.5,14.1a59.7,59.7,0,0,0,7.3-4.2c-8.1,10.4-16,20.7-23.4,30.9-5.8-2.5-19-8.7-32.5-5.5C277,270.2,259,289.5,259,289.5s24.6,19.4,41.1,11.8a58,58,0,0,0,12.7-8.8c-3.6,5.5-7,11.1-10.2,16.6-7,2-18,5.9-25.1,15C266.2,338.5,264.1,364.9,264.1,364.9Zm144.8-79.4s23.3-29.5,14.2-49.4a14.8,14.8,0,0,0-.8-1.3,151.8,151.8,0,0,1-25.6,11.4,298,298,0,0,1-15-28.2c-2.1,7.2-3.3,15.7-1.2,24.3C385.7,263.8,408.9,285.5,408.9,285.5Zm42.2-37.3s22.1-28.2,18.1-50.6A176.9,176.9,0,0,1,433.5,228,167.4,167.4,0,0,0,451.1,248.2Z"/><path class="cls-6" d="M359,116.9c-8.8,3.1-16.7,5.7-23.2,7.8a409.9,409.9,0,0,0-55.7,48.9c-6.6-7.6-21.1-23.5-37.2-27.5l-1.7-.3a445.2,445.2,0,0,0-23.5,40.6l-3,6.2c7.2,2.8,15.1,4.9,22.9,4.6,11.6-.4,22.7-6.2,31.1-11.4-17.4,19-33.6,39.2-48.8,59.3-7.6-7.1-23.4-20.6-39.6-22.7s-34.5,18.4-43.8,30.7c-.8,3.2-1.6,6.2-2.4,9.1a8.3,8.3,0,0,0-.4,1.5c7.7,4.2,28.4,14,46.9,11,10.2-1.7,19.6-7.6,27-13.4-11.8,16-23.2,31.6-34.4,46.1-9.2,4.4-23,12.5-31.7,24-14.1,18.5-3.6,54.4-3.4,54.2s24.3-17.9,35.1-37.8c6.7-12.5,7.6-26.6,7.9-35.5l14.3-19.1c-2.6,6-4.9,12.3-5.8,18.2-3.5,22.3,23,39.7,22.9,39.6s13.4-28.1,13.8-49.2c.2-16-8.7-28.3-12.3-33.9,9.1-12.4,18.6-25,28.5-37.5A74.2,74.2,0,0,0,239,240c-6.8,25.7,23.1,49.4,23,49.3s18.9-30.9,21.9-55.4c1.9-18.1-6.3-33.4-10.1-40.8,22.1-24.5,46.2-46.9,71.5-64.3-9.1,9.2-18.6,21-23.5,32.9-11.3,27.3,19.4,58.6,19.3,58.5S356.8,201,366.8,180C360.5,159.8,356.4,137.5,359,116.9Z"/><path class="cls-7" d="M98.1,175.6A336.9,336.9,0,0,1,264.3,24.5,377.9,377.9,0,0,1,341.6,0h-185a236.4,236.4,0,0,0-43.4,27c-66.1,58.6,7.3,39.3-3.3,64.2-8.8,21.6-83.2,65.6-97,110.7-13.2,40.6,41.4-2.6,35.9,28.4-5.3,29-18,72.9.8,79.4,16.9,5.6,27.3-55.8,40.6-63.1,10.9-7.5,12.8,40.1,29.4,44,5,1.6,9.5-10,14.1-26.7h0a10.3,10.3,0,0,1,.4-1.4c7.1-26,14.5-63.3,24.9-82,10.1-24.1,23.9,21.3,38.1,32.2A7,7,0,0,0,208,209c1.5-4.9,4.9-12.9,9.7-22.3,5.8-11.8,23.1-40.7,23.5-40.6,3.2-5,6.5-9.9,9.9-14.6,7.9-11,16.1-20.8,23.8-27.9a14.7,14.7,0,0,1,24.6,11.5c-.2,5.8.8,10.7,8.4,13.4a26.1,26.1,0,0,0,17,.1c7.6-2.6,19.6-6.4,34.1-11.4,1.3-10.6,4.1-20.7,9.5-29.8C388.6,53.5,434.3,19,463,0H380.9C239.7,17.6,136.5,121.9,98.1,175.6Z"/><g class="cls-8"><g class="cls-9"><path class="cls-10" d="M311.7,395.8c-21.8,8.7-50.4,21.1-60.4,36.6-11.5,17.7-3.7,44.8,2.5,62.3,5.1,8.4,39.2,21.8,58.8,25.7.3-41.4.5-83.5-.9-124.6Z"/><path class="cls-11" d="M182.4,442c-3.1-8.1-19.3-32.3-27.9-35.9-17,6.3-2.6,48.5.5,59.5,2.4,8.4,13.4,54.3,20.7,57.9,4.8.4,16.7-10.6,22-15.8,1.2-12.8-11.5-53.6-15.3-65.7Z"/><path class="cls-12" d="M83.2,338c-13.4-1.9-57.5,17.4-68.1,24.9-30.5,21.3-35,27.2-16.1,59.7,7.4,6.7,30.5,1.3,38-.8,12.1-3.5,27.7-9.6,38.5-16.4,6.7-4.3,35.9-23,36.3-32.3S91.5,345.7,83.2,338Z"/><path class="cls-13" d="M208.8,380.5c12.8-2.1,46.7-24.1,64.9-35.1,1.2-11.6,3.1-30.3,2.7-37.5-2.3-.9-5.4-1.7-7-2.2-8-2.5-15.8-5.1-23.5-8.3-38.3-19-57.8-50.8-102.9-48.2-11,.6-21.4,26.7-23.3,35.8-2.5,11.7,29.9,45.5,37.7,53,14.6,14.2,34,31.2,51.4,42.5Z"/><path class="cls-14" d="M6,242.9c-3.7,3.1-7.5,14.6-7.1,18.2,1.3,6.1,6.9,34.5,10.9,42.6,5.3-1.1,16.1-5.7,19.3-7,6.3-2.5,31.2-12.5,39-18.9-5.5-5.7-21-14.1-25.5-16.5C32.5,256.1,16.8,246.1,6,242.9Z"/><path class="cls-15" d="M4.8,154.4a261.8,261.8,0,0,0,12.5,29.1c12.2,10.2,60.5,39.3,75.2,39.1,3.6-4.3,8.2-11.1,6.5-16.4-4.1-13.3-39.1-26.8-51.2-32.3-14-6.3-28.4-13.4-43-19.5Z"/><path class="cls-16" d="M234.3,222.6c12.1,11.1,22.6,19.7,38.6,20.1q2.6-41.2,3.5-82.7c-17,19.1-34.3,43.7-42.1,62.6Z"/><path class="cls-17" d="M263.6,87.8c-26.7.9-66.3,4-78.4,7.6-10.6,18.9-38.4,81.2-35.6,98.7,9.1,2,20.6,3.7,28.8-.6,10.4-5.4,24-26.1,31.2-35.6,11.5-15.4,23.9-30.4,35.6-45.7,3.8-5,11.6-14.9,18.4-24.4Z"/><path class="cls-18" d="M8.2,102.2c23.2,12.8,71.4,30.5,95.2,38.5,12-15.5,22.7-41.5,24.9-59.8C93.6,54.3,44.6,81,8.2,102.2Z"/><path class="cls-19" d="M270.8-63.3c-14.1-2.5-46.8-1.4-66.9-.6-7.8,35.5-12.7,63.7-9,100.2,28.2,1.3,50-.9,77.6-7.9.9-28.1.7-56.2,0-84.4-.6-2.4-1.2-4.9-1.7-7.3Z"/><path class="cls-20" d="M21.3-63c-4.2-5.4-19-4.3-30.6-2.9C-17.7-24.8-26,13.5-27.8,55.2c28.8-8.8,52.9-20,79.9-35C45.5-10.1,33.6-34,21.3-63Z"/></g></g></g></g></svg>