<svg xmlns="http://www.w3.org/2000/svg" xmlns:xlink="http://www.w3.org/1999/xlink" viewBox="0 0 774.3 691.9"><defs><style>.cls-1{fill:none;}.cls-2{isolation:isolate;}.cls-3{fill:#283f19;}.cls-4{fill:#4a6d33;}.cls-5{fill:#95d67b;}.cls-6{fill:#022602;}.cls-7{fill:#0d380e;}.cls-8{mix-blend-mode:overlay;}.cls-9{clip-path:url(#clip-path);}.cls-10,.cls-11,.cls-12,.cls-13,.cls-14,.cls-15,.cls-16,.cls-17,.cls-18,.cls-19,.cls-20,.cls-21,.cls-22,.cls-23,.cls-24,.cls-25,.cls-26,.cls-27{fill-rule:evenodd;opacity:0.2;mix-blend-mode:screen;}.cls-10{fill:url(#linear-gradient);}.cls-11{fill:url(#linear-gradient-2);}.cls-12{fill:url(#linear-gradient-3);}.cls-13{fill:url(#linear-gradient-4);}.cls-14{fill:url(#linear-gradient-5);}.cls-15{fill:url(#linear-gradient-6);}.cls-16{fill:url(#linear-gradient-7);}.cls-17{fill:url(#linear-gradient-8);}.cls-18{fill:url(#linear-gradient-9);}.cls-19{fill:url(#linear-gradient-10);}.cls-20{fill:url(#linear-gradient-11);}.cls-21{fill:url(#linear-gradient-12);}.cls-22{fill:url(#linear-gradient-13);}.cls-23{fill:url(#linear-gradient-14);}.cls-24{fill:url(#linear-gradient-15);}.cls-25{fill:url(#linear-gradient-16);}.cls-26{fill:url(#linear-gradient-17);}.cls-27{fill:url(#linear-gradient-18);}</style><clipPath id="clip-path"><path class="cls-1" d="M-438.9,328.5V-78H-916v43.5c0,10.9-15.7,19.7-34.9,19.7h-114.6c-19.2,0-34.9,8.9-34.9,19.7V39c0,10.8-15.7,19.7-34.9,19.7h-334.9c-19.2,0-34.9,8.8-34.9,19.7v34.5c0,10.9,15.7,19.7,34.9,19.7h31.9c13.8,0,25.8,4.6,31.4,11.2h-73.2v43.6c0,10.8-15.7,19.7-34.9,19.7h-114.7c-19.2,0-34.9,8.8-34.9,19.7v34c0,10.8-15.7,19.7-34.9,19.7h-334.9c-19.2,0-34.9,8.9-34.9,19.7v34.6c0,10.8,15.7,19.7,34.9,19.7h31.9c19.2,0,34.9,8.8,34.9,19.7v18.4c0,10.8-15.7,19.7-34.9,19.7h-19.8c-19.2,0-34.9,8.8-34.9,19.7v20.5c0,10.9-15.7,19.7-34.9,19.7h-54.2c-19.2,0-34.9,8.9-34.9,19.7v82.5c0,6.7-6,12.6-15,16.1h-162.4v800.9H-438.9V328.5Z"/></clipPath><linearGradient id="linear-gradient" x1="-50.85" y1="722.06" x2="-50.85" y2="644.38" gradientUnits="userSpaceOnUse"><stop offset="0" stop-color="#684b3c"/><stop offset="1"/></linearGradient><linearGradient id="linear-gradient-2" x1="250.68" y1="661.49" x2="250.68" y2="609.49" xlink:href="#linear-gradient"/><linearGradient id="linear-gradient-3" x1="140.28" y1="700.77" x2="140.28" y2="603.34" xlink:href="#linear-gradient"/><linearGradient id="linear-gradient-4" x1="32.57" y1="654.13" x2="32.57" y2="579.52" xlink:href="#linear-gradient"/><linearGradient id="linear-gradient-5" x1="-23.89" y1="585.19" x2="-23.89" y2="498.23" xlink:href="#linear-gradient"/><linearGradient id="linear-gradient-6" x1="105.08" y1="554.62" x2="105.08" y2="428.32" xlink:href="#linear-gradient"/><linearGradient id="linear-gradient-7" x1="227.3" y1="556.71" x2="227.3" y2="392.64" xlink:href="#linear-gradient"/><linearGradient id="linear-gradient-8" x1="7.77" y1="450.35" x2="7.77" y2="347.37" xlink:href="#linear-gradient"/><linearGradient id="linear-gradient-9" x1="106.21" y1="369.22" x2="106.21" y2="273.91" xlink:href="#linear-gradient"/><linearGradient id="linear-gradient-10" x1="247.33" y1="352.31" x2="247.33" y2="264.11" xlink:href="#linear-gradient"/><linearGradient id="linear-gradient-11" x1="0.85" y1="295.82" x2="0.85" y2="220.68" xlink:href="#linear-gradient"/><linearGradient id="linear-gradient-12" x1="236.65" y1="244.3" x2="236.65" y2="179.2" xlink:href="#linear-gradient"/><linearGradient id="linear-gradient-13" x1="72.21" y1="201.04" x2="72.21" y2="131.27" xlink:href="#linear-gradient"/><linearGradient id="linear-gradient-14" x1="169.15" y1="222.42" x2="169.15" y2="115.2" xlink:href="#linear-gradient"/><linearGradient id="linear-gradient-15" x1="14.44" y1="162.4" x2="14.44" y2="91.64" xlink:href="#linear-gradient"/><linearGradient id="linear-gradient-16" x1="91.62" y1="72.79" x2="91.62" y2="-0.21" xlink:href="#linear-gradient"/><linearGradient id="linear-gradient-17" x1="244.7" y1="120.89" x2="244.7" y2="20.94" xlink:href="#linear-gradient"/><linearGradient id="linear-gradient-18" x1="227.62" y1="6.54" x2="227.62" y2="-78.07" xlink:href="#linear-gradient"/></defs><g class="cls-2"><g id="Layer_1" data-name="Layer 1"><path class="cls-3" d="M0,251.4V471.8c3-7.7,6.2-14.9,9.7-21.8,1.4-5.5,2.7-10.8,4.4-16.6,50.7-174,149.2-316,149.2-316S81.6,254,42.9,400.6c49.2-56.8,110.7-75.5,110.7-75.5s.2.5.3.5C217.2,209,278.2,88.1,219,54.1,131.8,4,55.9,85.8,0,251.4Z"/><path class="cls-4" d="M195.5,561.7c-32.7,55.2-97,102.5-140.6,130.2H24.4c9.8-28.5,25.9-75,46.7-132.2,35-96.3,75.1-198.5,75.1-198.5S33.8,607.5,3.2,691.9H1.6c-.5-2-1-3.9-1.6-6V471.8C43.6,358.4,153.6,325.1,153.6,325.1S247.7,473.7,195.5,561.7Z"/><path class="cls-5" d="M206,453.7a213.4,213.4,0,0,1,4.9,46.2,259.4,259.4,0,0,0,29.9-26A170.2,170.2,0,0,0,206,453.7ZM351.1,148.5s-46.5.2-58.8,24.4c-7.5,15-8.9,35.7-8.9,49.5-10.8,19.1-23.7,38.4-37.7,58,3.5-11.4,6-25.4,2.6-39.6-7.7-32-42.3-64.4-42.3-64.4s-34.7,44.1-21,73.7c9.9,21.6,33.7,41.1,46,50.2-17.2,22.8-35.5,46.1-53.7,69.7,2.1,4.3,4,8.8,6,13.5l1.6-2c11,4.6,34,14.8,57.3,9.3,32-7.7,64.4-42.4,64.4-42.4s-44.1-34.7-73.7-21a92.9,92.9,0,0,0-10.9,6.3c12.1-15.5,23.8-30.8,34.8-46,8.7,3.7,28.4,12.9,48.5,8.1,26.5-6.4,53.5-35.1,53.5-35.1s-36.7-28.9-61.3-17.5a80.2,80.2,0,0,0-18.9,13.1c5.4-8.3,10.4-16.6,15.1-24.7,10.5-3.1,26.9-8.8,37.5-22.3C348,187.7,351.1,148.5,351.1,148.5ZM135.4,266.6s-34.7,44-21,73.7c.3.7.7,1.3,1,1.9,22.2-12.2,38.2-17.1,38.2-17.1a433.6,433.6,0,0,1,22.4,42c3-10.7,4.8-23.3,1.7-36.1C170,298.9,135.4,266.6,135.4,266.6ZM72.7,322.3s-33,42-27.1,75.3a264.8,264.8,0,0,1,53.2-45.3A250.7,250.7,0,0,0,72.7,322.3Z"/><path class="cls-6" d="M209.8,517.8c13.1-4.6,24.8-8.5,34.5-11.7,29-20.7,56.9-45.7,83-72.8,9.8,11.3,31.4,35,55.4,41l2.5.4a664.6,664.6,0,0,0,35-60.4l4.5-9.3c-10.7-4.2-22.5-7.2-34.1-6.8-17.4.6-33.8,9.2-46.4,17,25.9-28.3,50-58.4,72.7-88.4,11.4,10.5,34.9,30.8,58.9,33.8s51.5-27.4,65.3-45.6c1.2-4.8,2.5-9.3,3.6-13.7l.6-2.1c-11.4-6.2-42.3-21-69.9-16.4-15.2,2.5-29.1,11.3-40.2,19.8,17.7-23.8,34.6-46.9,51.2-68.5,13.8-6.6,34.4-18.7,47.2-35.8,21.1-27.5,5.5-81.1,5.2-80.7s-36.3,26.6-52.3,56.2c-10.1,18.8-11.4,39.7-11.8,53-7,9.2-14.2,18.7-21.4,28.4,4-8.9,7.3-18.2,8.8-27.2,5.2-33.1-34.2-59-34.2-58.8S408,211,407.5,242.5c-.4,23.8,12.8,42.1,18.2,50.5-13.6,18.3-27.7,37.1-42.4,55.7a90.8,90.8,0,0,0,5.1-14.3c10.3-38.3-34.3-73.6-34.2-73.4s-28.1,46.1-32.5,82.6c-3,26.8,9.3,49.6,14.9,60.7-32.8,36.5-68.8,69.8-106.5,95.7,13.6-13.7,27.7-31.2,35-48.9,16.9-40.8-28.8-87.4-28.7-87.2s-23.4,28.7-38.2,59.9C207.6,453.9,213.7,487.1,209.8,517.8Z"/><path class="cls-7" d="M598.4,430.3a502,502,0,0,1-247.6,225,564.1,564.1,0,0,1-115.1,36.6H511.2a352.4,352.4,0,0,0,64.6-40.2c98.5-87.3-10.8-58.5,5-95.6,13.1-32.2,123.8-97.7,144.4-165,19.7-60.4-61.6,3.9-53.5-42.2,7.9-43.2,26.8-108.5-1.2-118.3-25.1-8.3-40.6,83.1-60.4,94.1-16.3,11.1-19.1-59.9-43.9-65.6-7.4-2.4-14,14.9-20.9,39.7h0c-.1.7-.4,1.4-.6,2.2-10.5,38.7-21.7,94.2-37.1,122-15,35.9-35.6-31.7-56.7-47.9a10.3,10.3,0,0,0-16.2,5.2c-2.1,7.4-7.3,19.3-14.5,33.6-8.6,17.5-34.3,60.5-35,60.4-4.8,7.4-9.7,14.7-14.8,21.7-11.8,16.4-24,31.1-35.5,41.6-14.4,13.2-37.4,2.4-36.6-17.1.5-11.7-2.3-21.2-29-23.1-9.1,3.3-31,10.1-59.5,20-1.9,15.7-6.2,30.8-14.3,44.3C165.6,612.2,97.7,663.6,54.9,691.9H177.2C387.5,665.6,541.2,510.3,598.4,430.3Z"/><g class="cls-8"><g class="cls-9"><path class="cls-10" d="M-73.6,644.4c-11,7-34.6,51.6-34.5,63.1,1.5,23.3,53.6,12.8,66.5,8.3,6.8-2.3,36.7-11.9,48-18-7.2-8.2-25.9-22.9-30.6-26.7-12.6-10.1-32-27-49.4-26.7Z"/><path class="cls-11" d="M277.2,619.7c-4.4-9.5-20.1-9-29.1-9.7-4.1-.3-22.1-1.5-25.5,1.1-1.6,2.6-.4,13.1-.1,15.9,3.1,22.5,4.7,36.5,30.1,34.2,4.9-.4,22.6-2.3,25.6-7.3s.1-25.8-1-34.2Z"/><path class="cls-12" d="M162.5,611c-20.9-29.7-68,34.4-67.6,60.2,9.2,7.9,33.1,18.9,42.4,22.4s34.5,11.3,43.7,4.5c15.5-11.4-12-73.1-18.5-87.1Z"/><path class="cls-13" d="M66.1,579.5c-14,.2-56.4,28-73.8,41.1,7.5,11.6,34.7,31.9,46.4,33.5,5.8-8.7,12-17.1,17.7-25.9s19.1-30,16-41.2c-.9-3.3-3.5-5.7-6.3-7.5Z"/><path class="cls-14" d="M-69.1,585.1c6,.9,20.5-5.6,24.8-7.8,19.4-9.7,38.5-24.4,54.8-38.6,21.9-19,8.8-35.3-16-39.4-10.2-1.7-21.2-2.5-27.5,7.1s-40,63.5-36.1,78.7Z"/><path class="cls-15" d="M126.6,554.2c3.4.5,9.2.9,11-1.2,6.5-7.5,0-38.4-1.7-47.3-2-10.8-12.2-67.3-21.1-77.4-9.7,4-33.6,33.8-38.8,40.4-22.8,28.6,22.1,68,44.3,83l6.3,2.5Z"/><path class="cls-16" d="M210.6,555.2c13.9,5.4,57-4.9,65.7-14.9,3.2-14.4,2.1-85.9-.9-97.1-4.7-12.1-27.2-30-37.9-36.8-18-11.3-46.6-24.6-59,.7-6.3,13,3.1,63.5,6.3,77.7,3.7,16,14.5,56.3,25.8,70.4Z"/><path class="cls-17" d="M7.9,350.6c-1.5-1.2-4.5-3.5-6.3-3.2-11.6,2.4-26.3,43.9-30.1,53.8s-12.3,35.1-.8,44,39.1,5.9,48.9,0S51.1,420.8,50.7,407c-.5-15.5-31.8-45.2-42.8-56.4Z"/><path class="cls-18" d="M105.7,275c-7.7-2.3-9.9-1-16.2,4.9S56.6,309.5,56.1,319s16.6,25,21.7,30.1c58.7,59.1,127.8-26.1,27.9-74.1Z"/><path class="cls-19" d="M275.9,347.4c8.6-11.7,5.9-46.3,4.8-58.5-.4-4.2-1-17.1-2.1-24.8-3.8,1-8.4,2.6-10.4,3.3-91.9,31-55.7,104.5,7.7,80Z"/><path class="cls-20" d="M-5.3,295.4c13.6,4.7,40.4-31.9,44.9-41.4a4.9,4.9,0,0,0,.6-2.9c-2.1-13.5-40.4-27.6-52-29.4-4.4-.7-22.3-2.8-25.4,2.3-7.7,12.5,20,59.9,31.9,71.4Z"/><path class="cls-21" d="M195.4,244.3c27.5-19.8,53.2-42.3,80.4-62.6l2.1-1.7a74.6,74.6,0,0,0-12.4-.8c-15.6.5-50.9,37.2-70.1,65.1Z"/><path class="cls-22" d="M92.2,141.3a56.3,56.3,0,0,0-.1-10c-14.7,7.6-42.3,45.3-39.9,57.7,4.9,3.8,19.9,14.3,25.1,11.6,9.7-5.2,13.7-47.3,14.9-59.3Z"/><path class="cls-23" d="M136.1,222.4c13-7.1,38-36.3,43.7-43.2,7.2-9.1,18.7-23.1,22.8-33.7,3.3-8.7-41.6-60.3-54.9-5.3-3,12.4-14.8,64.3-11.6,82.2Z"/><path class="cls-24" d="M32.7,104.6c-7-3.9-23.3-12.5-29.9-13-3.5,7.8-5.5,40.8-6,47.6-.4,4.1-1.1,15.5-.2,23.2,12.7-11,32.5-43.3,36.1-57.8Z"/><path class="cls-25" d="M153.1,56.7c-5.8-11.5-18.2-28.1-26.2-37.9C106.6-6,65.8-1.6,38.7,4.9c-6.6,3.8-11.8,30.5-7.2,36.4,9,9,20.1,15.9,31.8,20.9,18.5,7.8,40.9,11.9,61,10.2,6.8-.6,25.7-3.7,28.9-11.2a7.7,7.7,0,0,0-.1-4.5Z"/><path class="cls-26" d="M281.5,120.2c5.8-17.5,1-69.9-2.8-99.3-12,3.5-25.2,9.5-33.8,14S211.7,54,205.2,64.6c8.5,18.1,55.9,62.3,76.3,55.6Z"/><path class="cls-27" d="M259.5-78.1c-25.8,5.4-65.8,36.8-85.2,53.4-7.9,6.8,4.9,24.1,11.4,31.2,18.4-2.2,72-49.4,85.8-60.5,2.6-2,13.1-11.5,11.8-15.7-1.9-5.8-17.4-8-23.8-8.4Z"/></g></g></g></g></svg>