<svg id="Layer_1" data-name="Layer 1" xmlns="http://www.w3.org/2000/svg" viewBox="0 0 272.3 590.7"><defs><style>.cls-1{fill:#283f19;}.cls-2{fill:#31663e;}.cls-3{fill:#935d1d;}</style></defs><path class="cls-1" d="M198.9,491.4c-23.4-14.5,35.1-23.7,1-38.9C162.3,435.1,92.2,456,73,449.1c-22.4-7.8,30.7-42.6-44.4-35a196.3,196.3,0,0,0-28.6,7v67.5a296.2,296.2,0,0,1,135.3,1.9c-33.6-4.2-85.5-4.3-135.3,4.8v60.5c42.3,4.9,95.2,19.9,100.5,24.8,19.2-2.5-21.8-58.6,4.9-49,30.1,7,90.4,49.3,94.7,39,6.3-12.5-24-41.4-13.2-44s58.7,25,64.4,11.3C257.1,522.3,221,504.8,198.9,491.4Z"/><path class="cls-2" d="M0,111.6c1.8-1.3,3.6-2.6,5.2-4,23.6-22.2,8.9-63.8,8.9-63.7S8.3,47.1,0,52.2Z"/><path class="cls-2" d="M142,36.4c-15,8.8-25.1,22.7-31.2,31.5L83.9,79a97.5,97.5,0,0,0,17.7-15.2c18.2-20.6,2.8-53.7,2.8-53.7S72.5,31,58.3,52.2C47.7,68.4,48.6,86,48.6,93.8,32.8,100.4,16.5,107.1,0,113.5v10.8l27.7-10.7c3.1,11.6,10.2,34.7,25.2,46.2,20.6,16.4,76.4-10.4,76.1-10.9s-16.4-32.7-42.2-42.4c-11.5-4.3-24.7-3.7-36-2.2,22.3-9.4,44-18.5,64.8-26.7,12.2.9,31.5.7,47.6-5.8,26.4-10.6,39.3-53.4,39-53.3S165.9,22.6,142,36.4Z"/><path class="cls-3" d="M46.7,168.3C41.1,159.7,29.6,154,0,164.4v47l6.2-2.6C50.5,189.6,53.9,179.2,46.7,168.3ZM40.2,351.8C32.4,334,15.8,310,0,290.7v47.6c3.9,10,7.6,19.3,11,26.7,16.2,34.9,23.9,37.7,32.2,34.4S56.2,387.3,40.2,351.8Zm135.4-11.3c-25.2-15.7-72.5-30.4-95.3-35.5-9.8-4.4-19.6-8.8-29.4-12.9,19.8-3.8,49.6-8.1,67.8-13.1,29.4-8,32.3-14.4,28.9-21.8s-11.5-12-41.1-3.5c-20.6,5.9-50.1,23.6-65.4,34.3C27.4,282.6,13.8,277.6,0,273v8.2c13,4.2,26,8.7,38.9,13.5,5.9,18.6,15.2,52.6,23,71.7,11.1,27.4,17.4,30.2,24,27.9s10.3-8.6-.8-36.5c-6.8-17-23.5-42.8-36.4-59.5,11.2,4.5,22.1,9,33.2,13.9,20.7,13.7,56.8,40.7,79.5,54.7,32.9,20,41.5,18.6,46,11.4S209.9,361.2,175.6,340.5ZM114.5,215.9c-4.7-9.2-16.3-15.3-54.9-1.7-18.2,6.4-41,20.4-59.6,33.9v19.3c24.7-6.7,57.1-14.1,77.9-20.8C116.1,233.8,119.7,225.3,114.5,215.9Z"/></svg>