<svg xmlns="http://www.w3.org/2000/svg" xmlns:xlink="http://www.w3.org/1999/xlink" viewBox="0 0 293.3 393.5"><defs><style>.cls-1{fill:none;}.cls-2{isolation:isolate;}.cls-3{fill:#f5e24d;}.cls-4{mix-blend-mode:overlay;}.cls-5{clip-path:url(#clip-path);}.cls-10,.cls-11,.cls-12,.cls-13,.cls-14,.cls-15,.cls-16,.cls-17,.cls-6,.cls-7,.cls-8,.cls-9{fill-rule:evenodd;opacity:0.2;mix-blend-mode:screen;}.cls-6{fill:url(#linear-gradient);}.cls-7{fill:url(#linear-gradient-2);}.cls-8{fill:url(#linear-gradient-3);}.cls-9{fill:url(#linear-gradient-4);}.cls-10{fill:url(#linear-gradient-5);}.cls-11{fill:url(#linear-gradient-6);}.cls-12{fill:url(#linear-gradient-7);}.cls-13{fill:url(#linear-gradient-8);}.cls-14{fill:url(#linear-gradient-9);}.cls-15{fill:url(#linear-gradient-10);}.cls-16{fill:url(#linear-gradient-11);}.cls-17{fill:url(#linear-gradient-12);}</style><clipPath id="clip-path"><path class="cls-1" d="M-436.7,3764.3V3173.2h0V2147.5H-699.9v-24.7c0-13.7-19.9-25-44.3-25h-72.3c-24.3,0-44.3-11.3-44.3-25V1968.1c0-13.8-19.9-25-44.3-25H-974c-24.4,0-44.3-11.3-44.3-25.1v-26.1c0-13.7-20-25-44.3-25h-25.2c-24.3,0-44.3-11.2-44.3-25v-23.4c0-13.7,20-25,44.3-25h40.5c24.4,0,44.4-11.2,44.4-25v-43.9c0-13.7-20-25-44.4-25h-425.2c-24.4,0-44.4-11.3-44.4-25v-43.2c0-13.8-19.9-25-44.3-25h-145.5c-24.4,0-44.3-11.3-44.3-25.1v-61.5c0-13.7,19.9-25,44.3-25h145.5c24.4,0,44.3-11.2,44.3-25v-43.2c0-13.8,20-25,44.4-25h425.2c24.4,0,44.4-11.3,44.4-25v-43.9c0-13.8-20-25-44.4-25h-40.5c-24.3,0-44.3-11.3-44.3-25.1v-23.3c0-13.8,20-25,44.3-25h25.2c24.3,0,44.3-11.3,44.3-25.1v-26.1c0-13.7,19.9-25,44.3-25h68.9c24.4,0,44.3-11.2,44.3-25V1028.4c0-13.8,20-25,44.3-25h72.3c24.4,0,44.3-11.3,44.3-25V953.7h263.2V-515.7H-913.8v43.5c0,10.9-15.7,19.7-34.9,19.7h-114.6c-19.2,0-34.9,8.9-34.9,19.7v34.1c0,10.8-15.7,19.7-34.9,19.7H-1468c-19.2,0-34.9,8.8-34.9,19.7v34.5c0,10.9,15.7,19.7,34.9,19.7h31.9c19.2,0,34.9,8.9,34.9,19.7V-267c0,10.9-15.7,19.7-34.9,19.7h-19.8c-19.2,0-34.9,8.9-34.9,19.7V-207c0,10.8-15.7,19.7-34.9,19.7H-1580c-19.2,0-34.9,8.8-34.9,19.7v82.4c0,10.9-15.7,19.7-34.9,19.7h-56.9c-19.2,0-34.9,8.9-34.9,19.8V68.9h-77.5V11.7C-1819.1.9-1834.8-8-1854-8h-73.7c-19.2,0-34.9-8.8-34.9-19.7V-52.3c0-10.9-15.7-19.8-34.9-19.8H-2113c-19.2,0-34.9,8.9-34.9,19.6s-15.7,19.6-34.9,19.6h-32.4c-19.2,0-34.9,8.9-34.9,19.7V15c0,10.8-15.7,19.7-34.9,19.7h-71.7V75.4h.3V824.6h-.3v1452h.3v896.6h-.3v40.7h71.7c19.2,0,34.9,8.9,34.9,19.7v28.1c0,10.9,15.7,19.7,34.9,19.7h32.4c19.2,0,34.9,8.9,34.9,19.6s15.7,19.6,34.9,19.6h115.5c19.2,0,34.9-8.8,34.9-19.7v-24.7c0-10.8,15.7-19.7,34.9-19.7h73.7c19.2,0,34.9-8.8,34.9-19.7v-63.6h77.5v121.1c0,10.9,15.7,19.7,34.9,19.7h56.9c19.2,0,34.9,8.9,34.9,19.7v82.5c0,10.8,15.7,19.7,34.9,19.7h54.3c19.2,0,34.9,8.9,34.9,19.7v20.6c0,10.8,15.7,19.7,34.9,19.7h19.8c19.2,0,34.9,8.8,34.9,19.7V3534c0,10.8-15.7,19.7-34.9,19.7H-1468c-19.2,0-34.9,8.8-34.9,19.7v34.5c0,10.9,15.7,19.7,34.9,19.7h334.9c19.2,0,34.9,8.9,34.9,19.7v34.1c0,10.8,15.7,19.7,34.9,19.7h114.6c19.2,0,34.9,8.8,34.9,19.7v43.5h.8v5.6c0,10.9,17.1,19.7,37.9,19.7h6.5c20.8,0,37.8,8.9,37.8,19.7v37.5c0,10.8,17.1,19.7,37.9,19.7h136.6c20.9,0,37.9-8.9,37.9-19.7v-33.5c0-10.9,17-19.7,37.9-19.7h107.4c20.8,0,37.9-8.9,37.9-19.7v-9.6Z"/></clipPath><linearGradient id="linear-gradient" x1="266.85" y1="4.71" x2="266.85" y2="-119.95" gradientUnits="userSpaceOnUse"><stop offset="0" stop-color="#684b3c"/><stop offset="1"/></linearGradient><linearGradient id="linear-gradient-2" x1="18.61" y1="456.18" x2="18.61" y2="382.22" xlink:href="#linear-gradient"/><linearGradient id="linear-gradient-3" x1="79.74" y1="378.37" x2="79.74" y2="320.12" xlink:href="#linear-gradient"/><linearGradient id="linear-gradient-4" x1="197.28" y1="346.32" x2="197.28" y2="273.92" xlink:href="#linear-gradient"/><linearGradient id="linear-gradient-5" x1="22.5" y1="323.98" x2="22.5" y2="235" xlink:href="#linear-gradient"/><linearGradient id="linear-gradient-6" x1="243.78" y1="282.23" x2="243.78" y2="199.65" xlink:href="#linear-gradient"/><linearGradient id="linear-gradient-7" x1="187.84" y1="217.7" x2="187.84" y2="143.22" xlink:href="#linear-gradient"/><linearGradient id="linear-gradient-8" x1="72.29" y1="225.82" x2="72.29" y2="130.99" xlink:href="#linear-gradient"/><linearGradient id="linear-gradient-9" x1="40.4" y1="132.26" x2="40.4" y2="45.15" xlink:href="#linear-gradient"/><linearGradient id="linear-gradient-10" x1="215.67" y1="142.27" x2="215.67" y2="36.05" xlink:href="#linear-gradient"/><linearGradient id="linear-gradient-11" x1="46.36" y1="26.29" x2="46.36" y2="-40.38" xlink:href="#linear-gradient"/><linearGradient id="linear-gradient-12" x1="159.81" y1="7.82" x2="159.81" y2="-109.62" xlink:href="#linear-gradient"/></defs><g class="cls-2"><g id="Layer_1" data-name="Layer 1"><path class="cls-3" d="M8.1,284.4,0,281v61.2c38.5,13.6,53.5,6.2,60.9-5C70.2,323,65.8,309.5,8.1,284.4ZM56.3,36.1c-10.9-4.3-20.8-.7-42,44.8C9.9,90.6,5,102.7,0,115.6v62.1c20.5-25.1,42.2-56.4,52.4-79.5C73.2,51.9,66.4,40.5,56.3,36.1ZM270.2,63.5c-5.8-9.4-17-11.1-59.9,14.9-29.6,18.4-76.6,53.4-103.7,71.3-14.3,6.4-28.6,12.2-43.2,18.1C80.2,146,102,112.5,110.8,90.4c14.6-36.5,9.1-45,1.1-47.6s-16.8.5-31.2,36.4c-10.2,24.8-22.3,69-30,93.3C33.8,178.8,17,184.6,0,190v10.8c17.9-6,35.7-12.6,53.5-19.6,20,14,58.4,37,85.3,44.8,38.6,11,49.3,4.5,53.5-4.5s.7-18-37.6-28.5c-23.8-6.5-62.6-12.2-88.4-17.1,12.9-5.4,25.6-11.1,38.4-16.9,29.6-6.5,91.2-25.8,124.1-46.2C273.4,85.8,275.6,72.3,270.2,63.5ZM101.6,235.3C74.5,226.5,32.2,216.7,0,208.1v25.2c24.3,17.4,54,35.8,77.7,44.1,50.2,17.7,65.3,9.7,71.4-2.2S151.3,251.8,101.6,235.3Z"/><g class="cls-4"><g class="cls-5"><path class="cls-6" d="M299.5-119.9c-21.9,8.7-50.4,21-60.4,36.6-11.5,17.7-3.8,44.8,2.4,62.3,5.2,8.4,39.2,21.8,58.8,25.7.4-41.4.5-83.5-.8-124.6Z"/><path class="cls-7" d="M-2.3,382.2c-6.4,3.4-17.4,16.6-20.7,21.4C-35.5,421.7-5.6,442.5,9.1,447c9.4,2.9,39.1,12.9,48.2,7.7,5.4-3.2,5.9-16.7,5.9-21.8-.4-8.7-22.2-27.3-28.8-32.2S8.5,383.4-2.3,382.2Z"/><path class="cls-8" d="M91.5,378.4c4.1-2.1,7.7-5.1,9.6-9.6,5.1-11.7-.9-32-7-48.7-13.8,9.7-26.6,22-37.6,34.3,4,7.4,24.6,19.3,35,24Z"/><path class="cls-9" d="M164.9,339.8c15.6,3.9,60.7,7.5,86,6.3-21.3-21.2-62.9-56-77.5-67.3l-8.2-3.8c-5.3-.9-17.5-2.3-19.9,1.1-7.1,10.2,11.1,48.6,19.6,63.7Z"/><path class="cls-10" d="M6.8,324c12.4-3.7,37-36.4,51-55.8C42.1,255.3,26.2,248.8,6,240c-3.1-1.3-9.5-4.5-12.7-4.8-.9-.1-3.4-.4-4.3.1-4.6,5,.8,31.1,2.2,37.1C-5,288.2.8,303,4.8,318.5a28.9,28.9,0,0,0,2,5.5Z"/><path class="cls-11" d="M260.2,200c-2.6,1.7-3.9,3.6-6.4,6.3-4.1,4.5-32,33.4-31.7,39.2s19.6,19.9,23,22.6,11.5,9.1,18.8,14.1c0-11.5-.7-26.9-.6-32.5.1-7.8,4-42.9,1.1-50a21.3,21.3,0,0,0-4.2.3Z"/><path class="cls-12" d="M168.7,143.2c-1.3,24.8-1.5,49.6.5,74.5,3.5.4,7.7-3.2,9.4-5.2,3.9-4.7,26.6-30,29.3-36.4-2.7-4.6-16.6-15.5-19.7-18-5.7-4.3-12.4-10.3-19.5-14.9Z"/><path class="cls-13" d="M113.2,131c-22.5,13.4-66.4,44.2-84.3,59.3C47,203.5,95.3,224.6,112,225.8c6.3-15.7,2.9-69.3,1.2-94.8Z"/><path class="cls-14" d="M88.3,79.1C67.7,67.6,22,53.1-7.5,45.2c5,28,14.1,70.1,20.5,87.1,17.9-7,57.2-38.9,75.3-53.2Z"/><path class="cls-15" d="M261.5,39.1c-6.4-4.1-24.6-3.2-30.7-2.2s-15.3,3.4-21.4,7.4S169.2,67.9,168,75.7c-.6,3.6,9.8,12.5,12.1,14.3,4,3.1,7.9,6.4,11.9,9.8,17.5,15,45.2,45.3,71.3,42.3q.3-45.3-.6-90.5l-1.2-12.5Z"/><path class="cls-16" d="M100.6,26.3C82.2,1.1,51-40.8,33.9-40.4c-8.3.2-34.3.3-40.2,6.7-2.3,2.5-1.7,8.2-1,11.8C3.7-9.2,71.1,14.3,89,21.3l11.6,5Z"/><path class="cls-17" d="M170.2-73.7c-3.1-8.1-19.3-32.3-28-35.9-16.9,6.3-2.5,48.5.6,59.5,2.4,8.4,13.3,54.3,20.6,57.9,4.8.4,16.7-10.6,22-15.8,1.3-12.8-11.5-53.6-15.2-65.7Z"/></g></g></g></g></svg>