<svg xmlns="http://www.w3.org/2000/svg" xmlns:xlink="http://www.w3.org/1999/xlink" viewBox="0 0 406.3 650"><defs><style>.cls-1{fill:none;}.cls-2{isolation:isolate;}.cls-3{mix-blend-mode:overlay;}.cls-4{clip-path:url(#clip-path);}.cls-10,.cls-11,.cls-12,.cls-13,.cls-14,.cls-15,.cls-16,.cls-17,.cls-18,.cls-19,.cls-20,.cls-5,.cls-6,.cls-7,.cls-8,.cls-9{fill-rule:evenodd;opacity:0.2;mix-blend-mode:screen;}.cls-5{fill:url(#linear-gradient);}.cls-6{fill:url(#linear-gradient-2);}.cls-7{fill:url(#linear-gradient-3);}.cls-8{fill:url(#linear-gradient-4);}.cls-9{fill:url(#linear-gradient-5);}.cls-10{fill:url(#linear-gradient-6);}.cls-11{fill:url(#linear-gradient-7);}.cls-12{fill:url(#linear-gradient-8);}.cls-13{fill:url(#linear-gradient-9);}.cls-14{fill:url(#linear-gradient-10);}.cls-15{fill:url(#linear-gradient-11);}.cls-16{fill:url(#linear-gradient-12);}.cls-17{fill:url(#linear-gradient-13);}.cls-18{fill:url(#linear-gradient-14);}.cls-19{fill:url(#linear-gradient-15);}.cls-20{fill:url(#linear-gradient-16);}.cls-21{fill:#747620;}.cls-22{fill:#114211;}</style><clipPath id="clip-path"><path class="cls-1" d="M-436.7,2043.5V1452.4h0V426.7H-699.9V402c0-13.8-19.9-25-44.3-25h-72.3c-24.3,0-44.3-11.3-44.3-25.1V247.2c0-13.7-19.9-25-44.3-25H-974c-24.4,0-44.3-11.2-44.3-25V171.1c0-13.8-20-25-44.3-25h-25.2c-24.3,0-44.3-11.3-44.3-25V97.7c0-13.8,20-25,44.3-25h40.5c24.4,0,44.4-11.3,44.4-25V3.8c0-13.8-20-25-44.4-25h-425.2c-24.4,0-44.4-11.3-44.4-25V-89.5c0-13.7-19.9-25-44.3-25h-145.5c-24.4,0-44.3-11.2-44.3-25V-201c0-13.8,19.9-25,44.3-25h145.5c24.4,0,44.3-11.3,44.3-25v-43.2c0-13.8,20-25.1,44.4-25.1h425.2c24.4,0,44.4-11.2,44.4-25v-43.9c0-13.7-20-25-44.4-25h-40.5c-24.3,0-44.3-11.2-44.3-25v-23.4c0-13.7,20-25,44.3-25h25.2c24.3,0,44.3-11.2,44.3-25v-26.1c0-13.8,19.9-25,44.3-25h68.9c24.4,0,44.3-11.3,44.3-25V-692.4c0-13.8,20-25,44.3-25h72.3c24.4,0,44.3-11.3,44.3-25.1v-24.6h263.2V-2236.5H-913.8v43.5c0,10.8-15.7,19.7-34.9,19.7h-114.6c-19.2,0-34.9,8.9-34.9,19.7v34c0,10.9-15.7,19.7-34.9,19.7H-1468c-19.2,0-34.9,8.9-34.9,19.7v34.6c0,10.8,15.7,19.7,34.9,19.7h31.9c19.2,0,34.9,8.9,34.9,19.7v18.4c0,10.8-15.7,19.7-34.9,19.7h-19.8c-19.2,0-34.9,8.9-34.9,19.7v20.5c0,10.9-15.7,19.8-34.9,19.8H-1580c-19.2,0-34.9,8.8-34.9,19.7v82.4c0,10.9-15.7,19.7-34.9,19.7h-56.9c-19.2,0-34.9,8.9-34.9,19.7v114.7h-77.5v-57.2c0-10.8-15.7-19.7-34.9-19.7h-73.7c-19.2,0-34.9-8.9-34.9-19.7v-24.7c0-10.8-15.7-19.7-34.9-19.7H-2113c-19.2,0-34.9,8.8-34.9,19.6s-15.7,19.6-34.9,19.6h-32.4c-19.2,0-34.9,8.9-34.9,19.7v28.2c0,10.8-15.7,19.7-34.9,19.7h-71.7v40.6h.3v749.3h-.3v1452h.3v896.6h-.3v40.7h71.7c19.2,0,34.9,8.8,34.9,19.7v28.1c0,10.9,15.7,19.7,34.9,19.7h32.4c19.2,0,34.9,8.8,34.9,19.6s15.7,19.6,34.9,19.6h115.5c19.2,0,34.9-8.9,34.9-19.7v-24.7c0-10.8,15.7-19.7,34.9-19.7h73.7c19.2,0,34.9-8.9,34.9-19.7v-63.6h77.5v121.1c0,10.8,15.7,19.7,34.9,19.7h56.9c19.2,0,34.9,8.9,34.9,19.7v82.5c0,10.8,15.7,19.7,34.9,19.7h54.3c19.2,0,34.9,8.8,34.9,19.7v20.5c0,10.9,15.7,19.7,34.9,19.7h19.8c19.2,0,34.9,8.9,34.9,19.7v18.4c0,10.9-15.7,19.7-34.9,19.7H-1468c-19.2,0-34.9,8.9-34.9,19.7v34.6c0,10.8,15.7,19.7,34.9,19.7h334.9c19.2,0,34.9,8.9,34.9,19.7v34c0,10.9,15.7,19.7,34.9,19.7h114.6c19.2,0,34.9,8.9,34.9,19.7v43.6h.8v5.6c0,10.8,17.1,19.7,37.9,19.7h6.5c20.8,0,37.8,8.9,37.8,19.7v37.4c0,10.9,17.1,19.7,37.9,19.7h136.6c20.9,0,37.9-8.8,37.9-19.7v-33.4c0-10.9,17-19.8,37.9-19.8h107.4c20.8,0,37.9-8.8,37.9-19.7v-9.5Z"/></clipPath><linearGradient id="linear-gradient" x1="230.17" y1="600.53" x2="230.17" y2="548.54" gradientUnits="userSpaceOnUse"><stop offset="0" stop-color="#684b3c"/><stop offset="1"/></linearGradient><linearGradient id="linear-gradient-2" x1="119.77" y1="639.82" x2="119.77" y2="542.39" xlink:href="#linear-gradient"/><linearGradient id="linear-gradient-3" x1="12.06" y1="593.18" x2="12.06" y2="518.57" xlink:href="#linear-gradient"/><linearGradient id="linear-gradient-4" x1="-44.39" y1="524.24" x2="-44.39" y2="437.28" xlink:href="#linear-gradient"/><linearGradient id="linear-gradient-5" x1="84.57" y1="493.67" x2="84.57" y2="367.37" xlink:href="#linear-gradient"/><linearGradient id="linear-gradient-6" x1="206.8" y1="495.76" x2="206.8" y2="331.68" xlink:href="#linear-gradient"/><linearGradient id="linear-gradient-7" x1="-12.73" y1="389.4" x2="-12.73" y2="286.42" xlink:href="#linear-gradient"/><linearGradient id="linear-gradient-8" x1="85.7" y1="308.27" x2="85.7" y2="212.96" xlink:href="#linear-gradient"/><linearGradient id="linear-gradient-9" x1="226.82" y1="291.36" x2="226.82" y2="203.16" xlink:href="#linear-gradient"/><linearGradient id="linear-gradient-10" x1="-19.65" y1="234.87" x2="-19.65" y2="159.73" xlink:href="#linear-gradient"/><linearGradient id="linear-gradient-11" x1="216.14" y1="183.35" x2="216.14" y2="118.25" xlink:href="#linear-gradient"/><linearGradient id="linear-gradient-12" x1="51.7" y1="140.09" x2="51.7" y2="70.32" xlink:href="#linear-gradient"/><linearGradient id="linear-gradient-13" x1="148.64" y1="161.47" x2="148.64" y2="54.25" xlink:href="#linear-gradient"/><linearGradient id="linear-gradient-14" x1="-6.06" y1="101.45" x2="-6.06" y2="30.69" xlink:href="#linear-gradient"/><linearGradient id="linear-gradient-15" x1="71.12" y1="11.84" x2="71.12" y2="-61.16" xlink:href="#linear-gradient"/><linearGradient id="linear-gradient-16" x1="224.19" y1="59.94" x2="224.19" y2="-40.01" xlink:href="#linear-gradient"/></defs><g class="cls-2"><g id="Layer_1" data-name="Layer 1"><g class="cls-3"><g class="cls-4"><path class="cls-5" d="M256.7,558.8c-4.4-9.6-20.1-9.1-29.1-9.7-4.1-.3-22.1-1.5-25.5,1-1.7,2.6-.4,13.1-.1,15.9,3.1,22.6,4.7,36.6,30.1,34.3,4.9-.5,22.5-2.3,25.6-7.4s.1-25.7-1-34.1Z"/><path class="cls-6" d="M142,550.1c-20.9-29.7-68,34.4-67.6,60.2,9.2,7.9,33.1,18.8,42.4,22.3s34.5,11.3,43.7,4.5c15.5-11.3-12-73.1-18.5-87Z"/><path class="cls-7" d="M45.6,518.6c-14,.1-56.4,27.9-73.8,41,7.5,11.6,34.7,31.9,46.4,33.6,5.8-8.7,12-17.2,17.7-26s19-30,16-41.1c-.9-3.3-3.5-5.7-6.3-7.5Z"/><path class="cls-8" d="M-89.6,524.2c6,.8,20.5-5.7,24.8-7.8,19.4-9.8,38.5-24.4,54.8-38.6,21.9-19.1,8.8-35.4-16-39.5-10.2-1.7-21.2-2.5-27.5,7.1s-40,63.5-36.1,78.8Z"/><path class="cls-9" d="M106.1,493.3c3.4.5,9.2.9,11-1.3,6.5-7.4,0-38.3-1.7-47.3-2-10.8-12.2-67.3-21.1-77.3-9.7,4-33.6,33.8-38.8,40.3-22.8,28.6,22.1,68.1,44.3,83l6.3,2.6Z"/><path class="cls-10" d="M190,494.3c14,5.4,57.1-4.9,65.8-15,3.2-14.4,2.1-85.9-.9-97.1-4.7-12.1-27.2-30-37.9-36.7-18-11.4-46.6-24.7-59,.7-6.3,13,3.1,63.4,6.3,77.7,3.6,15.9,14.5,56.2,25.7,70.4Z"/><path class="cls-11" d="M-12.6,289.7c-1.5-1.3-4.5-3.6-6.3-3.2-11.6,2.3-26.3,43.9-30.1,53.8s-12.3,35.1-.8,43.9,39.1,5.9,48.8,0,31.6-24.4,31.2-38.1c-.5-15.6-31.8-45.2-42.8-56.4Z"/><path class="cls-12" d="M85.2,214.1c-7.7-2.4-9.9-1.1-16.2,4.8s-32.9,29.7-33.4,39.2S52.2,283,57.3,288.2c58.7,59,127.8-26.1,27.9-74.1Z"/><path class="cls-13" d="M255.3,286.4c8.6-11.7,6-46.2,4.9-58.5-.4-4.2-1-17-2.1-24.7-3.8,1-8.4,2.5-10.4,3.2-91.9,31.1-55.7,104.5,7.6,80Z"/><path class="cls-14" d="M-25.8,234.4c13.6,4.8,40.4-31.9,44.9-41.3a5.2,5.2,0,0,0,.6-3c-2.1-13.5-40.4-27.6-52-29.4-4.4-.7-22.3-2.7-25.4,2.4-7.7,12.5,20,59.9,31.9,71.3Z"/><path class="cls-15" d="M174.9,183.4c27.5-19.9,53.2-42.3,80.4-62.7l2.1-1.7a85.1,85.1,0,0,0-12.4-.7c-15.6.4-50.9,37.1-70.1,65.1Z"/><path class="cls-16" d="M71.7,80.3a56.4,56.4,0,0,0-.1-10C56.9,78,29.3,115.6,31.7,128.1c4.9,3.7,19.9,14.3,25.1,11.5,9.7-5.1,13.7-47.2,14.9-59.3Z"/><path class="cls-17" d="M115.6,161.5c13-7.2,38-36.3,43.7-43.3,7.2-9,18.7-23,22.8-33.7,3.3-8.7-41.6-60.2-54.9-5.2-3,12.3-14.8,64.3-11.6,82.2Z"/><path class="cls-18" d="M12.2,43.6c-7-3.8-23.3-12.5-29.9-12.9-3.5,7.7-5.5,40.7-6,47.6-.4,4-1.1,15.4-.2,23.1,12.6-11,32.5-43.3,36.1-57.8Z"/><path class="cls-19" d="M132.6-4.3c-5.8-11.5-18.2-28-26.2-37.8C86.1-67,45.3-62.6,18.2-56.1,11.5-52.2,6.4-25.6,11-19.6A99,99,0,0,0,42.8,1.2c18.5,7.9,40.9,12,61,10.3,6.8-.6,25.7-3.7,28.9-11.2a8,8,0,0,0-.1-4.6Z"/><path class="cls-20" d="M261,59.3c5.8-17.6,1-69.9-2.8-99.3-12,3.4-25.2,9.4-33.8,14S191.2-7,184.7,3.7c8.5,18,55.9,62.3,76.3,55.6Z"/></g></g><path class="cls-21" d="M406.3,448.5a105.5,105.5,0,0,0-9.1,6.5c-41.8,36-15.9,103.6-15.9,103.4s10.4-5.2,25-13.4Z"/><path class="cls-21" d="M155.8,570.7c26.5-14.4,44.2-37,55-51.3,15.6-5.8,31.4-11.7,47.6-17.9-11.6,7.3-22.9,15.7-31.4,24.6-32.1,33.4-4.9,87.2-4.9,87.1s56.4-33.8,81.4-68.3c18.7-26.2,17.1-54.8,17.1-67.5,27.8-10.7,56.6-21.5,85.7-31.9V428c-16.5,5.7-32.9,11.4-49,17.3-5.4-18.9-17.9-56.3-44.4-75-36.4-26.7-134.6,16.8-134.2,17.6s28.9,53.2,74.5,68.9c20.2,7,43.6,6.1,63.5,3.7-39.4,15.1-77.7,29.9-114.3,43.3-21.5-1.5-55.5-1.1-84,9.4-46.6,17.2-69.2,86.6-68.8,86.4S113.6,593,155.8,570.7Z"/><path class="cls-22" d="M323.8,413.6c10,13.9,30.3,23.1,82.5,6.2V343.6l-11.1,4.2C317.2,379,311.3,395.9,323.8,413.6Zm11.6-297.8c13.8,28.7,43.1,67.7,70.9,99.1V137.5c-6.8-16.1-13.4-31.2-19.4-43.2-28.6-56.7-42.1-61.2-56.8-55.8S307.2,58.1,335.4,115.8ZM96.5,134c44.5,25.4,127.9,49.4,168.1,57.7,17.4,7.1,34.5,14.2,52,20.8-35,6.3-87.5,13.3-119.7,21.4-52,13-57,23.4-51,35.4s20.3,19.4,72.4,5.7c36.4-9.6,88.5-38.4,115.5-55.8,24.1,8.8,48.2,16.9,72.5,24.4V230.2c-22.9-6.8-45.8-13.9-68.7-21.8C327.3,178.1,310.9,123.1,297,92c-19.5-44.5-30.6-49.1-42.2-45.2s-18.2,13.9,1.4,59.2c12,27.6,41.5,69.4,64.2,96.5-19.7-7.3-39-14.6-58.5-22.5-36.6-22.3-100.2-66-140.3-88.9C63.6,58.8,48.4,61,40.5,72.6S36.1,100.3,96.5,134ZM204.4,336.3c8.2,14.9,28.7,24.8,96.8,2.8,32-10.4,72.2-33.2,105.1-55V252.7c-43.5,10.8-100.8,23-137.5,33.8C201.5,307.2,195.1,321,204.4,336.3Z"/></g></g></svg>