<svg xmlns="http://www.w3.org/2000/svg" xmlns:xlink="http://www.w3.org/1999/xlink" viewBox="0 0 1028.7 972.2"><defs><style>.cls-1{fill:none;}.cls-2{isolation:isolate;}.cls-3{fill:url(#linear-gradient);}.cls-4{fill:url(#linear-gradient-2);}.cls-5{fill:url(#linear-gradient-3);}.cls-6{fill:url(#linear-gradient-4);}.cls-7{fill:url(#linear-gradient-5);}.cls-8{fill:url(#linear-gradient-6);}.cls-9{fill:#97a055;}.cls-10{fill:#95d67b;}.cls-11{fill:#5d630b;}.cls-12{fill:#585e08;}.cls-13{fill:#d5cf38;}.cls-14{fill:#68750a;}.cls-15,.cls-21,.cls-28{fill:#fff;}.cls-15{opacity:0.85;}.cls-15,.cls-21{mix-blend-mode:lighten;}.cls-16{fill:#7e7f57;}.cls-16,.cls-17,.cls-21,.cls-28,.cls-43{opacity:0.5;}.cls-16,.cls-17,.cls-43{mix-blend-mode:multiply;}.cls-17{fill:#848c18;}.cls-18{fill:#ffa900;}.cls-19{fill:#919a11;}.cls-20{fill:#8b950d;}.cls-22{fill:url(#linear-gradient-7);}.cls-23{fill:#5a6009;}.cls-24{fill:#e29000;}.cls-25{fill:#64700a;}.cls-26{fill:#525409;}.cls-27{fill:#5e924a;}.cls-29{fill:#747620;}.cls-30{fill:url(#linear-gradient-8);}.cls-31{fill:#ba68c8;}.cls-32{fill:#a658b7;}.cls-33{fill:#f4ffbe;}.cls-34{fill:url(#linear-gradient-9);}.cls-35{fill:url(#linear-gradient-10);}.cls-36{fill:url(#linear-gradient-11);}.cls-37{fill:url(#linear-gradient-12);}.cls-38{fill:url(#linear-gradient-13);}.cls-39{fill:url(#linear-gradient-14);}.cls-40{fill:url(#linear-gradient-15);}.cls-41{fill:url(#linear-gradient-16);}.cls-42{fill:url(#linear-gradient-17);}.cls-44{fill:#a6a852;}.cls-45{fill:url(#linear-gradient-18);}.cls-46{mix-blend-mode:overlay;}.cls-47{clip-path:url(#clip-path);}.cls-48{fill:#d5af38;}.cls-49,.cls-50,.cls-51,.cls-52,.cls-53,.cls-54,.cls-55,.cls-56,.cls-57,.cls-58,.cls-59,.cls-60,.cls-61,.cls-62,.cls-63,.cls-64,.cls-65,.cls-66,.cls-67,.cls-68,.cls-69,.cls-70,.cls-71,.cls-72{fill-rule:evenodd;opacity:0.2;mix-blend-mode:screen;}.cls-49{fill:url(#linear-gradient-19);}.cls-50{fill:url(#linear-gradient-20);}.cls-51{fill:url(#linear-gradient-21);}.cls-52{fill:url(#linear-gradient-22);}.cls-53{fill:url(#linear-gradient-23);}.cls-54{fill:url(#linear-gradient-24);}.cls-55{fill:url(#linear-gradient-25);}.cls-56{fill:url(#linear-gradient-26);}.cls-57{fill:url(#linear-gradient-27);}.cls-58{fill:url(#linear-gradient-28);}.cls-59{fill:url(#linear-gradient-29);}.cls-60{fill:url(#linear-gradient-30);}.cls-61{fill:url(#linear-gradient-31);}.cls-62{fill:url(#linear-gradient-32);}.cls-63{fill:url(#linear-gradient-33);}.cls-64{fill:url(#linear-gradient-34);}.cls-65{fill:url(#linear-gradient-35);}.cls-66{fill:url(#linear-gradient-36);}.cls-67{fill:url(#linear-gradient-37);}.cls-68{fill:url(#linear-gradient-38);}.cls-69{fill:url(#linear-gradient-39);}.cls-70{fill:url(#linear-gradient-40);}.cls-71{fill:url(#linear-gradient-41);}.cls-72{fill:url(#linear-gradient-42);}</style><linearGradient id="linear-gradient" x1="-2728.05" y1="-757.38" x2="-2676.46" y2="-757.38" gradientTransform="matrix(-0.91, -0.41, -0.41, 0.91, -2008.38, -175.14)" gradientUnits="userSpaceOnUse"><stop offset="0" stop-color="#545430"/><stop offset="0.11" stop-color="#5d5d39"/><stop offset="0.39" stop-color="#6f704a"/><stop offset="0.68" stop-color="#7a7b54"/><stop offset="0.99" stop-color="#7e7f57"/></linearGradient><linearGradient id="linear-gradient-2" x1="351" y1="556.7" x2="575.56" y2="556.7" gradientUnits="userSpaceOnUse"><stop offset="0" stop-color="#825a49"/><stop offset="0.3" stop-color="#7f574a"/><stop offset="0.53" stop-color="#764d4d"/><stop offset="0.74" stop-color="#663d53"/><stop offset="0.93" stop-color="#51265a"/><stop offset="1" stop-color="#461b5e"/></linearGradient><linearGradient id="linear-gradient-3" x1="-786.6" y1="-404.01" x2="176.84" y2="-404.01" gradientTransform="translate(254.3 844.6) rotate(24.3)" gradientUnits="userSpaceOnUse"><stop offset="0" stop-color="#721d00"/><stop offset="1" stop-color="#b86d00"/></linearGradient><linearGradient id="linear-gradient-4" x1="348.45" y1="432.58" x2="656.79" y2="432.58" xlink:href="#linear-gradient-2"/><linearGradient id="linear-gradient-5" x1="-528.16" y1="-244.47" x2="136.41" y2="-244.47" gradientTransform="translate(254.3 844.6) rotate(24.3)" xlink:href="#linear-gradient-2"/><linearGradient id="linear-gradient-6" x1="-2348.49" y1="-701.11" x2="-2242.58" y2="-701.11" gradientTransform="matrix(-0.83, -0.36, -0.46, 0.87, -1612.02, 125.66)" xlink:href="#linear-gradient"/><linearGradient id="linear-gradient-7" x1="-2731.77" y1="-470.7" x2="-2731.77" y2="-645.29" gradientTransform="matrix(-0.91, -0.41, -0.41, 0.91, -2008.38, -175.14)" gradientUnits="userSpaceOnUse"><stop offset="0" stop-color="#68750a"/><stop offset="0.99" stop-color="#5a6009"/></linearGradient><linearGradient id="linear-gradient-8" x1="297.8" y1="667.62" x2="479.26" y2="667.62" xlink:href="#linear-gradient-2"/><linearGradient id="linear-gradient-9" x1="-1204.21" y1="-920.77" x2="-1204.21" y2="-925.08" gradientTransform="matrix(-0.02, -1, -1, 0.02, -598.26, -630.61)" gradientUnits="userSpaceOnUse"><stop offset="0" stop-color="#d8ae85"/><stop offset="0.43" stop-color="#fadac3"/><stop offset="1" stop-color="#dab289"/></linearGradient><linearGradient id="linear-gradient-10" x1="-1271.1" y1="-652.17" x2="-1271.1" y2="-698.7" gradientTransform="matrix(-0.02, -1, -1, 0.02, -598.26, -630.61)" gradientUnits="userSpaceOnUse"><stop offset="0.01" stop-color="#6b0621"/><stop offset="0.09" stop-color="#760e28"/><stop offset="0.32" stop-color="#932139"/><stop offset="0.55" stop-color="#a73046"/><stop offset="0.78" stop-color="#b4384d"/><stop offset="1" stop-color="#b83b50"/></linearGradient><linearGradient id="linear-gradient-11" x1="-1407.88" y1="-651.86" x2="-1407.88" y2="-702.97" xlink:href="#linear-gradient-10"/><linearGradient id="linear-gradient-12" x1="-1570.98" y1="-695.2" x2="-1514.53" y2="-695.2" gradientTransform="matrix(-0.02, -1, -1, 0.02, -598.26, -630.61)" gradientUnits="userSpaceOnUse"><stop offset="0.01" stop-color="#6b0621"/><stop offset="0.04" stop-color="#6d0822"/><stop offset="0.36" stop-color="#7c1c31"/><stop offset="0.69" stop-color="#862939"/><stop offset="1" stop-color="#892d3c"/></linearGradient><linearGradient id="linear-gradient-13" x1="-1428.36" y1="-798.41" x2="-1428.36" y2="-842.4" xlink:href="#linear-gradient-12"/><linearGradient id="linear-gradient-14" x1="-1339.5" y1="-811.61" x2="-1339.5" y2="-848.73" xlink:href="#linear-gradient-12"/><linearGradient id="linear-gradient-15" x1="-1259.14" y1="-812.98" x2="-1259.14" y2="-847.03" xlink:href="#linear-gradient-12"/><linearGradient id="linear-gradient-16" x1="-1180.53" y1="-812.38" x2="-1180.53" y2="-854.38" xlink:href="#linear-gradient-12"/><linearGradient id="linear-gradient-17" x1="-1136.02" y1="-871.26" x2="-1103.59" y2="-871.26" xlink:href="#linear-gradient-12"/><linearGradient id="linear-gradient-18" x1="-1304.7" y1="-1006.27" x2="-1216.71" y2="-1006.27" gradientTransform="matrix(-0.02, -1, -1, 0.02, -598.26, -630.61)" gradientUnits="userSpaceOnUse"><stop offset="0.01" stop-color="#161e38"/><stop offset="0.49" stop-color="#434c70"/><stop offset="0.65" stop-color="#323b5b"/><stop offset="0.86" stop-color="#212946"/><stop offset="1" stop-color="#1b233e"/></linearGradient><clipPath id="clip-path"><path class="cls-1" d="M-435,3117.8v-591h0V1501H-698.1v-24.6c0-13.8-20-25.1-44.4-25.1h-72.2c-24.4,0-44.4-11.2-44.4-25V1321.6c0-13.7-19.9-25-44.3-25h-68.9c-24.3,0-44.3-11.3-44.3-25v-26.1c0-13.8-19.9-25-44.3-25H-1086c-24.4,0-44.4-11.3-44.4-25v-23.4c0-13.8,20-25,44.4-25h40.5c24.3,0,44.3-11.3,44.3-25v-43.9c0-13.8-20-25-44.3-25h-425.3c-24.4,0-44.3-11.3-44.3-25.1V984.9c0-13.7-20-25-44.3-25H-1705c-24.4,0-44.3-11.2-44.3-25V873.4c0-13.8,19.9-25,44.3-25h145.6c24.3,0,44.3-11.3,44.3-25.1V780.1c0-13.7,19.9-25,44.3-25h425.3c24.3,0,44.3-11.2,44.3-25V686.2c0-13.7-20-25-44.3-25H-1086c-24.4,0-44.4-11.3-44.4-25V612.8c0-13.7,20-25,44.4-25h25.1c24.4,0,44.3-11.3,44.3-25V536.7c0-13.8,20-25,44.3-25h68.9c24.4,0,44.3-11.3,44.3-25V382c0-13.8,20-25.1,44.4-25.1h72.2c24.4,0,44.4-11.2,44.4-25V307.2H-435V-1162.2H-912v43.6c0,10.8-15.8,19.7-35,19.7h-114.6c-19.2,0-34.9,8.8-34.9,19.7v34c0,10.8-15.7,19.7-34.9,19.7h-334.9c-19.2,0-34.9,8.9-34.9,19.7v34.6c0,10.8,15.7,19.7,34.9,19.7h31.9c19.2,0,34.9,8.8,34.9,19.7v18.4c0,10.8-15.7,19.7-34.9,19.7h-19.8c-19.2,0-34.9,8.8-34.9,19.7v20.5c0,10.9-15.7,19.7-34.9,19.7h-54.3c-19.2,0-34.9,8.9-34.9,19.7v82.5c0,10.8-15.7,19.7-34.9,19.7H-1705c-19.2,0-34.9,8.9-34.9,19.7v114.7h-77.4v-57.2c0-10.8-15.7-19.7-34.9-19.7h-73.7c-19.2,0-34.9-8.9-34.9-19.7v-24.7c0-10.8-15.8-19.7-35-19.7h-115.5c-19.2,0-34.9,8.8-34.9,19.6s-15.7,19.6-34.9,19.6h-32.4c-19.2,0-34.9,8.9-34.9,19.7v28.1c0,10.9-15.7,19.8-34.9,19.8H-2355v40.6h.3V178.1h-.3v1452h.3v896.7h-.3v40.6h71.7c19.2,0,34.9,8.9,34.9,19.7v28.2c0,10.8,15.7,19.7,34.9,19.7h32.4c19.2,0,34.9,8.8,34.9,19.6s15.7,19.6,34.9,19.6h115.5c19.2,0,35-8.9,35-19.7v-24.7c0-10.8,15.7-19.7,34.9-19.7h73.7c19.2,0,34.9-8.9,34.9-19.7v-63.6h77.5v121.1c0,10.8,15.7,19.7,34.9,19.7h56.9c19.2,0,34.9,8.9,34.9,19.7v82.5c0,10.8,15.7,19.7,34.9,19.7h54.3c19.2,0,34.9,8.8,34.9,19.7v20.5c0,10.8,15.7,19.7,34.9,19.7h19.8c19.2,0,34.9,8.9,34.9,19.7v18.4c0,10.9-15.7,19.7-34.9,19.7h-31.9c-19.2,0-34.9,8.9-34.9,19.7v34.6c0,10.8,15.7,19.7,34.9,19.7h334.9c19.2,0,34.9,8.9,34.9,19.7v34c0,10.9,15.7,19.7,34.9,19.7H-947c19.2,0,35,8.9,35,19.7v43.5h.7v5.7c0,10.8,17.1,19.7,37.9,19.7h6.5c20.8,0,37.9,8.9,37.9,19.7v37.4c0,10.9,17,19.7,37.8,19.7h136.7c20.8,0,37.8-8.8,37.8-19.7v-33.5c0-10.8,17.1-19.7,37.9-19.7h107.4c20.9,0,37.9-8.8,37.9-19.7v-9.6Z"/></clipPath><linearGradient id="linear-gradient-19" x1="-958.22" y1="-1324.85" x2="-958.22" y2="-1468.55" gradientTransform="translate(-24.1 2457.2) rotate(44.5)" gradientUnits="userSpaceOnUse"><stop offset="0" stop-color="#684b3c"/><stop offset="1"/></linearGradient><linearGradient id="linear-gradient-20" x1="208.84" y1="1019.97" x2="208.84" y2="935.36" gradientTransform="matrix(1, 0, 0, 1, 0, 0)" xlink:href="#linear-gradient-19"/><linearGradient id="linear-gradient-21" x1="158.49" y1="929.27" x2="158.49" y2="900.69" gradientTransform="matrix(1, 0, 0, 1, 0, 0)" xlink:href="#linear-gradient-19"/><linearGradient id="linear-gradient-22" x1="45.16" y1="962.93" x2="45.16" y2="880.8" gradientTransform="matrix(1, 0, 0, 1, 0, 0)" xlink:href="#linear-gradient-19"/><linearGradient id="linear-gradient-23" x1="5.96" y1="882.22" x2="5.96" y2="809.7" gradientTransform="matrix(1, 0, 0, 1, 0, 0)" xlink:href="#linear-gradient-19"/><linearGradient id="linear-gradient-24" x1="154.01" y1="849.77" x2="154.01" y2="774.31" gradientTransform="matrix(1, 0, 0, 1, 0, 0)" xlink:href="#linear-gradient-19"/><linearGradient id="linear-gradient-25" x1="45.56" y1="801.89" x2="45.56" y2="701.56" gradientTransform="matrix(1, 0, 0, 1, 0, 0)" xlink:href="#linear-gradient-19"/><linearGradient id="linear-gradient-26" x1="135.85" y1="734.55" x2="135.85" y2="655.23" gradientTransform="matrix(1, 0, 0, 1, 0, 0)" xlink:href="#linear-gradient-19"/><linearGradient id="linear-gradient-27" x1="2.53" y1="708.61" x2="2.53" y2="614.62" gradientTransform="matrix(1, 0, 0, 1, 0, 0)" xlink:href="#linear-gradient-19"/><linearGradient id="linear-gradient-28" x1="96.75" y1="638.65" x2="96.75" y2="550.78" gradientTransform="matrix(1, 0, 0, 1, 0, 0)" xlink:href="#linear-gradient-19"/><linearGradient id="linear-gradient-29" x1="-43.04" y1="564.4" x2="-43.04" y2="486.87" gradientTransform="matrix(1, 0, 0, 1, 0, 0)" xlink:href="#linear-gradient-19"/><linearGradient id="linear-gradient-30" x1="213.2" y1="565.95" x2="213.2" y2="477.59" gradientTransform="matrix(1, 0, 0, 1, 0, 0)" xlink:href="#linear-gradient-19"/><linearGradient id="linear-gradient-31" x1="-8.73" y1="494.95" x2="-8.73" y2="429.59" gradientTransform="matrix(1, 0, 0, 1, 0, 0)" xlink:href="#linear-gradient-19"/><linearGradient id="linear-gradient-32" x1="123.9" y1="500.4" x2="123.9" y2="420.32" gradientTransform="matrix(1, 0, 0, 1, 0, 0)" xlink:href="#linear-gradient-19"/><linearGradient id="linear-gradient-33" x1="42.61" y1="396.46" x2="42.61" y2="320.27" gradientTransform="matrix(1, 0, 0, 1, 0, 0)" xlink:href="#linear-gradient-19"/><linearGradient id="linear-gradient-34" x1="-12.1" y1="330.1" x2="-12.1" y2="246.02" gradientTransform="matrix(1, 0, 0, 1, 0, 0)" xlink:href="#linear-gradient-19"/><linearGradient id="linear-gradient-35" x1="210.27" y1="423.73" x2="210.27" y2="227.07" gradientTransform="matrix(1, 0, 0, 1, 0, 0)" xlink:href="#linear-gradient-19"/><linearGradient id="linear-gradient-36" x1="110.65" y1="271.22" x2="110.65" y2="175.57" gradientTransform="matrix(1, 0, 0, 1, 0, 0)" xlink:href="#linear-gradient-19"/><linearGradient id="linear-gradient-37" x1="223.8" y1="688.91" x2="223.8" y2="593.26" gradientTransform="matrix(1, 0, 0, 1, 0, 0)" xlink:href="#linear-gradient-19"/><linearGradient id="linear-gradient-38" x1="232.12" y1="176.29" x2="232.12" y2="103.08" gradientTransform="matrix(1, 0, 0, 1, 0, 0)" xlink:href="#linear-gradient-19"/><linearGradient id="linear-gradient-39" x1="11.64" y1="199.61" x2="11.64" y2="108.11" gradientTransform="matrix(1, 0, 0, 1, 0, 0)" xlink:href="#linear-gradient-19"/><linearGradient id="linear-gradient-40" x1="137.2" y1="127.43" x2="137.2" y2="59.27" gradientTransform="matrix(1, 0, 0, 1, 0, 0)" xlink:href="#linear-gradient-19"/><linearGradient id="linear-gradient-41" x1="80.84" y1="47.01" x2="80.84" y2="-11.12" gradientTransform="matrix(1, 0, 0, 1, 0, 0)" xlink:href="#linear-gradient-19"/><linearGradient id="linear-gradient-42" x1="220.29" y1="47.8" x2="220.29" y2="-85.67" gradientTransform="matrix(1, 0, 0, 1, 0, 0)" xlink:href="#linear-gradient-19"/></defs><g class="cls-2"><g id="Layer_1" data-name="Layer 1"><path class="cls-3" d="M728.4,304.9s26.7-51.5,36.4-55.8,41.1-29.3,41.1-29.3l9.5-30.6s-17.6,23.4-21,27.1-60.3,37.2-60.3,37.2Z"/><path class="cls-4" d="M351.9,514.4s43.8,11.1,59.5,23.9,58.6,33.4,76.4,33.9,48.4-9.5,79.4,13.1l8.4,13.7a47.8,47.8,0,0,0-23.9-16.6c-15.8-4.8-39.8-5.7-58.7-3.8S397.1,547,370.8,536.9,351.9,514.4,351.9,514.4Z"/><path class="cls-5" d="M642.6,364.9l-17.8-21-17.9-21.2-10.2-16.5S559.4,323.6,511,345c-74.5,33-175.6,75.7-206.7,78.7-51.2,4.9-75.2,8.4-98.8,14.8-19,5.2-40,8.4-62.1,10.1-25.1,2.1-51.6,2.1-78.5.9-21-.9-42.2-2.6-63-4.8,0,9.2.1,18.3.2,27.4q.1,32.7.4,65.4c16.3,2.8,39.8,3,66.4,1.9s54.7-3.1,82.4-5.4c50.2-4.1,96.8-8.2,117.3-5.1,1.7.2,3.5.6,5.4,1a154.1,154.1,0,0,1,15.3,4.9c61.8,22.9,190.2,100.7,190.2,100.7l25.1-14.3s-180.4-107-163.1-124.8c10.2-10.5,116.4-47.9,202.7-77.2,40.3-13.6,76.3-25.4,96.2-32.1l16.4-5.3Z"/><path class="cls-6" d="M349.8,491.2c-1.7-3.2-1.9-5.8-.2-7.5,15.1-15.5,240.5-90.1,300.5-109.8l6.7,7.9S401.2,464.8,349.8,491.2Z"/><path class="cls-7" d="M497.7,617l-10.2,5.8s-164.9-100-210.8-106.7S55.4,538,2.4,522.9c0,4.9,0,9.7.1,14.5,60.8,10.7,222.7-14.9,266.1-8.6a85.2,85.2,0,0,1,15.4,4.1c3.3,1.1,6.9,2.4,10.6,3.9,63.5,25.1,184.9,98.7,184.9,98.7l25.1-14.3Z"/><path class="cls-8" d="M592.4,306.4c-4.9,4.2,6.2,24.8,24.8,46s37.5,34.9,42.4,30.7-6.3-24.9-24.8-46.1S597.3,302.1,592.4,306.4Z"/><path class="cls-9" d="M598.8,313.7c-2.9,2.5,6.7,18.3,21.5,35.2s29.1,28.5,32.1,26-6.7-18.4-21.5-35.3S601.7,311.1,598.8,313.7Z"/><path class="cls-10" d="M858,190.4c-.2.3.4,1.2,1.4,2.4,4.4,5,18.6,16.2,38.2,15.8,23.3-.4,54.2-17.1,85-80.2C982.6,128.4,900.9,77.9,858,190.4Z"/><path class="cls-11" d="M858.4,190.7l-.4-.2c36-94.4,99.3-74.1,118.7-65.1C950.6,115.5,892.2,105.2,858.4,190.7Z"/><path class="cls-12" d="M959.6,154.7c-42.9,39.6-89.6,38.4-99.7,36.4C879,192,920.6,188.1,959.6,154.7Z"/><path class="cls-13" d="M778.1,171.1a221.5,221.5,0,0,0,14,30.3c1.2,2.3,64.2-4.4,68.5-73,1.5-23.8-4.1-55.1-21.9-96.2C838.7,32.2,740.2,67,778.1,171.1Z"/><path class="cls-14" d="M792.6,201.1l-.5.3C732.8,94.2,805.8,47.8,830.8,35.6,799.2,53.6,739.9,103,792.6,201.1Z"/><path class="cls-15" d="M830.7,54.1c-2.3-.5-4.9,2.9-5.8,7.5s.2,8.7,2.5,9.2,4.9-2.9,5.8-7.5S833,54.5,830.7,54.1Z"/><path class="cls-15" d="M811.4,65.1c-1.4-.3-3.1,1.9-3.7,4.8s.1,5.5,1.6,5.8,3.1-1.8,3.7-4.7S812.9,65.4,811.4,65.1Z"/><path class="cls-16" d="M511,345c16.8,7.6,37.8,18.8,38.2,27.9s-2.3,29.7-5,46.3c40.3-13.6,76.3-25.4,96.2-32.1l2.2-22.2-17.8-21-17.9-21.2-10.2-16.5S559.4,323.6,511,345Z"/><path class="cls-17" d="M778.1,171.1a221.5,221.5,0,0,0,14,30.3c1.2,2.3,64.2-4.4,68.5-73C839.9,128,797.6,132.1,778.1,171.1Z"/><path class="cls-17" d="M859.4,192.8c4.4,5,18.6,16.2,38.2,15.8-19.2-19.7,3.5-67.7,3.5-67.7Z"/><path class="cls-18" d="M787.7,221.7c-.6,2.9,71.4,55.7,113.4-80.8C901.1,140.9,812.5,103.8,787.7,221.7Z"/><path class="cls-19" d="M788.1,221.8h-.4c20.8-98.9,86.5-88.7,107.1-82.9C867.5,133.1,808.2,132.1,788.1,221.8Z"/><path class="cls-20" d="M882.4,170.4c-36.1,45.9-82.5,52-92.7,51.5C808.6,219.9,849.2,209.5,882.4,170.4Z"/><path class="cls-21" d="M961.9,129.9c-2.8,1.8-4.3,4.4-3.3,5.9s3.9,1.2,6.7-.5,4.3-4.4,3.3-5.9S964.7,128.2,961.9,129.9Z"/><path class="cls-21" d="M952.9,128a1.5,1.5,0,0,0-.5,2.1,1.6,1.6,0,0,0,2.2.5,1.6,1.6,0,0,0,.5-2.2A1.6,1.6,0,0,0,952.9,128Z"/><path class="cls-22" d="M663.4,469.9c-2.5,14.4-2.6,29.1.8,43.1,0,0,1.7.1,4.6,0a80.5,80.5,0,0,0,47.6-18.1c8.2-6.7,15.9-15.9,22.2-28.5,14-28.1,8.4-61.6.8-85.4a193.1,193.1,0,0,0-13.1-31.5,275.3,275.3,0,0,0-17.1,21.7C692.9,394,670,431.5,663.4,469.9Z"/><path class="cls-23" d="M668.8,513c12.8-.5,49.4-5.6,69.8-46.6,24.9-50.2-12.3-116.9-12.3-116.9S743.1,455.6,668.8,513Z"/><path class="cls-17" d="M663.4,469.9c6.1-5.7,12.3-10.8,16.3-12.6,7.5-3.2,26,21.8,36.7,37.6,8.2-6.7,15.9-15.9,22.2-28.5,14-28.1,8.4-61.6.8-85.4l-9-14.9-21.2,5.1C692.9,394,670,431.5,663.4,469.9Z"/><path class="cls-10" d="M725,330c29.8,10.7,54.6,14.5,75.2,13.7,85.7-3.4,98.9-87,98.9-87-67.6-17.6-109.6-13.2-135.5-.2C717.8,279.4,722.6,329.1,725,330Z"/><path class="cls-11" d="M725.2,329.4a1.4,1.4,0,0,0-.2.6c129,46.5,164.1-36.6,172-64.5C884.1,301.1,843,370.2,725.2,329.4Z"/><path class="cls-12" d="M851.7,257.2c-78.6,9-118.7,58.1-125.6,70.3C742,307,782.9,267.7,851.7,257.2Z"/><path class="cls-17" d="M725,330c29.8,10.7,54.6,14.5,75.2,13.7-19.9-10.5-49.8-29-45-42.1s7.3-33.8,8.4-45.1C717.8,279.4,722.6,329.1,725,330Z"/><path class="cls-24" d="M701.9,447.7c18,62.9,84.4,88,84.4,88,96.5-156.6-2.9-202.4-44.1-211.9-9.3-2.1-15.7-2.4-16.1-1.6C695.9,374.7,692.8,416.1,701.9,447.7Z"/><path class="cls-14" d="M726.9,322.5l-.8-.3c-75.4,131.5,18.1,192.6,50.1,208.9C735.8,507.2,659.8,443.1,726.9,322.5Z"/><path class="cls-25" d="M793.1,482.7c1.6-90.1-50.8-147.8-64.1-158.6C750.8,347.1,791.3,403.2,793.1,482.7Z"/><path class="cls-23" d="M464.6,229.8a456.4,456.4,0,0,0,53.2,34.1c29,16,65.1,31.1,94.2,28.8,0,0,14.1-2.9,32.3-15.1a141.5,141.5,0,0,0,12.8-9.8c1.8-1.4-36.2-60.9-97.5-68.6-26.3-3.4-57,2.9-90.7,27.4C467.4,227.6,466,228.7,464.6,229.8Z"/><path class="cls-26" d="M464.6,229.8s87.9,67.5,147.4,62.9c0,0,14.1-2.9,32.3-15.1l2.7-16.1s-64.1-57.1-178.1-34.9C467.4,227.6,466,228.7,464.6,229.8Z"/><path class="cls-17" d="M517.8,263.9c29,16,65.1,31.1,94.2,28.8,0,0,14.1-2.9,32.3-15.1a141.5,141.5,0,0,0,12.8-9.8c1.8-1.4-36.2-60.9-97.5-68.6,7,9.3,15,22.3,10,27.4S537.1,250.8,517.8,263.9Z"/><path class="cls-27" d="M513.9,301.9S536.2,337,577,347.3c17.4,4.4,38.3,4.4,62.3-4.9,17.4-6.7,36.4-18.3,57.1-36.6l6.4-5.9c.4-.3,0-2.6-1.2-6.1-4.7-13.2-22.7-43.7-63.4-45.9-13.7-.8-30,1.6-49,8.9C567.9,264.9,543,279.2,513.9,301.9Z"/><path class="cls-11" d="M702.4,299.5l.4.5c-100,93.9-165.1,31.6-183.5,9.1C545.3,336.7,610.5,383.8,702.4,299.5Z"/><path class="cls-17" d="M702.8,300c-23.1,21.6-44.3,35-63.5,42.4,14-17.5,34.2-46.4,24.5-56.5s-20.2-28.1-25.6-38C689.3,250.7,704.7,298.2,702.8,300Z"/><path class="cls-17" d="M606.5,297.2c-12.1,11.5-22.7,33.5-29.5,50.1,17.4,4.4,38.3,4.4,62.3-4.9,17.4-6.7,36.4-18.3,57.1-36.6,1.9-4.3,3.7-8.3,5.2-12-4.7-13.2-22.7-43.7-63.4-45.9-13.7-.8-30,1.6-49,8.9C603,267.2,620.2,284.3,606.5,297.2Z"/><path class="cls-13" d="M723,321.9c4.2,1.4,94.5-103.7-97-188.8C626,133.1,555.6,266.1,723,321.9Z"/><path class="cls-14" d="M723.3,321.2a2.4,2.4,0,0,1-.3.7C582.5,275.1,609.4,174,621.8,142.6,608.4,184.5,596,277,723.3,321.2Z"/><path class="cls-25" d="M665.6,166.5c60.3,63,60.7,136.3,58.2,152.3C724.4,288.9,716.6,224.1,665.6,166.5Z"/><path class="cls-28" d="M636.8,159.1c-2.4,1.5-2,6.6.9,11.5s7.4,7.6,9.8,6.1,2-6.6-.9-11.4S639.2,157.6,636.8,159.1Z"/><path class="cls-28" d="M628.6,184.8c-1.5.9-1.2,4.2.6,7.3s4.7,4.8,6.2,3.9,1.3-4.3-.6-7.3S630.2,183.8,628.6,184.8Z"/><path class="cls-17" d="M701.9,447.7c6.1-3.2,39.6-21.7,51-38.7s28.5-57.8-10.7-85.2c-9.3-2.1-15.7-2.4-16.1-1.6C695.9,374.7,692.8,416.1,701.9,447.7Z"/><path class="cls-10" d="M554.4,503.5l1.5-.7c15.8-7.5,159.4-70.7,185.3-104.8,42.6-55.7-17.8-82-17.8-82a.8.8,0,0,0-.1-.4c-5.5-30.9-53.5-54.8-113.5,1.4S555.2,503.9,554.4,503.5Z"/><path class="cls-28" d="M719.3,354.6c1.9,6.7,7.5,11,12.3,9.6s7.2-8,5.2-14.7-7.4-11.1-12.3-9.7S717.3,347.8,719.3,354.6Z"/><path class="cls-28" d="M704.9,379c1,3.5,4,5.8,6.5,5.1s3.8-4.3,2.8-7.8-4-5.9-6.5-5.2S703.8,375.4,704.9,379Z"/><path class="cls-17" d="M600.6,596.2l-6.4,57.7c12.9,11.4,27.7,15.7,40.8,16.9C637.2,652.9,637.3,614,600.6,596.2Z"/><path class="cls-29" d="M517.9,465.6h.5s20.5,146-73.2,94.8l-2.7-1.6s-29.4-2.9-26.8-39.7C418.3,484.1,509.5,467.1,517.9,465.6Z"/><path class="cls-13" d="M564,590c2.8,17.6,7.6,31.5,13.6,42.5a76,76,0,0,0,16.6,21.4,67.7,67.7,0,0,0,28.4,14.8,89,89,0,0,0,46.8-1.3C636.7,542.8,563.5,587.3,564,590Z"/><path class="cls-14" d="M564.4,589.9h-.5c14.5,89.9,79,83.4,99.3,79C636.3,673,578.6,671.5,564.4,589.9Z"/><path class="cls-25" d="M653.1,640c-32.5-42.7-77.2-50.1-87.2-50.2C584.2,592.4,623,603.4,653.1,640Z"/><path class="cls-30" d="M297.8,534.1s6.5,20.4,34.2,30.3,58.6,69,63.4,99,18.6,65,28.3,78.1,45.4,59.6,45.4,59.6l10.2-3.3s-37.4-44.6-49.8-61.5-27.8-73.5-27.8-73.5S388.6,583.4,351,558.7,297.8,534.1,297.8,534.1Z"/><path class="cls-18" d="M401.6,664c.2.8.3,1.5.5,2.2a83.2,83.2,0,0,0,11,28.8c30.5,48.6,103.4,40.1,108,39.5-7-76.7-48.4-86-79.8-81.5a122.7,122.7,0,0,0-36.5,11.6Z"/><path class="cls-17" d="M401.6,664c.2.8.3,1.5.5,2.2a83.2,83.2,0,0,0,11,28.8c4-19.4,21.8-23.8,21.8-23.8-1.3-8.7,1.9-14.5,6.4-18.2a122.7,122.7,0,0,0-36.5,11.6Z"/><path class="cls-27" d="M431.7,925.8a241.9,241.9,0,0,0,39.1-33c9.7-10.2,18.6-22.1,23.4-34.5a48,48,0,0,0,2.4-8.2c6.8-32-5.7-50.4-22.7-44.8a32.4,32.4,0,0,0-11.2,6.8,32.1,32.1,0,0,0-2.1-9.9,21.7,21.7,0,0,0-3.3-5.7c-4.6-5.9-13.3-9.2-29.7-.7C393.6,813.5,431.7,925.8,431.7,925.8Z"/><path class="cls-13" d="M347.4,756a99.2,99.2,0,0,0-3.5,23.9c-.7,21.8,3.8,42.4,4.2,44.3,0,.2,103.7-33,92.4-65.8-5.4-15.8-13.7-20-20.9-20.1a23.7,23.7,0,0,0-6.1.7,33.3,33.3,0,0,0-5.8,2.3,2.4,2.4,0,0,0-.9.6l-1.7.9a26.8,26.8,0,0,0-3-11.3c-7.9-14.7-29.2-13.5-46.5,8a35.6,35.6,0,0,0-4,6.1A56.5,56.5,0,0,0,347.4,756Z"/><path class="cls-17" d="M427.3,846.7c4.1,13.1,29.6,34.9,43.5,46.1,9.7-10.2,18.6-22.1,23.4-34.5-4.9-18.1-12.1-40.5-20.3-53-4-6.1-8.2-9.8-12.6-9.5a30.6,30.6,0,0,0-4,.7C438,801.3,422,829.6,427.3,846.7Z"/><path class="cls-10" d="M520.7,911l.6.3S590.6,776,482,794.2l-3.2.5s-29.7-7-39.5,29.7C430,859.3,513.1,906.7,520.7,911Z"/><path class="cls-17" d="M577.6,632.5a76,76,0,0,0,16.6,21.4,67.7,67.7,0,0,0,28.4,14.8c4.2-17,11.6-63.5-29.1-76.1C566.7,584.2,569.4,608.3,577.6,632.5Z"/><path class="cls-10" d="M578.4,708.8l.4.4s100.6-107.8-5.5-119.7l-3.1-.3s-25.8-14.5-44.7,17.1S572.4,702.7,578.4,708.8Z"/><path class="cls-10" d="M376.6,739.3c14.5,2.3,29.1,2.1,43.1-1.5a40,40,0,0,0-.1-4.6,80.8,80.8,0,0,0-18.9-47.3,85.4,85.4,0,0,0-28.8-21.7c-28.4-13.6-61.8-7.4-85.5.7a184,184,0,0,0-31.3,13.6s8.4,7.2,22.1,16.7C300.2,711.1,338.1,733.4,376.6,739.3Z"/><path class="cls-31" d="M135.3,444.9c-22.8-63.5-65.5-121-133.4-106.8,0,0,1.6,90.2.8,108.5,16.4-4.1,51,5.7,58.2,7.2a7.3,7.3,0,0,1,2-.5c24.2-3.8,51.5-3.3,76.1-3.4C138.6,449,135.6,445.8,135.3,444.9Z"/><path class="cls-31" d="M355.8,520.4l.5.4,1.5,1.5c4.7,3.4,8.6,7.6,13.1,11.8a79,79,0,0,0,12.8,9.3c-4.7-32.7-14-63.8-37.6-76.6-17-9.2-34.9-13-51.3-10a55.9,55.9,0,0,0-26.9,12.5c-12.3,10.1-22.1,26.2-27.5,49.1a189.3,189.3,0,0,0-4.6,32.7,298.1,298.1,0,0,0,1.3,44.4c.1,1.1.1,2.3.2,3.4.9,9.5,1.6,19.1,1.9,28.9.7,15.1.8,30.4.5,45.6-.4,11.6-.9,23.2-1.7,34.5-1.4,21-3.8,41.2-6.8,59.9-1.5,9.3-3.1,18.1-4.8,26.5-4.9,22.7-10.9,41.6-17.6,54.1-8.5,16.1-18.1,21.8-28,12.1-5.8-5.7-10.3-14.7-13.8-26.3C148.3,773,156.8,639,153.1,534.5c-26.8,3.6-53.7,7.9-80.8,8.6,1.4,14,2.7,29.6,3.9,46.9,0,1.6.2,3.2.2,4.8,1.1,18,1.5,38.4,1.6,59.8.2,26.1.2,54,.7,81.4.4,19.8,1.2,39.5,2.5,58.1,2.2,29.2,6,56,12.7,77.3,5.1,16,11.8,28.9,20.7,37.6a118.4,118.4,0,0,0,18.8,14.9c1.7,1.1,3.4,2.2,5.2,3.2,34.3,19.2,79.3,20.2,114.5-19.5,17-19.3,31.9-48.1,42.1-89.1,0,0,11.7-93.3,2.6-183.9-5.4-53.8-3.8-91.5,4.2-108.7C305.4,504.3,348.5,499.1,355.8,520.4Z"/><path class="cls-32" d="M440.8,567.2s-13.5,91.8-38.4,77.7c-10.2-5.8-12-32-14.6-62.9-7.4-3.3-14.6-6.8-21.2-11.8s-13.5-10.6-22.2-15.6c8.6,32.2,6.5,73.7,17.3,94.2,15.1,28.7,40.1,50.8,62.1,17.5S440.8,567.2,440.8,567.2Z"/><path class="cls-33" d="M72.3,543.1c1.3,12.5,2.5,26.2,3.5,41.2h1.6c9.2-1.3,16.2-10,25.9-11.8a45.1,45.1,0,0,1,28.3,3.6c5.5,2.8,10.3,6.7,16.1,9a23.1,23.1,0,0,0,6.4,1.6c-.1-17.8-.4-35.4-1-52.1C126.3,538.1,99.5,542.4,72.3,543.1Z"/><path class="cls-33" d="M94,669.9a47,47,0,0,0-15.9-1.5c.1,20.3.2,41.4.5,62.3l2-.7c4.7-1.7,8.9-4.6,13.4-6.8a55.1,55.1,0,0,1,46.3-.7c4.8,2.2,9.6,5.2,14.7,5.8-.6-20.2-.8-41.4-.8-63.1-8.5.5-17,8.4-25.7,10.3C116.9,677.9,105.3,672.9,94,669.9Z"/><path class="cls-33" d="M157.9,780.6c-5.1,2.9-10,7.9-13.7,11.8-5.6,5.8-11.9,11.3-19.5,15s-16.8,5.3-25.2,3c-6.1-1.7-11.9-5.3-17.6-7.9,1.7,19.7,4.3,38.2,8.1,54.3,7.4-2.5,14.1-8.1,20.2-12.9,8.8-7,20.6-13.6,31.5-9.7,7.9,2.8,13.9,11,22.3,10a12.2,12.2,0,0,0,5.6-2.2C163.7,826.8,160.1,805.6,157.9,780.6Z"/><path class="cls-33" d="M181.3,860.9a16.1,16.1,0,0,1-1.5,6.2c-2.8,5.9-8,11.1-8.8,17.6s2.3,11.3,3.5,17c2.2,9.8-1.5,20.4-9,27.8a23.9,23.9,0,0,1-9.3,5.4c24.1,8.2,51.1,7.3,75.7-8.8a22.5,22.5,0,0,0-1.6-8.5c-2.6-6.5-8.4-11.8-10.8-18.4-3.2-8.9-.1-18.8-3.4-27.6-2.2-6-7.1-10.7-12.6-14.9C196.6,865.9,189,868.1,181.3,860.9Z"/><path class="cls-33" d="M223.6,841.9c15.7-6.2,34.8.4,46.5,11.6,3.9,3.7,6.5,8.2,8.8,12.8,6.3-13.7,11.7-29.5,16.3-47.8l1.1-9.6c-19.1-3.6-43,12.1-60,1.9-4.1-2.4-7.7-6.2-11.8-8.4l-14.4,43.4C214.3,846,219.3,843.6,223.6,841.9Z"/><path class="cls-33" d="M237.9,723.3l-1.2-.4c-1.1,13-2.6,25.6-4.4,37.6l1.2-.6c11.4-7.3,26-10.5,39.9-9.4,11.5,1,18.6,5.9,26.5,10.4.6-12.2,1.1-25.9,1.3-40.5-5.2.8-10.5,2.7-15.5,4.1A84.5,84.5,0,0,1,237.9,723.3Z"/><path class="cls-33" d="M239.8,663.8a73.1,73.1,0,0,1,38.8-3.5c7.8,1.4,14.8,5.7,21.7,9.9-.4-10.7-1.2-21.6-2.2-32.4-3.2,1-6.3,2.3-9.5,3.4a64.9,64.9,0,0,1-49.1-4.1Q240,650.5,239.8,663.8Z"/><path class="cls-33" d="M260.9,567.3c-8.6,1.9-18.5,1.1-25.4-3.8-.1,9.1.4,19,1.3,29.5,3.3-1.8,6.3-4.3,9.4-6.2a48.8,48.8,0,0,1,40.5-5,26.5,26.5,0,0,1,8,4.6,285.8,285.8,0,0,1,1.3-35.2,74.3,74.3,0,0,0-11.3,5.6C277.3,561.1,269.6,565.4,260.9,567.3Z"/><path class="cls-33" d="M312.5,511.9l-6.6-13.2c-2.2-4.5-4.7-9.4-9.6-11.6-8.4-4-19,1.4-28-1.1-4.1-1.2-7.3-3.8-10.6-6.1-6,7.7-11,17.4-14.7,29.1a62.7,62.7,0,0,1,5.8-2.9c12.4-5.3,27.8-1.7,38.5,6a60.7,60.7,0,0,1,12.5,12.3c.5.6,1,1.6,1.7,2.7l.6-1.3C303,519.8,307,515.1,312.5,511.9Z"/><path class="cls-33" d="M318.4,460.2c2.7,1.7,5.8,2.7,8.5,4.4,5.3,3.4,8.4,9.2,8,14.9-.2,3-1.2,6-.7,8.9s2.4,4.9,3.5,7.5a16.3,16.3,0,0,1-.2,11.3c7.3,1.1,8.5,4.6,17.1,10.3a17.3,17.3,0,0,0,1-2.4c1.7-5.7-.7-11.8.9-17.5s5.7-9.3,7.8-14a54.1,54.1,0,0,0-18.2-16.8,91.1,91.1,0,0,0-31.7-10.5A11.5,11.5,0,0,0,318.4,460.2Z"/><path class="cls-33" d="M370.9,534.1a72.2,72.2,0,0,0,12.7,9.2.4.4,0,0,0,.1-.3c-1.1-7.5-2.4-14.8-4.1-21.8a16.8,16.8,0,0,1-3.9,3c-3.2,1.8-7,2.8-10.1,4.8C367.3,530.7,369,532.4,370.9,534.1Z"/><path class="cls-34" d="M344.4,554.6c.7,2.5.3,1.2.9,3.8"/><path class="cls-33" d="M378.2,577.4a27.4,27.4,0,0,1-21.7,6,21.8,21.8,0,0,0-7.2-.1c.5,4.4,1,8.9,1.6,13.2,3.4-1.4,6.9-3.7,8.9-4.5s7.5-1.3,11.2-.6,7.3,2.2,10.9,3.3a18.5,18.5,0,0,0,7,.6c-.3-4.3-.7-8.8-1.1-13.3C384.6,580.5,381.3,579,378.2,577.4Z"/><path class="cls-33" d="M392.3,623a32.8,32.8,0,0,1-16.1,14.8c-4,1.8-12,1.8-17.5,3.7a44.4,44.4,0,0,0,3,7.3c1.5,2.8,3.1,5.6,4.7,8.2a31.8,31.8,0,0,0,10.5-1.4c5.9-2.1,11-5.7,15.7-9.4a36.4,36.4,0,0,0,5.8-5.2C395.6,636.9,393.7,630.7,392.3,623Z"/><path class="cls-33" d="M418.9,638.7c-2.8,3.9-5.8,6.6-9.2,7.4l.7,1.3a27.8,27.8,0,0,1,1.8,23.7,28.8,28.8,0,0,1-5.9,9.3,25.1,25.1,0,0,1-2.3,2.1c6.6-1.5,13.3-6.5,19.8-16.2a26.1,26.1,0,0,0,1.7-2.8,95.2,95.2,0,0,0-2.9-10.8A110.9,110.9,0,0,1,418.9,638.7Z"/><path class="cls-33" d="M0,338.4l.6,2.9,2.5.4A28.2,28.2,0,0,1,18.5,351c3.9,4.4,6.6,9.5,9.2,14.7,3.5,7,6.8,15.1,3,22s-10,9.9-8.6,15.7,6.7,6.7,10.1,10.1c5.5,5.3,5.5,13.7,2.3,20.2-1.9,3.9-8.1,8.9-11.3,12l37.7,8.1a7.3,7.3,0,0,1,2-.5l1.3-.2c.4-2.4.7-4.7,1.2-7.1a41.7,41.7,0,0,1,18.9-25.5c7.8-4.9,17.4-7.8,24-14a22.5,22.5,0,0,0,5.4-7.7C88.4,356.9,50.7,327.8,0,338.4Z"/><path class="cls-35" d="M76.4,594.8c1.1,18.1,1.5,38.4,1.6,59.8a11.8,11.8,0,0,1,2.7.3c7.5,1.5,14.3,4.8,21.8,6.1s16.5-.6,20-6.6-.9-14.4-2.7-21.7c-1-4.4-.9-9-2.5-13.3-3.8-10.3-16.3-15.7-27.5-20.2A87.5,87.5,0,0,0,76.4,594.8Z"/><path class="cls-36" d="M78.7,736c.4,19.8,1.1,39.4,2.5,58.1,9.5.1,19.6-2.1,27.2-4.4,5.1-1.6,10.3-3.4,13.9-6.9s5.6-9.4,7-14.6c.8-3.1,1.7-6.5.1-9.5s-5.5-4.8-9-6.2l-37.6-15Z"/><path class="cls-37" d="M94,871.5c5,15.9,11.7,28.8,20.5,37.4a119.2,119.2,0,0,0,24.1,18.2,19.3,19.3,0,0,0,5.1-9.3c1.1-4.5,1.4-9.2,3.2-13.5s5.4-8.4,7.3-12.9,1.7-10.3-2.6-13.2c-2.5-1.7-5.8-2-9-2.3l-47.2-4.3Z"/><path class="cls-38" d="M226.3,794.3c4.3-.1,8.8-.6,12.1,0,5.6.9,11,2.8,16.8,3s12-1.9,14.2-6.6-.6-10.2-5.2-13.3-10.3-4.1-16-5-11.4-1.7-16.3-4.2l-.7-.4C229.7,777.1,228.1,786,226.3,794.3Z"/><path class="cls-39" d="M239.6,673.4c-.3,11.6-.8,23.2-1.6,34.5,8.5.3,15,5.8,22.8,5.8,5.9,0,9.8-5.3,11.8-10.2s3.5-12.3,0-17.4-11-7.4-17.7-9Z"/><path class="cls-40" d="M239.2,627.8a84.4,84.4,0,0,1,10-.9c5.9,0,12.2.5,17.4-2.5s6.4-6.7,4.5-10.3-6.7-4.7-10.9-5.8a95.9,95.9,0,0,1-21.2-8.5,14,14,0,0,1-1.7-.9C238.2,608.4,238.9,618,239.2,627.8Z"/><path class="cls-41" d="M240.4,518.5a178.1,178.1,0,0,0-4.5,32.6,64.5,64.5,0,0,1,9.1-5,66.4,66.4,0,0,1,23-4.2c2.2-.1,4.6,0,6.7-.8s3.6-3.1,2.6-4.9-2-1.9-3.3-2.3c-5.9-1.8-12.5-.1-18.3-2s-9.5-6.8-13.3-11.3Z"/><path class="cls-42" d="M294.8,456.8a56.8,56.8,0,0,0-26.9,12.5c3.7.3,6.9,1.3,11.9,2.6s9.2.8,13.8,1,9.6,1.6,12.1,4.9,2.2,5.3,3.7,7.7,5.2,4.4,7.8,2.7a4,4,0,0,0,1.5-4.6,14.8,14.8,0,0,0-3-4.5c-4-4.5-8.1-9-12.1-13.6A60.3,60.3,0,0,0,294.8,456.8Z"/><g class="cls-43"><path class="cls-44" d="M142,919.7c-8.8-8.6-15.5-21.5-20.6-37.4-6.7-21.4-10.5-48.2-12.7-77.4-1.4-18.7-2.1-38.3-2.5-58.1-.6-27.4-.5-55.2-.7-81.4-.2-21.4-.5-41.8-1.6-59.8,0-1.6-.2-3.2-.3-4.8-1.5-22.5-3.1-42.3-5.3-59.3-8.6.8-17.3,1.4-26,1.6,1.5,14.1,2.7,29.6,3.9,46.9.1,1.6.2,3.2.2,4.8,1.1,18.1,1.5,38.4,1.6,59.8.2,26.2.1,54,.7,81.4.4,19.8,1.1,39.4,2.5,58.1,2.2,29.2,6,56,12.8,77.4,5,15.9,11.7,28.8,20.5,37.4a119.2,119.2,0,0,0,24.1,18.2,105.8,105.8,0,0,0,27,10.5A118.4,118.4,0,0,1,142,919.7Z"/><path class="cls-44" d="M373.9,575a57.4,57.4,0,0,1-7.3-4.8c-8-6-13.5-10.6-22.2-15.6,8.6,32.2,6.5,73.7,17.3,94.2s26.9,38,43.3,33.4a98.6,98.6,0,0,1-15.8-22.6C379.8,641.8,379.4,605.4,373.9,575Z"/><path class="cls-45" d="M420.3,636.6c13.4-21.1,20.5-69.4,20.5-69.4s4.1,53.4-11.2,88.3C425.2,652.7,422.3,646,420.3,636.6Z"/></g><g class="cls-46"><g class="cls-47"><path class="cls-48" d="M18.7,710.4l-1.2,1.1,1.1-1.2Z"/><path class="cls-49" d="M276,693.5c-8.4-6.5-17.9,2.5-23.8,8.7-7.5,7.7-44.4,39.9-42.8,50.9,3.4,24.3,11.7,52,20.9,74.7,6.5,16.1,25.3,57.8,47.1,62.7,8.5-31.5,2.3-164.1-1.4-197Z"/><path class="cls-50" d="M240.7,935.4c-25.7,5.3-65.8,36.7-85.1,53.3-8,6.8,4.8,24.1,11.3,31.3,18.4-2.2,72-49.5,85.8-60.5,2.6-2.1,13.2-11.6,11.8-15.8-1.8-5.7-17.3-8-23.8-8.3Z"/><path class="cls-51" d="M136.6,929.3c14.6-6.2,34.9-16.9,45.3-26.1-12.6-2.1-32-2.7-45-2.5a64.3,64.3,0,0,0-.3,28.6Z"/><path class="cls-52" d="M78.4,957.8c5.7-5.9,3.6-18.9,3.6-26.4s.8-41.5-3.4-50.6c-3.6,1.1-9.7,5.1-11.8,6.6-7.9,5.7-16.2,11-24.2,16.5-10.2,7-31.9,21.9-34.4,35-1,5.1,1.2,9.9,4,14,10.1,15.3,49.2,9.8,66.2,4.9Z"/><path class="cls-53" d="M30.8,843.9c-9.9-11.2-31.5-25.2-48.4-34.2a700.9,700.9,0,0,0-.6,72.5c17.8-9.9,34.2-24.4,49-38.3Z"/><path class="cls-54" d="M184.4,780.4c-5.5-5.2-27.1-6.4-33.4-6-14.7,1-30.7,48.7-35.5,60.1a7,7,0,0,0-.6,1.9c3.3,6.6,31.1,10.8,37.8,11.6a284.2,284.2,0,0,0,38.7,1.6c4.6-20-.6-52.2-7-69.2Z"/><path class="cls-55" d="M81.9,701.6C75,703.7,57.1,716.1,52.2,719,38,727.2,23.6,734.6,9.1,742.2c-2.3,1.2-7.7,3.9-12,6.4C1.8,752.9,8.6,758,11.2,760c9.3,7.1,44.6,39.4,57.6,41.9,7.7-15.2,22.9-40.9,24.9-56.7s-5.5-30.9-11.8-43.6Z"/><path class="cls-56" d="M117.6,724.2l2.1.5c8.5,2.3,41.3,12.4,51,9.3a32.4,32.4,0,0,0-1.5-7.2c-3.5-10.9-20.8-68.4-32.9-71.4-8.1-2.1-28.8,23.8-32.7,28.8-7.4,9.9,2.1,36,14,40Z"/><path class="cls-57" d="M-33,708.6c22.4-10.9,58.1-36.8,71-47.1,1.4-10.1-19.9-39.9-25.8-44.9-1.6-1-4.2-2.3-6.2-1.9-12.4,2.5-25.3,40.4-28.4,50.8A430,430,0,0,0-33,708.6Z"/><path class="cls-58" d="M140.1,599.7c-9.3-35.5-25.1-45.9-61.4-48.8-20-1.6-31.6,22.2-21.8,37.1,3.8,5.8,7.4,11.7,11.1,17.5,5,7.9,19.7,31.5,29.7,33.1,2.8.4,5.8-1.4,7.5-2.6,7.7-6,32.4-27,34.9-36.3Z"/><path class="cls-59" d="M4.6,562c1.9-1.7,3.1-6.6,3.3-9.6-9.2-15.6-71.3-60.4-92.4-65.5-7.9,12.8-13.3,28.4-6.3,42.8,13.9,29.1,65.9,40,95.4,32.3Z"/><path class="cls-60" d="M258.6,502.9c-4.2-17.6-27.6-25.8-43.3-25.3-14.2,2.8-55.4,48.2-46.4,63.5,12.1,20.7,22.2,30.6,46.2,21.4,36.8-14,44.8-20.7,43.5-59.6Z"/><path class="cls-61" d="M38.3,494.9a103.1,103.1,0,0,0,0-43.2c-13.1-11.1-76-26.2-96.3-21.1,21.6,19.3,76.7,61.2,96.3,64.3Z"/><path class="cls-62" d="M161,442.6c-4.2-6.3-16.1-15.4-21-19-18.2-13.9-46.7,20.1-49.5,34.1-1.5,7.5-6.4,30.8-1.8,37.6s20.7,5.2,25.9,5c12.1-2.4,43.9-43,46.4-57.7Z"/><path class="cls-63" d="M72.5,320.4c-14.3,4.6-33.3,18.9-45.4,27.4-6.8,4.8-31.7,19.9-42.8,29.2l1.7.5c17.5,4.9,58.5,20.9,75.5,18.8,14.2-1.9,26.7-15,35.5-25.1,5.1-5.9,4.4-22.6,2.7-29.7-3.6-14.5-12.1-22.2-27.2-21.1Z"/><path class="cls-64" d="M1.8,259.2c-15.2-5-34.6-10.4-50.7-13.2-4.7,14.3.5,58.7,5.6,84.1,22.2-11.9,53-36.7,66.4-47.9.8-.7,3.1-2.7,3.5-3.8-.8-6-18.5-16-24.8-19.2Z"/><path class="cls-65" d="M259.1,420.9c8.9-18.7,9.1-71.1,8.5-89.3s-5.4-78.1-17.7-90.5c-7.9-7.9-18.4-15.8-30.3-13.7-22.1,3.9-44.2,39.2-55.2,57.2s-14.6,38.9-8.9,59.9a100.6,100.6,0,0,0,15.3,31.6C183.3,393.7,202,409.6,222,418c10,4.2,26.4,8.8,37.1,2.9Z"/><path class="cls-66" d="M107.8,175.6c-6.1,2.5-9.7,8.7-13.7,13.7-13.8,17-33.7,38.3-19.1,60.6,4.2,6.4,15.5,22.5,25,21.3,16.5-2.2,39-45.8,46.8-59.9,3.1-5.6,6.6-13.8,3.2-20.1-6.5-11.5-29.2-15.5-42.2-15.6Z"/><path class="cls-67" d="M220.9,593.3c-6.1,2.5-9.7,8.7-13.7,13.7-13.7,17-33.6,38.3-19.1,60.6,4.2,6.4,15.6,22.5,25.1,21.2,16.4-2.1,38.9-45.7,46.8-59.8,3.1-5.6,6.6-13.8,3.1-20.1-6.4-11.5-29.1-15.5-42.2-15.6Z"/><path class="cls-68" d="M259.9,132.2a22.5,22.5,0,0,0-1.4-4.4,34.5,34.5,0,0,0-8.9-11.9c-4.8-4.5-18.9-13.2-26.9-12.8-6.1,9.1-13,26.2-15.6,35.1-5.8,20-7.2,36.5,17.7,37.8,6.7.4,27.5,1.2,32.5-5.1s3.2-29.8,2.6-38.7Z"/><path class="cls-69" d="M57.3,133.1a30.1,30.1,0,0,0-.1-3.1,35.3,35.3,0,0,0-2.8-5c-3-5.3-10.4-17-17.8-16.9C25.5,108.3,9.1,129,3.1,137S-33.3,183.3-34,193.7c6.5,5,35.7,5.9,42.5,5.9,21.3.2,44.2-47.7,48.8-66.5Z"/><path class="cls-70" d="M159.1,59.3l-5.8,1.2c-11,3.9-52.8,20.1-50.9,34.5s33.4,30,48.7,32.4c6.1-8.9,13.1-24.4,15.9-32.2s7.8-24.4,3.3-31.5c-2-3.2-7.3-4.1-11.2-4.4Z"/><path class="cls-71" d="M119.8,11.4c5.3-6,7.9-15.8,3.4-22.5C103-6.4,44.5,25.9,36.1,41.4c15.4,20,69.7-18.6,83.7-30Z"/><path class="cls-72" d="M263.7-71.5c-.5-3.7-1.9-10.3-5-12.4-4.9-3.3-18.5-1.1-23.8-.1C180.5-74,167-66,179.2-9.7c5.7,26.4,52.6,66,80.9,55.9,8.5-17.1,4.9-96.2,3.6-117.7Z"/></g></g></g></g></svg>